<svg xmlns="http://www.w3.org/2000/svg" xmlns:xlink="http://www.w3.org/1999/xlink" width="89px" height="102px" viewBox="0 0 89 102"> <!-- Generator: Sketch 43.2 (39069) - http://www.bohemiancoding.com/sketch --> <title>investors</title> <desc>Created with Sketch.</desc> <defs></defs> <g id="Icons" stroke="none" stroke-width="1" fill="none" fill-rule="evenodd"> <g transform="translate(-650.000000, -35.000000)" id="investors"> <g transform="translate(640.000000, 27.000000)"> <rect id="Rectangle-path" x="0" y="0" width="110" height="110"></rect> <g id="Layer_x0020_1" transform="translate(10.000000, 8.000000)" fill="#97C355"> <path d="M44.0997204,0 C51.185049,0 57.5757376,2.88151984 62.2199026,7.51182412 C66.8640675,12.162001 69.7220152,18.5808348 69.7220152,25.6554628 C69.7220152,32.7499634 66.8442207,39.1489247 62.2199026,43.7991015 C57.5757376,48.4492784 51.1652022,51.3109256 44.0997204,51.3109256 C37.0143918,51.3109256 30.6237032,48.4294058 25.9795383,43.7991015 C21.3353733,39.1489247 18.4774256,32.7300908 18.4774256,25.6554628 C18.4774256,18.5609623 21.3552201,12.162001 25.9795383,7.51182412 C30.6237032,2.86164729 37.0342386,0 44.0997204,0 Z M59.9772075,9.75742234 C55.9086014,5.68354947 50.2919404,3.1796081 44.0997204,3.1796081 C37.9075004,3.1796081 32.2908394,5.70342202 28.2222333,9.75742234 C24.1536272,13.8312952 21.652923,19.455227 21.652923,25.6554628 C21.652923,31.8556986 24.1734741,37.4796304 28.2222333,41.5535033 C32.2908394,45.6273762 37.9075004,48.1313175 44.0997204,48.1313175 C50.2919404,48.1313175 55.9086014,45.6075036 59.9772075,41.5535033 C64.0458136,37.4796304 66.5465178,31.8556986 66.5465178,25.6554628 C66.5465178,19.455227 64.0259667,13.8312952 59.9772075,9.75742234 Z" id="Shape" fill-rule="nonzero"></path> <path d="M4.32661523,98.567851 L44.5165044,98.567851 L84.7063937,98.567851 C84.7659342,93.5202231 85.1033308,89.1681345 85.3811869,85.3923499 C86.3933767,71.9783783 86.8300075,66.2948288 70.595277,60.9689852 L45.6279285,85.9686539 C45.0126759,86.5847029 44.0004861,86.5847029 43.3852335,85.9686539 L18.4377319,60.9888578 C2.18315448,66.2948288 2.61978537,71.9982508 3.63197517,85.4122225 C3.9098312,89.1880071 4.2472278,93.5400957 4.30676837,98.5877235 L4.32661523,98.567851 Z M44.5165044,101.747459 L2.73886652,101.747459 C1.86560473,101.747459 1.15111781,101.032047 1.15111781,100.157655 C1.15111781,94.4939781 0.793874355,89.7245659 0.476324613,85.6308205 C-0.69464006,70.2295938 -1.17096467,63.81076 18.3186507,57.6900144 C18.8942096,57.4714163 19.549156,57.5906516 20.0056337,58.0477203 L44.5165044,82.5903203 L69.047222,58.0278477 L69.047222,58.0278477 C69.4441592,57.6303967 70.0594118,57.4515438 70.6349707,57.6303967 C90.2039736,63.81076 89.7276489,70.1898487 88.5566843,85.610948 C88.2391345,89.7046934 87.8818911,94.4741055 87.8818911,100.137782 C87.8818911,101.012175 87.1674041,101.727586 86.2941424,101.727586 L44.5165044,101.727586 L44.5165044,101.747459 Z" id="Shape" fill-rule="nonzero"></path> <polygon id="Shape" points="33.4816509 55.2655632 44.5165044 61.1279656 33.4816509 66.9903681"></polygon> <polygon id="Shape" points="55.551358 55.2655632 44.5165044 61.1279656 55.551358 66.9903681"></polygon> </g> </g> </g> </g> </svg>