<?xml version="1.0" encoding="UTF-8"?>
<svg width="100px" height="110px" viewBox="0 0 100 110" version="1.1" xmlns="http://www.w3.org/2000/svg" xmlns:xlink="http://www.w3.org/1999/xlink">
    <!-- Generator: Sketch 48.2 (47327) - http://www.bohemiancoding.com/sketch -->
    <title>apply-online</title>
    <desc>Created with Sketch.</desc>
    <defs></defs>
    <g id="Icons" stroke="none" stroke-width="1" fill="none" fill-rule="evenodd" transform="translate(-142.000000, -806.000000)">
        <g id="apply-online" transform="translate(142.500000, 806.000000)" fill-rule="nonzero">
            <path d="M70.4122705,28.3355259 L70.4122705,10.9714798 L87.7539258,28.3310478 L70.4122705,28.3355259 Z M93.8755637,27.0323828 L71.7086964,4.86551543 L66.8610936,0 L15.5257635,0 L15.5257635,7.86140114 L20.3756054,19.7553809 L20.3756054,4.85432004 L65.1571556,4.85432004 L65.1571556,33.5861627 L93.8755637,33.5861627 L93.8755637,104.860478 L20.3756054,104.860478 L20.3756054,69.5188786 L15.5257635,57.6248988 L15.5257635,109.714798 L98.7298838,109.714798 L98.7298838,31.8867028 L93.8755637,27.0323828 Z" id="Shape" fill="#96C253"></path>
            <path d="M16.7035182,19.1441127 L11.6745501,6.82918641 C10.9714798,5.56858577 8.25771786,3.11903497 4.03033952,4.84536373 C-0.197038821,6.5716925 -0.223907751,10.1363039 0.150018193,11.5290101 L5.98953234,25.8367154 L32.672619,91.2177787 L41.279633,100.469647 C41.3604634,100.545526 41.4481637,100.613738 41.5416051,100.673403 C42.0395381,100.992994 42.6617321,101.050648 43.2099109,100.827992 C43.7580896,100.605336 44.1638583,100.130151 44.2979095,99.5538643 C44.3231412,99.4457995 44.3381346,99.3355977 44.342691,99.2247199 L44.2061073,86.515716 L16.7035182,19.1441127 Z" id="Shape" fill="#03AAC4"></path>
            <polygon id="Shape" fill="#96C253" points="85.5327609 76.1286354 43.388844 76.1286354 45.2159313 80.6067904 81.0546059 80.6067904 81.0546059 91.802178 47.4281398 91.802178 47.4751605 96.280333 85.5327609 96.280333"></polygon>
            <path d="M51.9465983,22.6146829 L33.8100704,22.6146829 L33.8100704,18.1365278 L51.9465983,18.1365278 L51.9465983,22.6146829 Z M56.4247533,13.6583728 L29.3319154,13.6583728 L29.3319154,27.0928379 L56.4247533,27.0928379 L56.4247533,13.6583728 Z" id="Shape" fill="#96C253"></path>
            <polygon id="Shape" fill="#96C253" points="85.3088532 64.9332478 85.3088532 60.4550928 36.9917996 60.4550928 38.8188868 64.9332478"></polygon>
            <polygon id="Shape" fill="#96C253" points="85.3088532 49.2597053 85.3088532 44.7815502 30.5947551 44.7815502 32.4218424 49.2597053"></polygon>
        </g>
    </g>
</svg>