<?xml version="1.0" encoding="utf-8"?>
<!-- Generator: Adobe Illustrator 22.0.0, SVG Export Plug-In . SVG Version: 6.00 Build 0)  -->
<svg version="1.1" xmlns="http://www.w3.org/2000/svg" xmlns:xlink="http://www.w3.org/1999/xlink" x="0px" y="0px"
	 viewBox="0 0 552.1 265.5" style="enable-background:new 0 0 552.1 265.5;" xml:space="preserve">
<style type="text/css">
	.st0{fill-rule:evenodd;clip-rule:evenodd;fill:#338CAD;}
	.st1{fill-rule:evenodd;clip-rule:evenodd;fill:#6CC5D4;}
	.st2{fill-rule:evenodd;clip-rule:evenodd;fill:#03AAC4;}
	.st3{fill-rule:evenodd;clip-rule:evenodd;fill:#3B3B3C;}
	.st4{fill-rule:evenodd;clip-rule:evenodd;fill:#FFFFFF;}
	.st5{fill-rule:evenodd;clip-rule:evenodd;fill:#DCE48C;}
	.st6{fill-rule:evenodd;clip-rule:evenodd;fill:#B6E2EA;}
	.st7{fill-rule:evenodd;clip-rule:evenodd;fill:#08224C;}
	.st8{fill-rule:evenodd;clip-rule:evenodd;}
	.st9{fill-rule:evenodd;clip-rule:evenodd;fill:#CCCCCC;}
	.st10{fill-rule:evenodd;clip-rule:evenodd;fill:#E6E6E6;}
	.st11{fill-rule:evenodd;clip-rule:evenodd;fill:#B3B3B3;}
</style>
<g id="Capa_1">
</g>
<g id="Layer_15">
	<g>
		<polygon class="st0" points="50.1,202.5 35.4,200.2 21.2,200.7 71.6,263.1 63.2,233.8 		"/>
		<polygon class="st1" points="21.2,200.7 35.6,201.6 50.1,202.5 51.8,183.5 50.1,162.3 		"/>
		<polygon class="st0" points="50.1,162.3 50.1,202.5 60.8,191.8 85.5,191.8 		"/>
		<polygon class="st2" points="71.5,222 50.1,202.5 71.6,263.1 73.5,235.8 		"/>
		<polygon class="st1" points="106.7,188.1 71.5,222 71.6,263.1 99.4,217 		"/>
		<polygon class="st0" points="106.7,188.1 94.5,214.2 71.6,263.1 131.9,209.5 122.1,196.8 		"/>
		<polygon class="st2" points="106.7,188.1 119.7,199.1 131.9,209.5 167.1,188.1 152.3,183.6 139.5,188.1 122.5,185.3 		"/>
		<polygon class="st1" points="106.7,188.1 121.8,188.1 139.5,188.1 123.5,168 108.6,155.4 82.8,144.4 45.7,140.2 		"/>
		<polygon class="st2" points="108.6,155.4 139.5,188.1 139.9,188.1 141.3,153 133,112.7 117.4,131.8 		"/>
		<polygon class="st0" points="133,112.7 136.5,153.6 139.5,188.1 167.1,188.1 		"/>
		<polygon class="st0" points="108.6,155.4 121,133.6 133,112.7 162.1,61.6 125.8,82.4 45.7,140.2 		"/>
		<polygon class="st1" points="45.7,140.2 162.1,61.6 115.3,65.5 71.5,75.5 82.8,85.5 		"/>
		<polygon class="st0" points="71.5,75.5 162.1,61.6 71.5,2.5 		"/>
		<polygon class="st2" points="71.5,75.5 71.5,2.5 23.7,71.2 39.8,77 		"/>
		<polygon class="st1" points="71.5,75.5 23.7,70.6 10.9,88.9 31.9,94.8 36,85.2 		"/>
		<polygon class="st0" points="10.9,88.9 23.7,70.6 12,69.4 		"/>
		<polygon class="st2" points="50.1,162.3 50.1,183.9 50.1,202.5 60.8,191.8 		"/>
		<polygon class="st2" points="45.7,140.2 162.1,61.6 82.8,85.5 		"/>
		<path class="st3" d="M221.1,89.8c0-19,12.1-28.5,36.2-28.5c7.8,0,15.5,1.1,23.3,3.2v13.3c-7.9-2.3-15.8-3.4-23.7-3.4
			c-7.9,0-13.5,1.4-16.7,4.1c-3.2,2.7-4.8,6.8-4.8,12.2v78.5c0,5.2,1.6,9.2,4.9,12c3.3,2.7,9,4.1,17.3,4.1c8.2,0,16-1.1,23.4-3.2
			v13.1c-6.7,2.1-14.6,3.2-23.7,3.2c-24.1,0-36.2-9.5-36.2-28.5V89.8L221.1,89.8z M354.1,92.4c0-12.7-6.6-19.1-19.8-19.1
			c-13.2,0-19.8,6.4-19.8,19.1v74.7c0,12.9,6.6,19.3,19.8,19.3c13.2,0,19.8-6.4,19.8-19.3V92.4L354.1,92.4z M300.3,92.2
			c0-9.5,2.9-17.2,8.6-23.1c5.8-5.9,14.2-8.8,25.4-8.8c11.2,0,19.7,2.9,25.4,8.8c5.8,5.9,8.6,13.6,8.6,23.1v75.3
			c0,9.5-2.9,17.2-8.6,23c-5.8,5.8-14.3,8.7-25.5,8.7c-11.2,0-19.7-2.9-25.4-8.7c-5.7-5.8-8.5-13.5-8.5-23V92.2L300.3,92.2z
			 M428.2,143.1h-19.9v54.2h-14.3v-135h32.7c10.7,0,18.8,2.7,24.3,8.1c5.5,5.4,8.2,12.8,8.2,22.2v19.9c0,14.5-5.8,23.8-17.3,28.1
			l21.5,56.6h-15.7L428.2,143.1L428.2,143.1z M408.4,130.6h17.9c12.6,0,18.9-6.1,18.9-18.3V93.2c0-12.2-6.3-18.3-18.9-18.3h-17.9
			V130.6L408.4,130.6z M485.9,62.3h14.3v122.5h41v12.5h-55.2V62.3z"/>
	</g>
</g>
<g id="Capa_1_1_">
</g>
<g id="Capa_1_2_">
</g>
<g id="Capa_1_3_">
</g>
<g id="Capa_1_4_">
</g>
<g id="Capa_1_5_">
</g>
<g id="Capa_1_6_">
</g>
<g id="Layer_14">
</g>
<g id="Capa_1_7_">
</g>
<g id="Capa_1_8_">
</g>
<g id="Capa_1_9_">
</g>
<g id="Capa_1_10_">
</g>
<g id="Capa_1_11_">
</g>
<g id="Capa_1_12_">
</g>
</svg>
