<svg xmlns="http://www.w3.org/2000/svg" xmlns:xlink="http://www.w3.org/1999/xlink" width="114px" height="114px" viewBox="0 0 114 114"> <!-- Generator: Sketch 43.2 (39069) - http://www.bohemiancoding.com/sketch --> <title>angels</title> <desc>Created with Sketch.</desc> <defs></defs> <g id="Icons" stroke="none" stroke-width="1" fill="none" fill-rule="evenodd"> <g transform="translate(-950.000000, -25.000000)" id="angels"> <g transform="translate(952.000000, 27.000000)"> <rect id="Rectangle-path" x="0" y="0" width="110" height="110"></rect> <g id="1493773562_VENTURE_CAPITAL" stroke="#97C355" stroke-width="3.66666667"> <path d="M69.19,44 L40.81,44 C31.7826667,49.0013333 25.6666667,58.6153333 25.6666667,69.6666667 C25.6666667,85.8678333 38.7988333,99 55,99 C71.2011667,99 84.3333333,85.8678333 84.3333333,69.6666667 C84.3333333,58.6153333 78.2173333,49.0013333 69.19,44 Z" id="Shape"></path> <path d="M66,65.6333333 L66,64.1666667 C66,60.1168333 62.7165,56.8333333 58.6666667,56.8333333 L51.3333333,56.8333333 C47.2835,56.8333333 44,60.1168333 44,64.1666667 L44,64.1666667 C44,68.2165 47.2835,71.5 51.3333333,71.5 L58.6666667,71.5 C62.7165,71.5 66,74.7835 66,78.8333333 L66,78.8333333 C66,82.8831667 62.7165,86.1666667 58.6666667,86.1666667 L51.3333333,86.1666667 C47.2835,86.1666667 44,82.8831667 44,78.8333333 L44,77.3666667" id="Shape"></path> <path d="M55,49.5 L55,56.8333333" id="Shape"></path> <path d="M55,93.5 L55,86.1666667" id="Shape"></path> <path d="M69.6666667,14.6666667 C67.6408333,14.6666667 66,16.3075 66,18.3333333 C66,20.3591667 64.3591667,22 62.3333333,22 C60.3075,22 58.6666667,20.3591667 58.6666667,18.3333333 C58.6666667,16.3075 57.0258333,14.6666667 55,14.6666667 C52.9741667,14.6666667 51.3333333,16.3075 51.3333333,18.3333333 C51.3333333,20.3591667 49.6925,22 47.6666667,22 C45.6408333,22 44,20.3591667 44,18.3333333 C44,16.3075 42.3591667,14.6666667 40.3333333,14.6666667 C38.3075,14.6666667 36.6666667,16.3075 36.6666667,18.3333333 L36.6666667,22 C36.6666667,28.0078333 39.5688333,33.3226667 44.033,36.6666667 L65.967,36.6666667 C70.4311667,33.3226667 73.3333333,28.0078333 73.3333333,22 L73.3333333,18.3333333 C73.3333333,16.3075 71.6925,14.6666667 69.6666667,14.6666667 Z" id="Shape"></path> <path d="M69.6666667,44 L40.3333333,44 C38.3075,44 36.6666667,42.3591667 36.6666667,40.3333333 L36.6666667,40.3333333 C36.6666667,38.3075 38.3075,36.6666667 40.3333333,36.6666667 L69.6666667,36.6666667 C71.6925,36.6666667 73.3333333,38.3075 73.3333333,40.3333333 L73.3333333,40.3333333 C73.3333333,42.3591667 71.6925,44 69.6666667,44 Z" id="Shape"></path> <path d="M75.1666667,49.5 L76.527,46.3283333 C79.0386667,40.4671667 84.8026667,36.6666667 91.179,36.6666667 L91.179,36.6666667 C98.0393333,36.6666667 104.1315,41.0575 106.300333,47.5658333 L106.300333,47.5658333 C108.7515,54.9175 110,62.6175 110,70.367 L110,105.416667 C110,107.9485 107.9485,110 105.416667,110 L105.416667,110 C102.884833,110 100.833333,107.9485 100.833333,105.416667 L100.833333,99 L100.833333,105.416667 C100.833333,107.9485 98.7818333,110 96.25,110 L96.25,110 C93.7181667,110 91.6666667,107.9485 91.6666667,105.416667 L91.6666667,99 L91.6666667,105.416667 C91.6666667,107.9485 89.6151667,110 87.0833333,110 L87.0833333,110 C84.5515,110 82.5,107.9485 82.5,105.416667 L82.5,99 C82.5,94.9501667 79.2165,91.6666667 75.1666667,91.6666667 L75.1666667,91.6666667" id="Shape"></path> <path d="M34.8333333,49.5 L33.473,46.3283333 C30.9613333,40.4671667 25.1973333,36.6666667 18.821,36.6666667 L18.821,36.6666667 C11.9606667,36.6666667 5.8685,41.0575 3.69966667,47.5658333 L3.69966667,47.5658333 C1.25033333,54.9175 0,62.6175 0,70.367 L0,105.416667 C0,107.9485 2.0515,110 4.58333333,110 L4.58333333,110 C7.11516667,110 9.16666667,107.9485 9.16666667,105.416667 L9.16666667,99 L9.16666667,105.416667 C9.16666667,107.9485 11.2181667,110 13.75,110 L13.75,110 C16.2818333,110 18.3333333,107.9485 18.3333333,105.416667 L18.3333333,99 L18.3333333,105.416667 C18.3333333,107.9485 20.3848333,110 22.9166667,110 L22.9166667,110 C25.4485,110 27.5,107.9485 27.5,105.416667 L27.5,99 C27.5,94.9501667 30.7835,91.6666667 34.8333333,91.6666667 L34.8333333,91.6666667" id="Shape"></path> <path d="M73.3333333,7.33333333 L36.6666667,7.33333333 C34.6408333,7.33333333 33,5.6925 33,3.66666667 L33,3.66666667 C33,1.64083333 34.6408333,0 36.6666667,0 L73.3333333,0 C75.3591667,0 77,1.64083333 77,3.66666667 L77,3.66666667 C77,5.6925 75.3591667,7.33333333 73.3333333,7.33333333 Z" id="Shape"></path> </g> </g> </g> </g> </svg>