<svg xmlns="http://www.w3.org/2000/svg" xmlns:xlink="http://www.w3.org/1999/xlink" xmlns:a="http://ns.adobe.com/AdobeSVGViewerExtensions/3.0/" x="0px" y="0px" width="512px" height="512px" viewBox="0 0 512 512" overflow="visible" xml:space="preserve"> <defs> </defs> <g> <defs> <rect id="SVGID_18_" width="512" height="512"></rect> </defs> <path clip-path="url(#SVGID_20_)" fill="#97C355" d="M323.338,440.919c0-5.486-4.482-9.964-9.963-9.964h-114.76 c-5.477,0-9.959,4.478-9.959,9.964c0,5.474,4.48,9.964,9.959,9.964h114.76C318.855,450.883,323.338,446.393,323.338,440.919z"></path> </g> <g> <defs> <rect id="SVGID_16_" width="512" height="512"></rect> </defs> <path clip-path="url(#SVGID_22_)" fill="#97C355" d="M256,86.093c5.48,0,9.964-4.478,9.964-9.963V11.988 c0-5.483-4.483-9.971-9.964-9.971s-9.963,4.485-9.963,9.971v64.144C246.037,81.615,250.52,86.093,256,86.093z"></path> </g> <g> <defs> <rect id="SVGID_14_" width="512" height="512"></rect> </defs> <path clip-path="url(#SVGID_24_)" fill="#97C355" d="M341.965,109.128c4.749,2.734,10.864,1.101,13.609-3.648l32.074-55.549 c2.738-4.749,1.096-10.87-3.651-13.606c-4.741-2.739-10.867-1.101-13.606,3.648l-32.071,55.544 C335.58,100.268,337.221,106.394,341.965,109.128z"></path> </g> <g> <defs> <rect id="SVGID_12_" width="512" height="512"></rect> </defs> <path clip-path="url(#SVGID_26_)" fill="#97C355" d="M404.895,172.068c2.734,4.736,8.865,6.385,13.609,3.648l55.555-32.087 c4.746-2.734,6.387-8.855,3.647-13.599c-2.739-4.749-8.865-6.393-13.608-3.648l-55.55,32.074 C403.794,161.19,402.155,167.314,404.895,172.068z"></path> </g> <g> <defs> <rect id="SVGID_10_" width="512" height="512"></rect> </defs> <path clip-path="url(#SVGID_28_)" fill="#97C355" d="M427.93,258.027c0,5.486,4.49,9.972,9.961,9.964h64.148 c5.48,0,9.964-4.478,9.964-9.964c0-5.471-4.483-9.958-9.964-9.958h-64.148C432.402,248.069,427.93,252.557,427.93,258.027z"></path> </g> <g> <defs> <rect id="SVGID_8_" width="512" height="512"></rect> </defs> <path clip-path="url(#SVGID_30_)" fill="#97C355" d="M170.03,109.128c4.749-2.734,6.39-8.86,3.653-13.612l-32.077-55.557 c-2.744-4.736-8.86-6.375-13.611-3.635c-4.744,2.737-6.38,8.858-3.641,13.606l32.074,55.549 C159.168,110.229,165.291,111.862,170.03,109.128z"></path> </g> <g> <defs> <rect id="SVGID_6_" width="512" height="512"></rect> </defs> <path clip-path="url(#SVGID_32_)" fill="#97C355" d="M107.1,172.068c2.75-4.754,1.106-10.877-3.64-13.612l-55.558-32.082 c-4.74-2.734-10.867-1.091-13.613,3.648c-2.734,4.749-1.086,10.862,3.652,13.606l55.558,32.074 C98.248,178.439,104.361,176.801,107.1,172.068z"></path> </g> <g> <defs> <rect id="SVGID_4_" width="512" height="512"></rect> </defs> <path clip-path="url(#SVGID_34_)" fill="#97C355" d="M84.07,258.027c0-5.486-4.482-9.958-9.953-9.971H9.963 C4.482,248.069,0,252.541,0,258.027c0,5.476,4.482,9.964,9.963,9.964h64.156C79.588,267.991,84.07,263.503,84.07,258.027z"></path> </g> <g> <defs> <rect id="SVGID_3_" width="512" height="512"></rect> </defs> <path clip-path="url(#SVGID_36_)" fill="#97C355" d="M323.338,468.275c0-5.483-4.482-9.961-9.963-9.961h-114.76 c-5.477,0-9.959,4.478-9.959,9.961c0,5.48,4.48,9.958,9.959,9.958h114.76C318.855,478.233,323.338,473.756,323.338,468.275z"></path> </g> <g> <defs> <rect id="SVGID_2_" width="512" height="512"></rect> </defs> <path clip-path="url(#SVGID_38_)" fill="#97C355" d="M222.354,485.67c4.678,14.124,17.964,24.312,33.646,24.312 s28.964-10.188,33.639-24.312H222.354z"></path> </g> <g> <defs> <rect id="SVGID_1_" width="512" height="512"></rect> </defs> <path clip-path="url(#SVGID_40_)" fill="#97C355" d="M265.748,324.313v12.536c0,2.445-0.934,4.888-2.798,6.764 c-1.868,1.866-4.318,2.798-6.764,2.798h-2.112c-2.444,0-4.892-0.929-6.752-2.798c-1.867-1.874-2.809-4.318-2.809-6.764v-11.01 c-14.51-0.65-28.594-4.547-36.818-9.321l6.492-25.35c9.104,4.989,21.881,9.539,35.968,9.539c12.34,0,20.793-4.765,20.793-13.44 c0-8.23-6.928-13.419-22.969-18.836c-23.176-7.801-38.991-18.632-38.991-39.652c0-19.064,13.438-34.017,36.613-38.563v-11.019 c0-2.445,0.932-4.897,2.798-6.753c1.871-1.866,4.313-2.798,6.764-2.798h2.106c2.445,0,4.888,0.932,6.764,2.798 c1.866,1.858,2.798,4.308,2.798,6.753v9.508c14.513,0.65,24.267,3.682,31.414,7.15l-6.282,24.48 c-5.63-2.388-15.593-7.367-31.196-7.367c-14.087,0-18.632,6.07-18.632,12.132c0,7.147,7.583,11.699,25.997,18.627 c25.782,9.101,36.176,21.013,36.176,40.512C304.308,303.521,290.657,319.99,265.748,324.313z M256,117.765 c-77.461,0-140.258,62.802-140.258,140.262c0,41.17,17.754,78.227,46.031,103.883c0.06,0.033,4.22,3.535,6.242,5.291 c13.294,11.546,20.654,29.358,20.654,48.355h134.647c0-18.997,7.368-36.81,20.654-48.355c2.025-1.759,6.188-5.261,6.249-5.291 c28.272-25.657,46.026-62.713,46.026-103.883C396.252,180.567,333.461,117.765,256,117.765z"></path> </g> </svg>