<?xml version="1.0" encoding="UTF-8"?>
<svg width="110px" height="110px" viewBox="0 0 110 110" version="1.1" xmlns="http://www.w3.org/2000/svg" xmlns:xlink="http://www.w3.org/1999/xlink">
    <!-- Generator: Sketch 48.2 (47327) - http://www.bohemiancoding.com/sketch -->
    <title>telegram</title>
    <desc>Created with Sketch.</desc>
    <defs></defs>
    <g id="Icons" stroke="none" stroke-width="1" fill="none" fill-rule="evenodd" transform="translate(-1142.000000, -827.000000)">
        <g id="telegram" transform="translate(1142.000000, 827.000000)">
            <circle id="Oval" fill="#97C355" fill-rule="nonzero" cx="55" cy="55" r="55"></circle>
            <path d="M56.8015556,68.1437778 C54.6834444,70.2068889 52.5836667,72.2357778 50.5034444,74.2805556 C49.7762222,74.9967778 48.9585556,75.3927778 47.9147778,75.3377778 C47.2022222,75.2998889 46.8037778,74.987 46.585,74.3111111 C44.9912222,69.3647778 43.3742222,64.4306667 41.789,59.4794444 C41.635,58.9991111 41.4076667,58.7656667 40.9212222,58.6153333 C37.1665556,57.4688889 33.4192222,56.2955556 29.678,55.1063333 C29.1023333,54.923 28.5217778,54.6834444 28.0243333,54.3448889 C27.2555556,53.8242222 27.1431111,52.9747778 27.8324444,52.3636667 C28.4692222,51.8002222 29.2294444,51.3088889 30.019,50.996 C34.6084444,49.1773333 39.2223333,47.4173333 43.8288889,45.6414444 C55.5194444,41.1277778 67.21,36.6177778 78.9017778,32.1041111 C81.125,31.2448889 82.8336667,32.4548889 82.6026667,34.859 C82.4547778,36.3965556 82.0563333,37.9096667 81.7348889,39.4276667 C79.1963333,51.414 76.6553333,63.4015556 74.1033333,75.3854444 C73.4971111,78.2307778 71.4987778,78.9738889 69.157,77.2468889 C65.2348889,74.3563333 61.3164444,71.456 57.3967778,68.5605556 C57.2097778,68.4248889 57.0154444,68.2941111 56.8015556,68.1437778 Z M47.9978889,71.7835556 C48.0418889,71.7713333 48.0858889,71.7591111 48.1298889,71.7481111 C48.1543333,71.6356667 48.1897778,71.5256667 48.1995556,71.4144444 C48.4513333,68.6974444 48.7177778,65.9816667 48.9365556,63.2597778 C48.9854444,62.6535556 49.1932222,62.2233333 49.6491111,61.8151111 C53.2644444,58.5823333 56.8577778,55.3287778 60.4584444,52.0825556 C64.4441111,48.488 68.431,44.8971111 72.402,41.2878889 C72.6476667,41.0654444 72.7503333,40.6865556 72.919,40.3785556 C72.545,40.3382222 72.1441111,40.1878889 71.8043333,40.2758889 C71.3411111,40.3956667 70.9023333,40.6645556 70.4892222,40.9248889 C61.6928889,46.4652222 52.9038889,52.0153333 44.1014444,57.5446667 C43.604,57.8575556 43.5111111,58.1227778 43.7005556,58.6691111 C44.3495556,60.533 44.9398889,62.414 45.5522222,64.2913333 C46.3674444,66.7895556 47.1826667,69.2865556 47.9978889,71.7835556 Z" id="Shape" fill="#FFFFFF"></path>
        </g>
    </g>
</svg>