<svg xmlns="http://www.w3.org/2000/svg" xmlns:xlink="http://www.w3.org/1999/xlink" width="103px" height="107px" viewBox="0 0 103 107"> <!-- Generator: Sketch 43.2 (39069) - http://www.bohemiancoding.com/sketch --> <title>simple process</title> <desc>Created with Sketch.</desc> <defs></defs> <g id="Icons" stroke="none" stroke-width="1" fill="none" fill-rule="evenodd"> <g transform="translate(-175.000000, -30.000000)" id="simple-process"> <g transform="translate(172.000000, 26.000000)"> <rect id="bg" x="0" y="0" width="110" height="110"></rect> <g id="Group" transform="translate(4.000000, 4.000000)"> <g id="easy" transform="translate(70.000000, 0.000000)" fill-rule="nonzero" fill="#97C355"> <path d="M8.72613018,29.5591399 C8.11845444,29.5591399 7.5354142,29.3722308 7.03996686,29.019979 C6.16221302,28.390958 5.71512426,27.3063462 5.89852189,26.2549825 L7.12847219,19.1928741 L1.91943195,14.1912587 C1.13292071,13.435535 0.854630769,12.3257622 1.1922284,11.2968636 C1.52526391,10.2841399 2.43312781,9.52931469 3.5052284,9.37385664 L10.708832,8.34495804 L13.9287834,1.91816084 C14.3868213,1.00787762 15.371329,0.441758741 16.5,0.441758741 C17.628671,0.441758741 18.6131787,1.00697902 19.0703041,1.91726224 L22.291168,8.34495804 L29.4920343,9.37385664 C30.5823834,9.53201049 31.4692615,10.2688636 31.8077716,11.2968636 C32.1453692,12.3266608 31.8670793,13.435535 31.080568,14.1912587 L25.8706154,19.1937727 L27.1005657,26.2558811 C27.2839633,27.3063462 26.8368746,28.390958 25.9609456,29.0190804 C25.0831917,29.6409126 23.8924757,29.7217867 22.9417278,29.2347448 L16.5,25.8982378 L10.0582722,29.2329476 C9.65041775,29.4459161 9.18873018,29.5591399 8.72613018,29.5591399 Z M16.5,1.78966084 C16.0255385,1.78966084 15.4242497,1.98016434 15.155084,2.51483217 L11.7763704,9.25883566 C11.676916,9.45742657 11.4834817,9.59581119 11.2608497,9.62726224 L3.70322485,10.7064825 C3.14390769,10.7873566 2.66853373,11.1818427 2.49517278,11.7111189 C2.31816213,12.2502797 2.4641503,12.8298776 2.87474201,13.2261608 L8.34199882,18.4748916 C8.50349822,18.629451 8.57740473,18.8523042 8.53908284,19.0715629 L7.24891243,26.4832273 C7.15310769,27.0331713 7.38668876,27.6001888 7.84472663,27.9281783 C8.29820237,28.2516748 8.92686391,28.2984021 9.42139882,28.0405035 L16.1824757,24.5395524 C16.3804722,24.4371119 16.6204402,24.4371119 16.8184367,24.5395524 L23.5776888,28.0396049 C24.0740485,28.2948077 24.6972355,28.2543706 25.1580107,27.9263811 C25.6133112,27.6001888 25.8478047,27.0331713 25.7510876,26.4841259 L24.4609172,19.0715629 C24.4225953,18.8523042 24.4965018,18.629451 24.6580012,18.4748916 L30.125258,13.2252622 C30.5358497,12.8298776 30.6818379,12.2502797 30.5048272,11.7111189 C30.328729,11.1737552 29.8643041,10.7891538 29.2940379,10.7064825 L21.7391503,9.62726224 C21.5165183,9.59491259 21.323084,9.45742657 21.2236296,9.25883566 L17.8440036,2.51393357 C17.5757503,1.98016434 16.9744615,1.78966084 16.5,1.78966084 Z" id="Shape"></path> </g> <g id="file" transform="translate(0.000000, 15.000000)"> <path d="M70.3015364,10.4968621 C71.7702462,10.4968621 72.9719179,11.6752304 72.9719179,13.1154583 L72.9719179,88.1906096 C72.9719179,89.6308375 71.7702462,90.8092058 70.3015364,90.8092058 L2.74088344,90.8092058 C1.27217359,90.8092058 0.0705019011,89.6308375 0.0705019011,88.1906096 L0.0705019011,2.77200349 C0.0705019011,1.33177562 1.27217359,0.153407352 2.74088344,0.153407352 L59.3796759,0.153407352 C60.2805159,0.153407352 71.2051646,10.1443146 71.6894197,10.819447 C71.9946835,11.2450358 62.0500574,2.21514605 62.0500574,2.77200349 L62.0500574,7.87826597 C62.0500574,9.31849385 63.2517291,10.4968621 64.720439,10.4968621 L70.3015364,10.4968621 Z" id="Shape" stroke="#97C355" stroke-width="2"></path> <rect id="Rectangle-path" stroke="#97C355" stroke-width="2" x="9.14979913" y="9.63272538" width="16.0222892" height="15.7115768"></rect> <rect id="Rectangle-path" fill="#97C355" fill-rule="nonzero" x="30.4300696" y="8.28938556" width="26.5916594" height="2.19962076"></rect> <rect id="Rectangle-path" fill="#97C355" fill-rule="nonzero" x="30.4567734" y="14.2074128" width="31.7107808" height="2.19962076"></rect> <rect id="Rectangle-path" fill="#97C355" fill-rule="nonzero" x="30.4567734" y="19.3634286" width="31.7107808" height="2.19962076"></rect> <rect id="Rectangle-path" fill="#97C355" fill-rule="nonzero" x="30.6810855" y="24.0376228" width="31.8202664" height="2.45624318"></rect> <rect id="Rectangle-path" fill="#97C355" fill-rule="nonzero" x="7.75853035" y="39.311894" width="58.0807985" height="2.45624318"></rect> <rect id="Rectangle-path" fill="#97C355" fill-rule="nonzero" x="7.9828424" y="45.2037354" width="58.0807985" height="2.45624318"></rect> <rect id="Rectangle-path" fill="#97C355" fill-rule="nonzero" x="7.9828424" y="51.0929581" width="58.0807985" height="2.45624318"></rect> <rect id="Rectangle-path" fill="#97C355" fill-rule="nonzero" x="8.20715445" y="79.4602101" width="58.0807985" height="2.45624318"></rect> </g> </g> </g> </g> </g> </svg>