<svg xmlns="http://www.w3.org/2000/svg" xmlns:xlink="http://www.w3.org/1999/xlink" width="99px" height="98px" viewBox="0 0 99 98"> <!-- Generator: Sketch 43.2 (39069) - http://www.bohemiancoding.com/sketch --> <title>diversify</title> <desc>Created with Sketch.</desc> <defs></defs> <g id="Icons" stroke="none" stroke-width="1" fill="none" fill-rule="evenodd"> <g transform="translate(-696.000000, -633.000000)" id="diversify"> <g transform="translate(690.000000, 622.000000)"> <rect id="Rectangle-path" x="0" y="0" width="110" height="110"></rect> <g id="1493779192_302" transform="translate(5.000000, 10.000000)" fill-rule="nonzero" fill="#97C355"> <path d="M90.4166667,78.5416667 L52.5,53.125 L80.8333333,17.2916667 L82.5,18.5416667 C93.125,26.875 99.1666667,39.375 99.1666667,52.7083333 C99.1666667,61.4583333 96.6666667,69.7916667 91.875,76.875 L90.4166667,78.5416667 Z M58.5416667,52.2916667 L89.1666667,72.9166667 C92.7083333,66.875 94.7916667,60 94.7916667,52.9166667 C94.7916667,41.4583333 90,30.8333333 81.4583333,23.3333333 L58.5416667,52.2916667 Z" id="Shape"></path> <path d="M49.7916667,50.4166667 L49.7916667,1.04166667 L51.875,1.04166667 C61.6666667,1.04166667 71.0416667,4.16666667 78.75,10.4166667 L80.4166667,11.6666667 L49.7916667,50.4166667 Z M53.9583333,5.20833333 L53.9583333,38.3333333 L74.5833333,12.2916667 C68.3333333,8.125 61.25,5.625 53.9583333,5.20833333 Z" id="Shape"></path> <path d="M44.5833333,98.9583333 C20.625,98.9583333 1.04166667,79.375 1.04166667,55.4166667 C1.04166667,31.4583333 20.625,11.875 44.5833333,11.875 L46.6666667,11.875 L46.6666667,54.1666667 L81.875,77.7083333 L80.625,79.375 C72.5,91.6666667 58.9583333,98.9583333 44.5833333,98.9583333 Z M42.5,16.25 C21.6666667,17.2916667 5.20833333,34.5833333 5.20833333,55.4166667 C5.20833333,77.0833333 22.9166667,94.7916667 44.5833333,94.7916667 C57.0833333,94.7916667 68.5416667,88.9583333 76.0416667,79.1666667 L42.5,56.6666667 L42.5,16.25 Z" id="Shape"></path> </g> </g> </g> </g> </svg>