<svg xmlns="http://www.w3.org/2000/svg" xmlns:xlink="http://www.w3.org/1999/xlink" width="110px" height="109px" viewBox="0 0 110 109"> <!-- Generator: Sketch 43.2 (39069) - http://www.bohemiancoding.com/sketch --> <title>bank</title> <desc>Created with Sketch.</desc> <defs></defs> <g id="Icons" stroke="none" stroke-width="1" fill="none" fill-rule="evenodd"> <g transform="translate(-796.000000, -28.000000)" id="bank"> <g transform="translate(796.000000, 27.000000)"> <rect id="Rectangle-path" x="0" y="0" width="110" height="110"></rect> <g transform="translate(0.000000, 1.000000)" id="Shape" fill-rule="nonzero" fill="#97C355"> <path d="M102.897638,105.280159 L102.897638,94.6396825 L97.5708661,94.6396825 L97.5708661,87.5460317 L94.019685,87.5460317 L94.019685,46.8007937 L97.5708661,46.8007937 L97.5708661,39.7071429 L106.448819,39.7071429 L106.448819,22.6001984 L55,0.194642857 L3.5511811,22.6001984 L3.5511811,39.7071429 L12.4291339,39.7071429 L12.4291339,46.8007937 L15.980315,46.8007937 L15.980315,87.5676587 L12.4291339,87.5676587 L12.4291339,94.6613095 L7.1023622,94.6613095 L7.1023622,105.301786 L0,105.301786 L0,108.848611 L7.1023622,108.848611 L8.87795276,108.848611 L101.122047,108.848611 L102.897638,108.848611 L110,108.848611 L110,105.301786 L102.897638,105.301786 L102.897638,105.280159 Z M94.0413386,91.0928571 L94.0413386,94.6396825 L79.8582677,94.6396825 L79.8582677,91.0928571 L94.0413386,91.0928571 Z M76.2854331,87.5460317 L76.2854331,94.6396825 L65.6318898,94.6396825 L65.6318898,87.5460317 L62.0807087,87.5460317 L62.0807087,46.8007937 L65.6318898,46.8007937 L65.6318898,39.7071429 L76.2854331,39.7071429 L76.2854331,46.8007937 L79.8366142,46.8007937 L79.8366142,87.5676587 L76.2854331,87.5676587 L76.2854331,87.5460317 Z M47.8976378,39.7071429 L62.0807087,39.7071429 L62.0807087,43.2539683 L47.8976378,43.2539683 L47.8976378,39.7071429 Z M51.4488189,46.8007937 L58.5511811,46.8007937 L58.5511811,87.5676587 L51.4488189,87.5676587 L51.4488189,46.8007937 L51.4488189,46.8007937 Z M62.1023622,91.0928571 L62.1023622,94.6396825 L47.9192913,94.6396825 L47.9192913,91.0928571 L62.1023622,91.0928571 Z M90.4901575,87.5460317 L83.3877953,87.5460317 L83.3877953,46.8007937 L90.4901575,46.8007937 L90.4901575,87.5460317 Z M94.0413386,43.2539683 L79.8582677,43.2539683 L79.8582677,39.7071429 L94.0413386,39.7071429 L94.0413386,43.2539683 Z M7.1023622,36.1603175 L7.1023622,24.9142857 L55,4.04424603 L102.897638,24.9142857 L102.897638,36.1603175 L7.1023622,36.1603175 Z M15.9586614,39.7071429 L30.1417323,39.7071429 L30.1417323,43.2539683 L15.9586614,43.2539683 L15.9586614,39.7071429 Z M26.6122047,46.8007937 L26.6122047,87.5676587 L19.5098425,87.5676587 L19.5098425,46.8007937 L26.6122047,46.8007937 Z M30.1633858,46.8007937 L33.7145669,46.8007937 L33.7145669,39.7071429 L44.3681102,39.7071429 L44.3681102,46.8007937 L47.9192913,46.8007937 L47.9192913,87.5676587 L44.3681102,87.5676587 L44.3681102,94.6613095 L33.7145669,94.6613095 L33.7145669,87.5676587 L30.1633858,87.5676587 L30.1633858,46.8007937 L30.1633858,46.8007937 Z M15.9586614,91.0928571 L30.1417323,91.0928571 L30.1417323,94.6396825 L15.9586614,94.6396825 L15.9586614,91.0928571 Z M99.3464567,105.280159 L10.6535433,105.280159 L10.6535433,98.1865079 L12.4291339,98.1865079 L33.7145669,98.1865079 L44.3681102,98.1865079 L65.6535433,98.1865079 L76.3070866,98.1865079 L97.5925197,98.1865079 L99.3681102,98.1865079 L99.3681102,105.280159 L99.3464567,105.280159 Z"></path> <path d="M55,30.8400794 C60.8681102,30.8400794 65.6535433,26.0605159 65.6535433,20.1996032 C65.6535433,14.3386905 60.8681102,9.58075397 55,9.58075397 C49.1318898,9.58075397 44.3464567,14.3603175 44.3464567,20.2212302 C44.3464567,26.0821429 49.1318898,30.8400794 55,30.8400794 Z M55,13.1275794 C58.9192913,13.1275794 62.1023622,16.306746 62.1023622,20.2212302 C62.1023622,24.1357143 58.9192913,27.314881 55,27.314881 C51.0807087,27.314881 47.8976378,24.1357143 47.8976378,20.2212302 C47.8976378,16.306746 51.0807087,13.1275794 55,13.1275794 Z"></path> <path d="M52.9862205,22.5785714 C52.488189,22.3623016 52.0767717,22.4055556 51.773622,22.7083333 C51.6220472,22.8813492 51.1456693,23.7248016 52.1200787,24.2005952 C52.7913386,24.525 53.5492126,24.6763889 54.3287402,24.7628968 L54.3287402,25.2386905 C54.3287402,25.6496032 54.6102362,25.952381 55.0216535,25.930754 C55.6279528,25.909127 55.7362205,25.4333333 55.7362205,25.2386905 L55.7362205,24.7412698 C58.0314961,24.3952381 58.4429134,22.8380952 58.4429134,22.0811508 C58.4429134,21.2160714 58.0748031,19.9184524 55.7362205,19.3994048 L55.7362205,17.4746032 C56.1043307,17.5178571 56.4507874,17.5827381 56.7322835,17.690873 C56.9488189,17.777381 57.4035433,17.9720238 57.8799213,17.4962302 C58.0748031,17.3015873 58.4429134,16.414881 57.4901575,16.0255952 C56.9704724,15.8093254 56.3858268,15.7011905 55.7145669,15.6363095 L55.7145669,15.1605159 C55.7145669,14.965873 55.6496063,14.7928571 55.519685,14.6630952 C55.238189,14.4035714 54.761811,14.4035714 54.5019685,14.6847222 C54.3720472,14.8144841 54.3070866,14.9875 54.3070866,15.1821429 L54.3070866,15.6795635 C53.5492126,15.7876984 51.6870079,16.285119 51.6003937,18.4910714 C51.5137795,20.2861111 53.5925197,20.8484127 54.3070866,21.0646825 L54.3070866,22.9029762 C53.8090551,22.8597222 53.3543307,22.7515873 52.9862205,22.5785714 Z M55.7362205,21.4539683 C56.2125984,21.6053571 56.4291339,21.8 56.4724409,21.864881 C56.4940945,21.9081349 56.753937,22.5785714 55.7362205,22.8597222 L55.7362205,21.4539683 Z M53.5492126,18.3613095 C53.5492126,17.8422619 54.1338583,17.647619 54.3287402,17.5827381 L54.3287402,19.075 C54.3070866,19.053373 53.5492126,18.8803571 53.5492126,18.3613095 Z"></path> </g> </g> </g> </g> </svg>