<svg id="Layer_1" data-name="Layer 1" xmlns="http://www.w3.org/2000/svg" xmlns:xlink="http://www.w3.org/1999/xlink" viewBox="0 0 512 512"><defs><style>.cls-1{fill:none;}.cls-2{clip-path:url(#clip-path);}.cls-3{fill:#96c253;}.cls-4{fill:#03aac4;}</style><clipPath id="clip-path"><rect id="SVGID" class="cls-1" width="512" height="512"/></clipPath></defs><title>apply-online</title><g class="cls-2"><path class="cls-3" d="M343.47,138.55V61l77.45,77.53Zm104.79-5.82-99-99L327.61,12H98.34V47.11L120,100.23V33.68H320V162H448.26V480.32H120V322.48L98.34,269.36V502h371.6V154.41Z"/></g><g class="cls-2"><path class="cls-4" d="M103.6,97.5l-22.46-55h0C78,36.87,65.88,25.93,47,33.64S28,57.27,29.67,63.49h0l26.08,63.9,119.17,292,38.44,41.32a8,8,0,0,0,1.17.91,8.13,8.13,0,0,0,12.31-5,7.89,7.89,0,0,0,.2-1.47l-.61-56.76Z"/></g><g class="cls-2"><polygon class="cls-3" points="411 352 222.78 352 230.94 372 391 372 391 422 240.82 422 241.03 442 411 442 411 352"/></g><g class="cls-2"><path class="cls-3" d="M261,113H180V93h81Zm20-40H160v60H281Z"/></g><g class="cls-2"><polygon class="cls-3" points="410 302 410 282 194.21 282 202.37 302 410 302"/></g><g class="cls-2"><polygon class="cls-3" points="410 232 410 212 165.64 212 173.8 232 410 232"/></g></svg>