<svg xmlns="http://www.w3.org/2000/svg" xmlns:xlink="http://www.w3.org/1999/xlink" width="68px" height="108px" viewBox="0 0 68 108"> <!-- Generator: Sketch 43.2 (39069) - http://www.bohemiancoding.com/sketch --> <title>companies</title> <desc>Created with Sketch.</desc> <defs></defs> <g id="Icons" stroke="none" stroke-width="1" fill="none" fill-rule="evenodd"> <g transform="translate(-505.000000, -32.000000)" id="companies"> <g transform="translate(484.000000, 27.000000)"> <rect id="bg" x="0" y="0" width="110" height="110"></rect> <g id="startup" transform="translate(22.000000, 7.000000)" stroke-width="2" stroke="#97C355"> <g id="Group"> <path d="M48.4059903,57.989 C47.5255408,61.6886163 46.3568917,65.5717163 44.8195875,69.6188977 C43.2409747,73.7068 41.3354955,77.9791442 38.980185,82.434493 C37.194789,85.8277442 35.1874794,89.3026767 32.8924506,92.8995326 C30.5969415,89.3024372 28.5898721,85.8277442 26.8265714,82.434493 C24.4491656,77.9791442 22.5436864,73.7068 20.9648334,69.6188977 C19.4280095,65.5520744 18.2591203,61.6888558 17.3986046,57.989 C14.0807077,43.9479442 15.2070875,32.4610488 18.0151114,23.528793 C22.8921677,7.87207442 32.8926908,0.0646744186 32.8926908,0.0646744186 C32.8926908,0.0646744186 42.8929737,7.87207442 47.77003,23.528793 C50.5773334,32.4610488 51.7041935,43.9479442 48.4059903,57.989 Z" id="Shape"></path> <path d="M26.8263312,82.434493 C10.1037946,87.3605279 1.29209448,102.935326 1.29209448,102.935326 C-2.21217143,84.4779651 2.74726186,72.807586 8.42455211,65.8172395 C11.6627138,61.7705372 15.1648182,59.2973395 17.3983645,57.9887605" id="Shape"></path> <path d="M48.4059903,57.989 C50.6397767,59.2975791 54.1438024,61.7707767 57.3819641,65.8174791 C63.0597347,72.8078256 68.0186877,84.4782047 64.5122602,102.935565 C64.5122602,102.935565 55.7008003,87.3607674 38.9799448,82.434493" id="Shape"></path> </g> <path d="M57.3819641,65.8172395 C54.1438024,61.7705372 50.6397767,59.2973395 48.4059903,57.9887605 C51.7041935,43.9477047 50.5773334,32.4608093 47.7697898,23.5285535 C43.1588378,22.4247767 38.1393629,21.8321674 32.8924506,21.8321674 C27.645058,21.8321674 22.6258233,22.4247767 18.0148712,23.5285535 C15.2070875,32.4608093 14.0804676,43.9477047 17.3983645,57.9887605 C15.1650584,59.2973395 11.6627138,61.7705372 8.42455211,65.8172395" id="Shape"></path> <path d="M40.5770505,40.4320512 C40.5770505,44.6593628 37.1407516,48.0868674 32.9022974,48.0868674 C28.6655244,48.0868674 25.2273042,44.6593628 25.2273042,40.4320512 C25.2273042,36.2047395 28.6652843,32.7772349 32.9022974,32.7772349 C37.1407516,32.7772349 40.5770505,36.2047395 40.5770505,40.4320512 Z" id="Shape"></path> </g> </g> </g> </g> </svg>