<?xml version="1.0" encoding="UTF-8"?>
<svg width="110px" height="110px" viewBox="0 0 110 110" version="1.1" xmlns="http://www.w3.org/2000/svg" xmlns:xlink="http://www.w3.org/1999/xlink">
    <!-- Generator: Sketch 47.1 (45422) - http://www.bohemiancoding.com/sketch -->
    <title>corl-circular-logo-</title>
    <desc>Created with Sketch.</desc>
    <defs></defs>
    <g id="Icons" stroke="none" stroke-width="1" fill="none" fill-rule="evenodd">
        <g transform="translate(-1108.000000, -26.000000)" id="corl-circular-logo-">
            <g transform="translate(1108.000000, 26.000000)">
                <rect id="Rectangle-path" x="0" y="0" width="110" height="110"></rect>
                <g id="Group-2">
                    <circle id="Oval-2" fill="#FFFFFF" cx="55" cy="55" r="55"></circle>
                    <g id="logo" transform="translate(29.000000, 13.000000)">
                        <polygon id="Fill-1" fill="#338CAD" points="3.33433852 64.6823158 19.7523529 84.9891818 17.0105945 75.4620646 12.750427 65.296634 7.94792703 64.5481053"></polygon>
                        <polygon id="Fill-2" fill="#6CC5D4" points="3.33433852 64.6822955 8.041061 64.9895562 12.750427 65.2966136 13.2919462 59.0944605 12.750427 52.1962428"></polygon>
                        <polygon id="Fill-3" fill="#338CAD" points="12.750366 52.1961818 12.750366 65.2965526 16.2300789 61.8168397 24.2583086 61.8168397"></polygon>
                        <polygon id="Fill-4" fill="#03AAC4" points="19.7523732 84.9892225 20.3433062 76.1211603 19.7098732 71.6425957 12.7504474 65.2966746"></polygon>
                        <polygon id="Fill-5" fill="#6CC5D4" points="19.7099139 71.6425347 19.7524139 84.9891615 28.7756316 70.0098433 31.1729163 60.5888744"></polygon>
                        <polygon id="Fill-6" fill="#338CAD" points="27.1970311 69.083628 19.7524139 84.9892022 39.3611818 67.5485443 36.1608708 63.4166902 31.1731196 60.5889151"></polygon>
                        <polygon id="Fill-7" fill="#03AAC4" points="41.8176818 60.5888337 36.2894282 59.6867763 31.1729569 60.5888337 35.397945 64.1799821 39.3610191 67.5484629 50.8240215 60.5890371 50.8240215 60.5888337 46.0028134 59.1316328"></polygon>
                        <polygon id="Fill-8" fill="#6CC5D4" points="31.1729366 60.5888947 36.0813816 60.5888947 41.8176615 60.5888947 36.6338816 54.0573158 31.7872548 49.9443732 23.3972667 46.3633923 11.317506 44.9995287"></polygon>
                        <polygon id="Fill-9" fill="#03AAC4" points="31.7871531 49.9444342 41.8175598 60.5889557 41.9572608 60.5889557 42.4284211 49.1873648 39.7004904 36.0731663 34.6289593 42.2706423"></polygon>
                        <polygon id="Fill-10" fill="#338CAD" points="40.8500849 49.3879892 41.8174175 60.5886711 50.8237572 60.5886711 39.7003481 36.0730849"></polygon>
                        <polygon id="Fill-11" fill="#338CAD" points="31.7871531 49.9444342 35.8213995 42.8729629 39.7004904 36.0731663 49.1865311 19.4448888 37.3605502 26.1958816 11.3176077 44.9995897"></polygon>
                        <polygon id="Fill-12" fill="#6CC5D4" points="11.3175873 44.9995287 49.1867141 19.4448278 33.9713074 20.6984761 19.7100156 23.9479976 23.3945012 27.2233445"></polygon>
                        <polygon id="Fill-13" fill="#338CAD" points="19.7100969 0.203247608 19.7100969 23.94814 49.1863888 19.4447667"></polygon>
                        <polygon id="Fill-14" fill="#03AAC4" points="19.7099139 0.203247608 4.17036842 22.5490969 9.37733014 24.462817 19.7099139 23.9479366"></polygon>
                        <polygon id="Fill-15" fill="#6CC5D4" points="0 28.308762 6.8152512 30.2318361 8.14454545 27.1203888 19.7100359 23.94814 4.16805024 22.3650658"></polygon>
                        <polygon id="Fill-16" fill="#338CAD" points="0 28.308762 4.16805024 22.3650658 0.35708134 21.9772787"></polygon>
                        <polygon id="Fill-17" fill="#03AAC4" points="12.750366 52.1961818 12.750366 59.2218995 12.750366 65.2965526 16.2300789 61.8168397"></polygon>
                        <polygon id="Fill-18" fill="#03AAC4" points="11.3175873 44.9995287 49.1865108 19.4448278 23.3947045 27.2231411"></polygon>
                    </g>
                </g>
            </g>
        </g>
    </g>
</svg>