<svg id="Layer_1" data-name="Layer 1" xmlns="http://www.w3.org/2000/svg" xmlns:xlink="http://www.w3.org/1999/xlink" viewBox="0 0 512 512"><defs><style>.cls-1{fill:none;}.cls-2{clip-path:url(#clip-path);}.cls-3{fill:#96c253;}.cls-4{fill:#03aac4;}</style><clipPath id="clip-path"><rect id="SVGID" class="cls-1" width="512" height="512"/></clipPath></defs><title>due-dilligence</title><g class="cls-2"><path class="cls-3" d="M290.4,486.4H211.2v-92h79.2ZM344,363.2a19.3,19.3,0,0,0-13.6-5.6H171.2a19.2,19.2,0,1,0,0,38.4h20V506.4H310.4V396h20a19.47,19.47,0,0,0,19.2-19.2C349.6,371.2,348,366.4,344,363.2Z"/></g><g class="cls-2"><path class="cls-4" d="M121.6,255.2c0,17.6-12.8,31.2-30.4,31.2S60,273.6,60,256c0-16.8,13.6-31.2,30.4-31.2C108,224,121.6,237.6,121.6,255.2Z"/></g><g class="cls-2"><path class="cls-3" d="M108.8,494.4a224.82,224.82,0,0,0,23.2-.8c7.2,0,13.6-.8,20-.8a14.4,14.4,0,0,0,0-28.8,195,195,0,0,0-21.6.8c-16,.8-32,1.6-45.6-1.6-11.2-2.4-20.8-9.6-28-19.2-6.4-8.8-8-19.2-9.6-32,0-1.6-.8-4-.8-5.6L36.8,344c-.8-8-8.8-12.8-16-12-8,.8-12.8,8.8-12,16l9.6,62.4c0,1.6.8,4,.8,5.6,2.4,14.4,4,29.6,14.4,44,11.2,15.2,27.2,26.4,44.8,30.4C88.8,493.6,98.4,494.4,108.8,494.4Z"/></g><g class="cls-2"><path class="cls-4" d="M191.2,320.8H156a23.36,23.36,0,0,1-7.2-1.6c-8.8-5.6-17.6-10.4-28-16.8-6.4-4-15.2-8.8-32-7.2H88c-16.8,1.6-28,16-27.2,33.6V332c1.6,26.4,4,52.8,4.8,79.2,0,10.4,2.4,18.4,7.2,24.8,6.4,8.8,17.6,12.8,32.8,12.8H172a3.44,3.44,0,0,0,3.2-3.2V408a3.44,3.44,0,0,0-3.2-3.2c-18.4-.8-45.6-2.4-45.6-2.4L124,356.8c0-2.4-.8-4.8-.8-7.2,0-3.2-.8-6.4-.8-9.6.8.8,1.6.8,3.2,1.6,4.8,2.4,9.6,5.6,14.4,8a21.3,21.3,0,0,0,9.6,2.4h41.6c8.8,0,16-6.4,16-15.2C208,327.2,200.8,321.6,191.2,320.8Z"/></g><g class="cls-2"><path class="cls-4" d="M376.8,252c0,18.4,13.6,32.8,32,32.8s32.8-13.6,32.8-32-14.4-32.8-32-32.8S376.8,234.4,376.8,252Z"/></g><g class="cls-2"><path class="cls-3" d="M397.6,498.4c-8,0-16-.8-24-.8-7.2,0-14.4-.8-20.8-.8a15.19,15.19,0,0,1-15.2-15.2c0-8.8,6.4-15.2,15.2-15.2a209.62,209.62,0,0,1,22.4.8c16.8.8,33.6,1.6,48-1.6a49.6,49.6,0,0,0,29.6-20c6.4-9.6,8-20,10.4-33.6,0-2.4.8-4,.8-6.4l9.6-65.6a14.93,14.93,0,1,1,29.6,4l-9.6,65.6c0,1.6-.8,4-.8,5.6-2.4,15.2-4.8,31.2-15.2,46.4-12,16-28,28-47.2,32C419.2,497.6,408.8,498.4,397.6,498.4Z"/></g><g class="cls-2"><path class="cls-4" d="M378.4,407.2s-28.8,1.6-48,2.4c-1.6,0-3.2,1.6-3.2,4v40a3.44,3.44,0,0,0,3.2,3.2H400c27.2,0,41.6-12,41.6-39.2.8-28.8,3.2-58.4,4.8-87.2.8-18.4-11.2-33.6-28.8-35.2h-.8c-5.6-.8-11.2.8-16,3.2-8.8,4-15.2,12.8-16.8,24-1.6,9.6-2.4,18.4-3.2,28.8,0,2.4,0,5.6-.8,8Z"/></g><g class="cls-2"><path class="cls-3" d="M328.8,31.2l-2.4.8c-6.4,3.2-12.8,6.4-18.4,8.8-15.2-10.4-33.6-15.2-52-15.2a96.62,96.62,0,0,0-96.8,96.8,99.4,99.4,0,0,0,22.4,62.4l3.2,4-15.2,12.8-3.2-4a117.33,117.33,0,0,1-27.2-75.2C139.2,57.6,192,4.8,256.8,4.8A120.68,120.68,0,0,1,328.8,31.2Z"/></g><g class="cls-2"><path class="cls-3" d="M373.6,122.4V128h-20v-5.6a101,101,0,0,0-8.8-40.8l12.8-19.2C367.2,80.8,373.6,101.6,373.6,122.4Z"/></g><g class="cls-2"><path class="cls-3" d="M199.42,204.47a8.8,8.8,0,1,1-10.14,7.22A8.8,8.8,0,0,1,199.42,204.47Z"/></g><g class="cls-2"><path class="cls-3" d="M372,164.8a17.6,17.6,0,1,1-17.6-17.6A17.6,17.6,0,0,1,372,164.8Z"/></g><g class="cls-2"><path class="cls-3" d="M322.4,200.8a12.9,12.9,0,0,0-7.2-2.4,12.77,12.77,0,0,0-11.2,6.4c-4,6.4-2.4,14.4,4,19.2a12.9,12.9,0,0,0,7.2,2.4,12.77,12.77,0,0,0,11.2-6.4C330.4,212.8,328.8,204.8,322.4,200.8Z"/></g><g class="cls-2"><path class="cls-3" d="M256.8,217.6a10.15,10.15,0,0,0-4.8.8c-3.2,1.6-5.6,4-6.4,6.4a19.5,19.5,0,0,0,0,9.6c1.6,4.8,6.4,7.2,11.2,7.2a10.15,10.15,0,0,0,4.8-.8c3.2-1.6,5.6-4,6.4-6.4a19.5,19.5,0,0,0,0-9.6C265.6,220.8,261.6,217.6,256.8,217.6Z"/></g><g class="cls-2"><path class="cls-3" d="M348,49.6a6.83,6.83,0,0,0,0-5.6v-.8l-.8-.8c-1.6-1.6-4-1.6-6.4-.8a.78.78,0,0,0-.8.8l-5.6,2.4c-10.4,4.8-20,9.6-30.4,14.4-5.6,2.4-11.2,5.6-16.8,8-14.4,7.2-29.6,14.4-44.8,21.6-15.2,8-22.4,24-16.8,40,4.8,14.4,17.6,24,32.8,24h4c10.4-.8,18.4-6.4,25.6-16.8,13.6-19.2,26.4-38.4,40-57.6Z"/></g></svg>