<?xml version="1.0" encoding="UTF-8"?>
<svg width="797px" height="690px" viewBox="0 0 797 690" version="1.1" xmlns="http://www.w3.org/2000/svg" xmlns:xlink="http://www.w3.org/1999/xlink">
    <!-- Generator: Sketch 47.1 (45422) - http://www.bohemiancoding.com/sketch -->
    <title>How it works</title>
    <desc>Created with Sketch.</desc>
    <defs>
        <linearGradient x1="93.7825521%" y1="20.5902778%" x2="74.3760851%" y2="89.9555122%" id="linearGradient-1">
            <stop stop-color="#03AAC4" offset="0%"></stop>
            <stop stop-color="#338CAD" offset="100%"></stop>
        </linearGradient>
        <linearGradient x1="37.6768663%" y1="11.4643012%" x2="50%" y2="102.145182%" id="linearGradient-2">
            <stop stop-color="#97C355" offset="0%"></stop>
            <stop stop-color="#7EAA3C" offset="100%"></stop>
        </linearGradient>
    </defs>
    <g id="Infographics" stroke="none" stroke-width="1" fill="none" fill-rule="evenodd">
        <g id="How-it-Works" transform="translate(-15.000000, -26.000000)">
            <g id="How-it-works" transform="translate(10.000000, 5.000000)">
                <rect id="bg" x="0" y="0" width="804" height="715"></rect>
                <g id="Group-8" transform="translate(177.500000, 129.000000)">
                    <path d="M229,0 L269,49 L229.314,99.004 C300.967,99.174 359,157.308 359,229 C359,300.797 300.797,359 229,359 L228.96,359 L229,360 L189,409 L229,458 C355.473,458 458,355.473 458,229 C458,102.527 355.473,0 229,0" id="Fill-1" fill="url(#linearGradient-1)"></path>
                    <path d="M229,360 L228.96,359 C157.182,358.978 99,300.784 99,229 C99,157.203 157.203,99 229,99 C229.105,99 229.209,99.004 229.314,99.004 L269,49 L229,0 C102.527,0 0,102.527 0,229 C0,355.473 102.527,458 229,458 L189,409 L229,360 Z" id="Fill-3" fill="url(#linearGradient-2)"></path>
                </g>
                <g id="logo" transform="translate(367.000000, 294.000000)">
                    <polygon id="Fill-1" fill="#338CAD" points="5.06034904 98.1649263 29.9771002 128.983582 25.8160787 114.52478 19.3506481 99.0972445 12.0621481 97.9612421"></polygon>
                    <polygon id="Fill-2" fill="#6CC5D4" points="5.06034904 98.1648955 12.2034926 98.6312089 19.3506481 99.0972136 20.172483 89.6845342 19.3506481 79.2154744"></polygon>
                    <polygon id="Fill-3" fill="#338CAD" points="19.3505555 79.2153818 19.3505555 99.0971211 24.6315316 93.816145 36.8155507 93.816145"></polygon>
                    <polygon id="Fill-4" fill="#03AAC4" points="29.9771311 128.983644 30.8739589 115.525055 29.9126311 108.728175 19.3506789 99.0973062"></polygon>
                    <polygon id="Fill-5" fill="#6CC5D4" points="29.9126928 108.728082 29.9771928 128.983551 43.6712526 106.250233 47.3094847 91.952527"></polygon>
                    <polygon id="Fill-6" fill="#338CAD" points="41.2754943 104.844565 29.9771928 128.983613 59.7363818 102.51485 54.8794392 96.2441533 47.3097933 91.9525888"></polygon>
                    <polygon id="Fill-7" fill="#03AAC4" points="63.4644818 91.9524653 55.074544 90.5834605 47.3095464 91.9524653 53.7215871 97.402561 59.7361349 102.514726 77.1329268 91.9527739 77.1329268 91.9524653 69.8160344 89.7409486"></polygon>
                    <polygon id="Fill-8" fill="#6CC5D4" points="47.3095156 91.9525579 54.7588026 91.9525579 63.464451 91.9525579 55.5973026 82.0399263 48.2418337 75.7979311 35.5087931 70.363266 17.1759797 68.2934024"></polygon>
                    <polygon id="Fill-9" fill="#03AAC4" points="48.2416794 75.7980237 63.4642967 91.9526505 63.6763134 91.9526505 64.3913684 74.6490596 60.2513325 54.7463347 52.5545383 64.151916"></polygon>
                    <polygon id="Fill-10" fill="#338CAD" points="61.9960112 74.9535366 63.4640806 91.9522184 77.1325256 91.9522184 60.2511165 54.7462112"></polygon>
                    <polygon id="Fill-11" fill="#338CAD" points="48.2416794 75.7980237 54.3642416 65.0660261 60.2513325 54.7463347 74.6477943 29.5104782 56.7001292 39.7561026 17.176134 68.293495"></polygon>
                    <polygon id="Fill-12" fill="#6CC5D4" points="17.1761031 68.2934024 74.648072 29.5103856 51.5564548 31.4129813 29.9128471 36.3446081 35.5045959 41.3154287"></polygon>
                    <polygon id="Fill-13" fill="#338CAD" points="29.9129706 0.308458134 29.9129706 36.3448242 74.6475782 29.5102931"></polygon>
                    <polygon id="Fill-14" fill="#03AAC4" points="29.9126928 0.308458134 6.32914737 34.2215706 14.2314775 37.1259222 29.9126928 36.3445156"></polygon>
                    <polygon id="Fill-15" fill="#6CC5D4" points="0 42.9627093 10.3431459 45.8812572 12.3605455 41.1591782 29.912878 36.3448242 6.32562919 33.9422763"></polygon>
                    <polygon id="Fill-16" fill="#338CAD" points="0 42.9627093 6.32562919 33.9422763 0.541923445 33.3537524"></polygon>
                    <polygon id="Fill-17" fill="#03AAC4" points="19.3505555 79.2153818 19.3505555 89.8779416 19.3505555 99.0971211 24.6315316 93.816145"></polygon>
                    <polygon id="Fill-18" fill="#03AAC4" points="17.1761031 68.2934024 74.6477634 29.5103856 35.5049045 41.3151201"></polygon>
                </g>
                <g id="Group-3" transform="translate(350.000000, 0.000000)">
                    <g id="investors" transform="translate(21.000000, 0.000000)">
                        <rect id="bg" x="0" y="0" width="72" height="72"></rect>
                        <path d="M52.7973653,67.0422145 L71.6030445,67.0422145 C71.6030445,62.5453287 68.1326698,58.8531488 66.327137,58.2141176 C64.5216042,57.5750865 62.3174473,56.8413841 60.2774297,56.3916955 C59.3160422,56.1786851 57.9560304,55.6579931 57.4870609,55.0899654 C57.0180913,54.5219377 57.2525761,51.1611073 57.2525761,51.1611073 L57.2760246,51.1847751 L57.3229215,51.1847751 C57.9091335,51.1847751 63.0912471,51.1137716 65.1781616,49.220346 C61.4498536,44.4157785 63.5836651,37.2917647 62.8333138,31.3038062 C62.0829625,25.3395156 58.7063817,21.6 52.140808,21.6 L52.140808,21.6 L51.9063232,21.6 C45.1297131,21.6 41.5655445,25.3395156 40.8386417,31.327474 C40.0882904,37.3154325 42.0345141,43.7294118 38.4,49.220346 C40.6276054,51.2084429 46.2317916,51.3977855 46.2317916,51.3977855 C46.2317916,51.3977855 46.5131733,54.5456055 46.0442037,55.1136332 C45.5752342,55.6816609 41.5655445,56.6993772 41.5655445,56.6993772 C38.6344848,57.2200692 39.5255269,58.687474 39.5255269,58.687474 C41.1200234,58.9004844 43.2069379,58.9004844 45.2938525,59.9655363 C48.7407787,61.6932872 52.2814988,65.1487889 52.7973653,67.0422145 Z M52.7035714,60.6282353 C51.5311475,59.5395156 50.2180328,58.4034602 48.8814696,57.5514187 C48.904918,57.5277509 48.904918,57.5277509 48.9283665,57.504083 C49.6787178,56.5810381 50.3352752,55.1609689 49.9600995,51.0427682 L49.6552693,47.7292734 L46.349034,47.6109343 C46.349034,47.6109343 45.1297131,47.5635986 43.7228044,47.3032526 C43.6290105,47.2795848 43.5352166,47.255917 43.4648712,47.2322491 C44.5669496,43.8004152 44.4966042,40.2975779 44.4262588,37.12609 C44.3793618,35.2089965 44.3559133,33.3629066 44.5669496,31.6824913 C45.1062646,27.3039446 47.33387,25.1265052 52.0235656,25.1265052 L52.140808,25.1265052 L52.1877049,25.1265052 C56.4553279,25.1265052 58.4953454,27.3512803 59.0581089,31.6588235 C59.2691452,33.3392388 59.1987998,35.3273356 59.1519028,37.3391003 C59.0581089,40.4869204 58.9408665,43.9424221 59.9257026,47.1612457 C59.1519028,47.2795848 58.2843091,47.3742561 57.4167155,47.3742561 L57.2760246,47.3742561 L57.0180913,47.3742561 L53.6415105,47.4689273 L53.5008197,50.8534256 C53.172541,55.3739792 53.8994438,56.6520415 54.5794496,57.4804152 C55.9863583,59.1844983 58.6829333,59.8945329 59.456733,60.0602076 C61.3091628,60.4625606 63.3491803,61.0779239 65.0140222,61.6696194 C65.3188525,61.8352941 65.9050644,62.2613149 66.4678279,63.2080277 L55.0015222,63.2080277 C54.3918618,62.3086505 53.6415105,61.4802768 52.7035714,60.6282353 Z" id="Shape" fill="#97C355" fill-rule="nonzero"></path>
                        <path d="M39.434839,59.9371052 C37.5327279,59.2873308 34.4248142,59.0874002 33.0661635,58.5709129 C32.1151079,58.2043735 30.6036089,57.8211732 30.1280811,57.2380423 C29.6355702,56.6715724 29.6355702,52.5563346 29.6355702,52.5563346 C29.6355702,52.5563346 30.8243897,51.4733773 31.3169006,50.2571329 C31.8094115,49.0408886 32.132091,45.742034 32.132091,45.742034 C32.132091,45.742034 32.2339899,45.7753558 32.3868381,45.7753558 C32.7434839,45.7753558 33.388843,45.5421034 33.6945395,44.0093023 C34.0681684,42.1266227 34.7814601,41.1436307 34.5946456,39.7607775 C34.4587805,38.8277681 34.0511853,38.6778202 33.8134214,38.6778202 C33.6945395,38.6778202 33.6096238,38.711142 33.6096238,38.711142 C33.6096238,38.711142 34.5776625,37.3116279 34.5776625,32.5466158 C34.5776625,27.6483166 30.7224909,22.8166609 23.6065574,22.8 C16.4736408,22.8166609 12.6354523,27.6483166 12.6354523,32.5466158 C12.6354523,37.294967 13.603491,38.711142 13.603491,38.711142 C13.603491,38.711142 13.5185753,38.6778202 13.3996934,38.6778202 C13.1449463,38.6778202 12.7373511,38.8277681 12.6184692,39.7607775 C12.4316547,41.1436307 13.1279632,42.1432836 13.5185753,44.0093023 C13.8242717,45.5421034 14.4696309,45.7753558 14.8262767,45.7753558 C14.9791249,45.7753558 15.0810237,45.742034 15.0810237,45.742034 C15.0810237,45.742034 15.4037033,49.0575495 15.8962142,50.2571329 C16.3887251,51.4733773 17.5775445,52.5563346 17.5775445,52.5563346 C17.5775445,52.5563346 17.5775445,56.6715724 17.0850336,57.2380423 C16.5925227,57.8045123 15.0980068,58.2043735 14.1469513,58.5709129 C12.7883005,59.0874002 9.68038684,59.2873308 7.77827574,59.9371052 C5.87616464,60.5868796 0,63.3026033 0,70.8 L47.2131148,70.8 C47.2131148,63.3026033 41.3539332,60.5868796 39.434839,59.9371052 Z M5.11192358,64.7354391 C6.67437198,63.1193336 8.440618,62.4362374 8.64441562,62.3695939 C9.39167355,62.1196807 10.6144593,61.9197501 11.6843967,61.7531413 C12.9581319,61.5698716 14.1469513,61.3866019 15.0810237,61.0367234 C15.2508551,60.9700798 15.4716358,60.8867754 15.7093997,60.803471 C16.9152023,60.386949 18.273853,59.9204443 19.1399929,58.9207914 C19.8023352,58.1543908 20.0400991,57.1047553 20.1759641,54.8055536 C20.2438967,53.6392919 20.2099304,52.5729955 20.2099304,52.5230128 L20.2099304,51.373412 L19.3777568,50.5903506 C19.1909423,50.4237418 18.5795495,49.7573065 18.3757519,49.25748 C18.1719542,48.7576536 17.9002241,46.8916348 17.7813421,45.8419993 C17.5775445,43.9259979 16.7623541,44.9256508 16.1339781,43.3095453 C15.7943154,42.4431795 15.6414672,41.4102048 15.4037033,40.6104825 C15.1659394,39.7940993 16.4906239,39.0776814 16.1849275,38.0613676 C15.8622479,37.0450538 15.3357707,35.745505 15.3357707,32.5299549 C15.3357707,29.1144741 17.9341904,25.4824019 23.5895742,25.4657411 C29.2449581,25.4657411 31.8433778,29.1144741 31.8433778,32.5299549 C31.8433778,35.745505 31.3169006,37.0450538 30.994221,38.0613676 C30.6715415,39.0776814 32.0132091,39.7940993 31.7754452,40.6104825 C31.5376813,41.4268657 31.3848331,42.4431795 31.0451704,43.3095453 C30.3998113,44.9256508 29.601604,43.9259979 29.3978063,45.8419993 C29.2789244,46.8916348 29.0071942,48.7409927 28.8033966,49.25748 C28.599599,49.7573065 28.0051893,50.4237418 27.8183748,50.5903506 L27.0031843,51.373412 L27.0031843,52.5230128 C27.0031843,52.5729955 26.9692181,53.6392919 27.0201675,54.8055536 C27.1560326,57.1047553 27.3768133,58.1543908 28.0391556,58.9207914 C28.9052954,59.9204443 30.2639462,60.386949 31.4697488,60.803471 C31.7075127,60.8867754 31.9282934,60.9700798 32.0981248,61.0367234 C33.0321972,61.3866019 34.2379998,61.5698716 35.4947517,61.7531413 C36.5646892,61.9030892 37.7874749,62.1030198 38.5347329,62.3695939 C38.7385305,62.4362374 40.5047765,63.1359944 42.0672249,64.7354391 C43.0692299,65.7684137 43.7655384,66.6347796 44.1561505,68.1342589 L3.03998113,68.1342589 C3.4136101,66.6347796 4.10991862,65.7850746 5.11192358,64.7354391 Z" id="Shape" fill="#97C355" fill-rule="nonzero"></path>
                    </g>
                    <text id="INDIVIDUALS" font-family="OpenSans-Semibold, Open Sans" font-size="18" font-weight="500" fill="#3B3B3C">
                        <tspan x="0" y="96">INDIVIDUALS</tspan>
                    </text>
                </g>
                <g id="Group-4" transform="translate(363.000000, 614.000000)">
                    <text id="STARTUPS" font-family="OpenSans-Semibold, Open Sans" font-size="18" font-weight="500" fill="#3B3B3C">
                        <tspan x="0" y="96">STARTUPS</tspan>
                    </text>
                    <g id="company" transform="translate(7.000000, 0.000000)">
                        <rect id="bg" x="0" y="0" width="72" height="72"></rect>
                        <g id="startup" transform="translate(13.000000, 0.000000)" stroke-width="2" stroke="#97C355">
                            <g id="Group">
                                <path d="M33.8371971,40.536 C33.2217372,43.1221395 32.4048175,45.8365395 31.3301971,48.6656372 C30.2267007,51.5232 28.8947153,54.509693 27.2482847,57.6241116 C26.0002409,59.996093 24.597073,62.4251721 22.992781,64.9394791 C21.3881533,62.4250047 19.9851533,59.996093 18.7525547,57.6241116 C17.0906788,54.509693 15.7586934,51.5232 14.6550292,48.6656372 C13.5807445,45.8228093 12.7636569,43.122307 12.1621314,40.536 C9.84282482,30.720893 10.6301971,22.6912186 12.5930876,16.4473116 C16.002292,5.5028093 22.9929489,0.0452093023 22.9929489,0.0452093023 C22.9929489,0.0452093023 29.983438,5.5028093 33.3926423,16.4473116 C35.3550292,22.6912186 36.1427372,30.720893 33.8371971,40.536 Z" id="Shape"></path>
                                <path d="M18.7523869,57.6241116 C7.06284672,61.0675535 0.903211679,71.9547907 0.903211679,71.9547907 C-1.54637226,59.0525581 1.92041606,50.8946233 5.8890073,46.0081674 C8.15257664,43.1794047 10.6006496,41.4505674 12.1619635,40.5358326" id="Shape"></path>
                                <path d="M33.8371971,40.536 C35.3986788,41.4507349 37.8480949,43.1795721 40.1116642,46.0083349 C44.0805912,50.8947907 47.5470438,59.0527256 45.0959489,71.9549581 C45.0959489,71.9549581 38.9364818,61.0677209 27.2481168,57.6241116" id="Shape"></path>
                            </g>
                            <path d="M40.1116642,46.0081674 C37.8480949,43.1794047 35.3986788,41.4505674 33.8371971,40.5358326 C36.1427372,30.7207256 35.3550292,22.6910512 33.3924745,16.4471442 C30.1692847,15.6755721 26.6605255,15.2613209 22.992781,15.2613209 C19.3247007,15.2613209 15.8161095,15.6755721 12.5929197,16.4471442 C10.6301971,22.6910512 9.84265693,30.7207256 12.1619635,40.5358326 C10.6008175,41.4505674 8.15257664,43.1794047 5.8890073,46.0081674" id="Shape"></path>
                            <path d="M28.3645401,28.2631814 C28.3645401,31.2181953 25.9624672,33.6141209 22.9996642,33.6141209 C20.0380365,33.6141209 17.6346204,31.2181953 17.6346204,28.2631814 C17.6346204,25.3081674 20.0378686,22.9122419 22.9996642,22.9122419 C25.9624672,22.9122419 28.3645401,25.3081674 28.3645401,28.2631814 Z" id="Shape"></path>
                        </g>
                    </g>
                </g>
                <g id="Group-7" transform="translate(658.000000, 277.000000)">
                    <g id="money">
                        <rect id="bg" x="0" y="0" width="72" height="72"></rect>
                        <g id="Group" transform="translate(0.000000, 11.000000)" fill-rule="nonzero" fill="#97C355">
                            <path d="M27.4188355,44.2904967 C27.1211123,46.5310547 25.6859337,47.8440904 23.5980543,48.5025167 C23.0989862,48.6609208 22.5741536,48.7382143 21.9872953,48.8708538 L21.9872953,51.4663895 L19.8230766,51.4663895 L19.8230766,48.8937556 C15.5089527,47.9547824 13.633869,45.9556473 13.9659449,42.6625614 L17.7323344,42.6625614 C17.7638244,42.8925335 17.8000855,43.1167801 17.82585,43.3400725 C17.984254,44.7523493 18.9318154,45.6798717 20.3421837,45.7848382 C20.6170052,45.80774 20.8927808,45.80774 21.1676023,45.7962891 C22.3451357,45.7562109 23.1247507,45.218019 23.4253366,44.2475558 C23.7803143,43.1158259 23.4740029,41.8963058 22.5464806,41.2951339 C21.8260286,40.8275558 20.9977473,40.5241071 20.2267206,40.1347768 C19.0243768,39.5364676 17.7218377,39.070798 16.6444996,38.2997712 C13.4964583,36.0420368 13.9468601,31.0618527 17.4183891,29.3194085 C18.2008668,28.9281696 19.0921279,28.7411384 20.0559114,28.4176507 L20.0559114,25.7142857 L22.2058165,25.7142857 L22.2058165,28.5617411 C24.0780375,28.9081306 25.6802083,29.641942 26.672619,31.3271317 C27.2089025,32.234615 27.4951748,33.5419252 27.3816201,34.5944531 L23.5894661,34.5944531 C23.4930877,34.1011105 23.4472842,33.6211272 23.2974683,33.1735882 C22.9396279,32.0933873 22.0779482,31.5513783 20.8584282,31.5714174 C19.6780319,31.5914565 18.9976581,32.0332701 18.6798958,32.9951451 C18.2943824,34.1612277 18.546302,35.3807478 19.4490141,35.967606 C20.2229036,36.4752623 21.0998511,36.83024 21.9395833,37.2415179 C23.0035621,37.7634877 24.1238411,38.1890792 25.1277027,38.8074275 C27.1697786,40.0641629 27.7203757,42.0528013 27.4188355,44.2904967 Z" id="Shape"></path>
                            <path d="M41.9416068,54.9862333 C41.649609,54.3984208 41.257416,53.89649 40.9110265,53.4537221 C40.5779963,53.0281306 40.264051,52.6254408 40.1008758,52.2332478 C38.9720086,49.5003013 39.4806191,45.7310491 39.9606023,43.1326507 C41.3432977,35.6599888 41.0303066,33.610279 39.0025443,28.5642522 C37.2791849,24.2749386 33.8954461,20.416942 29.394291,17.5733036 L30.2721927,15.0941853 C30.8962664,13.3880022 31.6491626,11.2982143 31.8972653,10.4909263 C31.9755131,10.236144 32.1329628,9.88689174 32.386791,9.40881696 L32.4888948,9.20174665 C32.6845142,8.80764509 32.9049439,8.36106027 33.0929294,7.86771763 C33.613945,6.46689174 33.4612664,5.00499442 32.6730633,3.85227121 C31.6720644,2.42472656 29.8475555,1.77393415 27.9543412,2.2233817 C27.3922932,2.35411272 26.8884539,2.5325558 26.4485488,2.70718192 C26.4141961,2.65374442 26.3769807,2.60030692 26.3378568,2.54496094 C25.1736827,0.855954241 23.6697988,0 21.8672374,0 C21.7594081,0 21.6429907,0.00763392857 21.4960376,0.0190848214 C20.1925443,0.104012277 18.3699439,0.664151786 17.0988948,2.82741629 L17.0435488,2.91711496 C16.9214059,3.12609375 16.8135767,3.33793527 16.7152898,3.55836496 C16.6618523,3.55836496 16.6055521,3.5593192 16.5397095,3.5593192 L15.3240064,3.55263951 C13.2533032,3.55263951 11.1797374,3.8150558 10.0451448,5.72067522 C9.31992154,6.94592076 9.28747735,8.46507254 9.95640034,9.88975446 C10.2436269,10.5061942 12.8620644,14.5235491 14.162695,16.4806975 C13.6159148,16.8270871 13.0634093,17.2164174 12.5061325,17.6181529 C12.3210097,17.7517467 12.152109,17.8738895 12.0022932,17.9779018 C9.21495502,19.9188281 6.97344275,22.0830469 5.34073627,24.4113951 C0.114357927,31.8621094 0.98080882,37.8318415 1.96176864,43.1336049 C2.01711462,43.4341908 2.07532333,43.7347768 2.13257779,44.0353627 C2.36159565,45.2262556 2.57820837,46.3513058 2.66313583,47.48399 C2.74520056,48.5737333 2.5114115,49.7140513 1.94745502,50.9707868 C1.79763918,51.303817 1.48941931,51.7694866 1.19074186,52.2198884 C0.905423775,52.6502511 0.611517525,53.0939732 0.354826677,53.5605971 C-0.0841242161,54.3583426 -0.117522654,55.2915904 0.264173775,56.1217801 C0.643961721,56.9481529 1.40162913,57.5521875 2.29098181,57.7382645 C3.9589952,58.0865625 5.56402869,57.9405636 7.11657891,57.7983817 C7.54503315,57.7592578 7.94963136,57.7220424 8.3570923,57.6953237 C10.2035488,57.5731808 12.0471425,58.0674777 13.9995198,58.5923103 C15.0052898,58.8623605 16.0463669,59.1419531 17.1112999,59.339481 C18.3050555,59.560865 19.4883144,59.6524721 20.6629852,59.6515179 C23.4073825,59.6515179 26.0973881,59.1543583 28.7244137,58.6686496 C28.9954182,58.6180748 29.2654684,58.5684542 29.5355186,58.5188337 C29.8246537,58.4663504 30.114743,58.4110045 30.4057865,58.3566127 C31.8314227,58.0875167 33.3057251,57.8098326 34.6989171,57.7611663 C34.7447206,57.7592578 34.8496872,57.7563951 35.0014115,57.7525781 C35.6436157,57.7354018 36.9795532,57.7010491 38.2019361,57.6428404 C40.4844807,57.5340569 41.3385265,57.4930246 41.8776727,56.5989007 C42.1734874,56.1046038 42.1973434,55.5024777 41.9416068,54.9862333 Z M37.0377619,53.4995257 C37.1656302,53.809654 37.3164003,54.0921094 37.4786213,54.3545257 C36.8144695,54.3812444 35.9747374,54.4098717 34.9145756,54.4375446 C34.7475834,54.4423158 34.631166,54.4451786 34.5805912,54.4470871 C32.9373881,54.5052958 31.33808,54.8068359 29.7912552,55.0978795 C29.5059372,55.151317 29.2225276,55.2047545 28.939118,55.2572377 C28.6671593,55.3068583 28.3942463,55.357433 28.1213334,55.4080078 C24.5085767,56.0759766 21.0962106,56.7057757 17.7162887,56.0788393 C16.779224,55.9051674 15.8469305,55.654202 14.859291,55.388923 C12.7313334,54.8173326 10.5318077,54.2266574 8.13666261,54.3860156 C7.68816931,54.4155971 7.24349297,54.4566295 6.81408449,54.4957533 C5.68426306,54.5988114 4.60692489,54.6980525 3.6011548,54.5902232 C3.71566373,54.4117801 3.83589811,54.2295201 3.954224,54.051077 C4.32637802,53.489029 4.71093717,52.9088504 4.97239922,52.3277176 C5.75678538,50.579548 6.091724,48.8666853 5.96958114,47.2358873 C5.87034007,45.9142634 5.62510011,44.6413058 5.38844833,43.4103348 C5.33214811,43.1173828 5.27584788,42.8244308 5.22145614,42.5305246 C4.33496619,37.7402344 3.52386127,32.7743638 8.05459788,26.315106 C9.46401194,24.3064286 11.4287943,22.416077 13.8964617,20.6984431 C14.0586827,20.5848884 14.2438055,20.4522489 14.4451503,20.3072042 C15.1503345,19.7985938 17.0235097,18.4473884 17.7659093,18.4473884 L20.9855186,18.4473884 C21.9006358,18.4473884 22.6430354,17.7049888 22.6430354,16.7898717 C22.6430354,15.8747545 21.9006358,15.1323549 20.9855186,15.1323549 L17.7659093,15.1323549 C17.5569305,15.1323549 17.3469974,15.1504855 17.1351559,15.1848382 C16.0501838,13.5435435 13.7456916,9.97754464 13.0414617,8.45362165 C12.907868,8.17116629 12.7866794,7.77133929 12.9660767,7.46693638 C13.1302061,7.18829799 13.5309874,7.01462612 14.0987608,6.97836496 C14.2838836,6.96500558 14.4718691,6.96118862 14.6608088,6.96118862 L15.5568412,6.97073103 L15.8669695,6.95737165 C15.920407,6.95832589 15.9728903,6.95928013 16.0263278,6.96118862 C16.2505744,6.9678683 16.4776838,6.97263951 16.7019305,6.9678683 L17.8346146,10.9384654 C18.0464561,11.6875446 18.7401894,12.211423 19.5198044,12.211423 C19.7039729,12.211423 19.8537887,12.1913839 19.9787943,12.1532143 C20.9072709,11.9003404 21.4588222,10.9375112 21.2049941,10.0023549 L19.7841291,5.03743862 C19.847109,4.89048549 19.9186771,4.74639509 19.9911994,4.61280134 C20.43683,3.84654576 20.9912441,3.46484933 21.7317352,3.41236607 L21.857695,3.40854911 C22.5170756,3.40854911 23.0323657,3.73776228 23.5333423,4.48397879 C23.7060599,4.72731027 23.8415622,5.00117746 23.9846983,5.29126674 C24.0572206,5.43726563 24.129743,5.58326451 24.2060823,5.72544643 C24.6020923,6.46212054 25.1603233,6.61766183 25.5572876,6.61766183 C25.8197039,6.61766183 26.0964338,6.55563616 26.4027452,6.42681362 L26.9170811,6.20447545 C27.5039394,5.9477846 28.1098825,5.68155134 28.7205968,5.54414063 C29.2397039,5.42199777 29.679609,5.52219308 29.87332,5.80083147 C30.0212273,6.01267299 30.0307698,6.3218471 29.900993,6.66919085 C29.7721704,7.01080915 26.7806247,14.907154 25.9265789,17.1629799 C25.867416,17.2355022 25.8130242,17.3127958 25.7662664,17.396769 C25.3196816,18.1954688 25.6049997,19.20601 26.4046537,19.6525949 C30.8666849,22.1460268 34.3372597,25.8456194 35.9270253,29.8019029 C37.7133646,34.2467578 37.9662385,35.6943415 36.7009148,42.5305246 C36.1445923,45.5411551 35.5730019,49.9545201 37.0377619,53.4995257 Z" id="Shape"></path>
                        </g>
                    </g>
                    <g id="Group-5" transform="translate(0.000000, 82.000000)" fill="#3B3B3C">
                        <text id="INVEST" font-family="OpenSans-Semibold, Open Sans" font-size="18" font-weight="500">
                            <tspan x="0" y="19">INVEST</tspan>
                        </text>
                        <text id="Individuals-invest-i" font-family="OpenSans, Open Sans" font-size="14" font-weight="normal">
                            <tspan x="0" y="39">Individuals invest in </tspan>
                            <tspan x="0" y="58">Corl’s revenue sharing </tspan>
                            <tspan x="0" y="77">fund.</tspan>
                        </text>
                    </g>
                </g>
                <g id="Group-6" transform="translate(0.000000, 277.000000)">
                    <g id="revenue" transform="translate(83.000000, 0.000000)">
                        <rect id="bg" x="0" y="0" width="72" height="72"></rect>
                        <g id="money" transform="translate(8.400000, 0.000000)" stroke-linecap="round" stroke="#97C355" stroke-width="2.28511475" stroke-linejoin="round">
                            <g id="Group" transform="translate(31.020000, 5.806452)">
                                <path d="M7.332,2.55483871 C7.332,2.55483871 6.7962,1.94516129 6.3732,1.68387097 C5.3298,0.958064516 3.9198,1.21935484 3.1866,2.29354839 C2.4534,3.36774194 2.8482,4.58709677 3.7788,5.54516129 C4.7094,6.50322581 5.922,8.4483871 5.0478,9.72580645 C4.1736,11.0322581 2.4534,11.3516129 1.1844,10.4806452 C0.6204,10.1322581 0.423,9.84193548 0.1692,9.5516129" id="Shape"></path>
                                <path d="M5.922,1.42258065 L6.46471475,0.14516129" id="Shape"></path>
                                <path d="M1.75567869,10.7419355 L1.1844,12.1064516" id="Shape"></path>
                            </g>
                            <path d="M40.2696,55.7709677 C40.2696,55.7709677 40.2132,72 35.7576,72 L24.4212,72 C19.9656,72 19.9092,55.7709677 19.9092,55.7709677 L40.2696,55.7709677 Z" id="Shape"></path>
                            <path d="M40.2696,55.7709677 L19.9374,55.7709677 C17.8506,55.7709677 17.8506,51.2419355 19.9374,51.2419355 L40.2696,51.2419355 C42.0744,51.2419355 42.0744,55.7709677 40.2696,55.7709677 Z" id="Shape"></path>
                            <path d="M30.1458,51.2129032 C30.1458,51.2129032 23.0676,37.5387097 30.7944,23.1677419" id="Shape"></path>
                            <path d="M27.2694,39.9483871 C27.2694,39.9483871 25.0698,33.9967742 19.2042,34.5483871" id="Shape"></path>
                            <path d="M28.1436,45.3774194 C28.1436,45.3774194 29.8356,39.3677419 36.7164,39.0774194" id="Shape"></path>
                            <path d="M46.7274,11.9322581 C46.7274,18.5225806 41.3694,23.8645161 34.7706,23.8645161 C33.3888,23.8645161 32.0352,23.6322581 30.7944,23.1967742 C26.1696,21.5419355 22.842,17.1290323 22.842,11.9322581 C22.842,5.34193548 28.2,0 34.7988,0 C41.3976,0 46.7274,5.34193548 46.7274,11.9322581 Z" id="Shape"></path>
                            <path d="M54.8772,33.0677419 C54.8772,33.0677419 50.619,33.9096774 46.4454,32.0806452 C42.3,30.2516129 35.7294,34.083871 35.7294,34.083871 L37.7034,44.4483871 C37.7034,44.4483871 42.6102,40.3548387 46.9812,42.3870968 C51.3522,44.4193548 56.2872,43.4322581 56.2872,43.4322581 L54.8772,33.0677419 Z" id="Shape"></path>
                            <path d="M0.1128,34.3451613 C0.1128,34.3451613 4.4274,34.8967742 7.8114,37.9741935 C11.1954,41.0516129 18.5838,39.483871 18.5838,39.483871 L19.9092,29.0322581 C19.9092,29.0322581 13.9872,31.3548387 10.4622,28.0451613 C6.9372,24.7354839 1.974,24.0677419 1.974,24.0677419 L0.1128,34.3451613 Z" id="Shape"></path>
                            <path d="M6.8526,31.9935484 C9.2778,31.9935484 10.2084,34.6935484 12.8028,34.5483871" id="Shape"></path>
                            <path d="M41.454,37.6548387 C44.979,36.4645161 48.0528,39.0774194 50.478,38.0032258" id="Shape"></path>
                        </g>
                    </g>
                    <text id="SHARE-REVENUE" font-family="OpenSans-Semibold, Open Sans" font-size="18" font-weight="500" fill="#3B3B3C">
                        <tspan x="13.1621094" y="101">SHARE REVENUE</tspan>
                    </text>
                    <text id="Investors-will-recei" font-family="OpenSans, Open Sans" font-size="14" font-weight="normal" fill="#3B3B3C">
                        <tspan x="8.73828125" y="121">Investors will receive a </tspan>
                        <tspan x="4.92382812" y="140">portion of the startups’ </tspan>
                        <tspan x="98.3574219" y="159">revenue.</tspan>
                    </text>
                </g>
            </g>
        </g>
    </g>
</svg>