<svg xmlns="http://www.w3.org/2000/svg" xmlns:xlink="http://www.w3.org/1999/xlink" width="101px" height="94px" viewBox="0 0 101 94"> <!-- Generator: Sketch 43.2 (39069) - http://www.bohemiancoding.com/sketch --> <title>insights</title> <desc>Created with Sketch.</desc> <defs></defs> <g id="Icons" stroke="none" stroke-width="1" fill="none" fill-rule="evenodd"> <g transform="translate(-333.000000, -42.000000)" id="insights"> <g transform="translate(328.000000, 26.000000)"> <rect id="bg" x="0" y="0" width="110" height="110"></rect> <g id="magnifier" transform="translate(5.000000, 16.000000)" fill-rule="nonzero" fill="#97C355"> <path d="M99.0573057,80.6836531 L87.9566398,67.2776224 C96.7860024,55.1969439 96.3432299,38.3855714 86.7128081,26.7566684 C85.3581635,25.1215 83.8589597,23.6472347 82.2518152,22.3235612 L82.2518152,6.78526531 C82.2518152,3.09840306 79.2581943,0.0987959184 75.5783957,0.0987959184 L6.76604265,0.0987959184 C3.08672275,0.0987959184 0.0926232227,3.09840306 0.0926232227,6.78526531 L0.0926232227,87.2147347 C0.0926232227,90.9018367 3.08672275,93.9012041 6.76604265,93.9012041 L75.5786351,93.9012041 C79.2584336,93.9012041 82.2520545,90.9018367 82.2520545,87.2147347 L82.2520545,85.634 L86.6759502,90.9759337 C88.2096185,92.8278776 90.467519,93.8894541 92.871654,93.8894541 L92.8721327,93.8894541 C94.7411114,93.8894541 96.5631801,93.2297755 98.0037464,92.0324745 C101.417403,89.1959286 101.889614,84.1038622 99.0573057,80.6836531 Z M78.6986256,87.2147347 C78.6986256,88.9383878 77.2985071,90.3409541 75.5783957,90.3409541 L6.76604265,90.3409541 C5.04569194,90.3409541 3.64629147,88.938148 3.64629147,87.2147347 L3.64629147,6.78526531 C3.64629147,5.06161224 5.04593128,3.65952551 6.76604265,3.65952551 L75.5786351,3.65952551 C77.2989858,3.65952551 78.6988649,5.06161224 78.6988649,6.78526531 L78.6988649,19.7651786 C73.5579171,16.5754133 67.5833602,14.8356939 61.3680308,14.8356939 C53.7214692,14.8356939 46.2647014,17.5345969 40.3700829,22.4343469 C33.604519,28.0580408 29.4302512,35.9847347 28.6155498,44.7540714 C27.8008483,53.5241276 30.4433626,62.0865204 36.057,68.8653112 C42.3292915,76.4409439 51.5667227,80.7855663 61.4015379,80.7855663 C66.3031493,80.7855663 71.1736469,79.6774694 75.575763,77.5691837 L78.6993436,81.3418929 L78.6993436,87.2147347 L78.6986256,87.2147347 Z M95.7336398,89.2930459 C94.9189384,89.970949 93.929282,90.3292041 92.8718934,90.3292041 C92.8718934,90.3292041 92.8718934,90.3292041 92.8714147,90.3292041 C91.5284976,90.3292041 90.266237,89.7361888 89.4108483,88.7026684 L76.4787796,73.085 L75.1997654,73.7698571 C70.9805024,76.0299337 66.2093294,77.2248367 61.4010592,77.2248367 C52.6274621,77.2248367 44.3861493,73.3490153 38.7911801,66.5915663 C33.783782,60.5448724 31.4265569,52.9068929 32.1534218,45.0845102 C32.8802867,37.2621276 36.6041232,30.1912653 42.6394716,25.1744949 C47.897455,20.8034949 54.5483768,18.3961837 61.3680308,18.3961837 C70.1406706,18.3961837 78.3824621,22.2720051 83.97791,29.0299337 C92.8470024,39.7394592 92.9819882,55.3746327 84.2990995,66.2064541 L83.3908175,67.33925 L96.3224076,82.9571582 C97.9039431,84.8666531 97.639955,87.7089541 95.7336398,89.2930459 Z" id="Shape"></path> <path d="M56.4913104,49.0867041 L64.1457701,49.0867041 L64.1457701,45.5262143 L56.4913104,45.5262143 C53.5879194,45.5262143 51.2263863,43.1599082 51.2263863,40.2514235 C51.2263863,37.3422194 53.5879194,34.9754337 56.4913104,34.9754337 L60.8381398,34.9754337 L60.8381398,41.4777398 L64.3918081,41.4777398 L64.3918081,34.9754337 L72.7204787,34.9754337 L72.7204787,31.4147041 L64.3918081,31.4147041 L64.3918081,26.4458929 L60.8381398,26.4458929 L60.8381398,31.4147041 L56.4913104,31.4147041 C51.6289502,31.4147041 47.6722393,35.3785306 47.6722393,40.2514235 C47.6724787,45.1228776 51.6289502,49.0867041 56.4913104,49.0867041 Z" id="Shape"></path> <path d="M65.6787204,45.5262143 L65.6787204,49.0867041 C68.5816327,49.0867041 70.9436445,51.4534898 70.9436445,54.3626939 C70.9436445,57.2714184 68.5816327,59.6377245 65.6787204,59.6377245 L49.4485948,59.6377245 L49.4485948,63.1982143 L60.8381398,63.1982143 L60.8381398,67.5538673 L64.3918081,67.5538673 L64.3918081,63.1982143 L65.6787204,63.1982143 C70.5406019,63.1982143 74.4977915,59.2343878 74.4977915,54.3626939 C74.4977915,49.4900408 70.5406019,45.5262143 65.6787204,45.5262143 Z" id="Shape"></path> <rect id="Rectangle-path" x="60.8381398" y="51.9081429" width="3.55366825" height="5.8277602"></rect> <rect id="Rectangle-path" x="18.1553483" y="18.7371735" width="12.094391" height="3.56072959"></rect> <rect id="Rectangle-path" x="18.1553483" y="34.2903367" width="5.1031327" height="3.56072959"></rect> <rect id="Rectangle-path" x="18.1553483" y="63.6272092" width="11.007564" height="3.56072959"></rect> <rect id="Rectangle-path" x="18.1553483" y="75.6568112" width="21.1391564" height="3.56096939"></rect> </g> </g> </g> </g> </svg>