<svg xmlns="http://www.w3.org/2000/svg" xmlns:xlink="http://www.w3.org/1999/xlink" xmlns:a="http://ns.adobe.com/AdobeSVGViewerExtensions/3.0/" x="0px" y="0px" width="512px" height="512px" viewBox="0 0 512 512" overflow="visible" xml:space="preserve"> <defs> </defs> <g> <defs> <rect id="SVGID_2_" width="512" height="512"></rect> </defs> <path clip-path="url(#SVGID_3_)" fill="#96C253" d="M330.6,445.8c24.101-14-18.5-41.2-43.899-29.5C304,397.9,259.5,386,232.9,399 c16.8-66.9,37.6-97.8,69.699-115.8c46.101,31,89.301,9.2,174.5-69c-24.8,0.3-43-9.9-65.8-17.101c-16.399-5.199-33.8-6.8-50.8-4.3 c-43.8,6.2-64.3,26.9-72.4,70.7C250.7,308,236.9,336,223,385.9c-0.8-35-7.6-79.5-41.4-113.7c20.4-24.5,23.5-51.601-6-80.101 c-34-32.899-80.3-50-127.6-47c-4.4,0.301-8.8,0.801-13.2,1.601C54.8,167.3,47.9,169,79.4,229.6C84,238.5,90.1,246.8,97.3,253.8 c23.4,22.8,48.7,26.7,71.5,23.601c28.5,33.1,42.2,65.1,42.601,118c-2-1-4.101-1.801-6.5-2.601c-7.601-2.399-15.7-2.3-23.101,0.4 c-14.2,5.2-27.2,16.3-16.8,22.6c-30.9-13-63.9,22.7-53.1,30.2c-33,11.9-40.5,38.5-18.5,51.8c1.899,1.101,4,1.7,6.3,1.7h240.7 c1.6,0,3.199-0.3,4.699-1C373.7,486.4,381,457.6,330.6,445.8z"></path> </g> <g> <defs> <rect id="SVGID_1_" width="512" height="512"></rect> </defs> <path clip-path="url(#SVGID_4_)" fill="#96C253" d="M226.3,137c-13.399,0-25.5-4.3-34.2-9l-6.1,24c7.8,4.5,21.2,8.2,35,8.9v19.5 h20.2v-21c23.7-4.101,36.6-19.7,36.6-38.101c0-18.5-9.899-29.8-34.399-38.5c-17.5-6.6-24.7-10.899-24.7-17.7 c0-5.8,4.3-11.5,17.7-11.5c14.8,0,24.3,4.7,29.6,7l6-23.199c-6.8-3.301-16-6.2-29.8-6.801V12.5H222V32c-22,4.3-34.8,18.5-34.8,36.6 c0,19.9,15,30.2,37,37.601c15.2,5.1,21.8,10.1,21.8,17.899C246.1,132.4,238.1,137,226.3,137z"></path> </g> </svg>