<svg xmlns="http://www.w3.org/2000/svg" xmlns:xlink="http://www.w3.org/1999/xlink" width="110px" height="84px" viewBox="0 0 110 84"> <!-- Generator: Sketch 43.2 (39069) - http://www.bohemiancoding.com/sketch --> <title>monitor</title> <desc>Created with Sketch.</desc> <defs></defs> <g id="Icons" stroke="none" stroke-width="1" fill="none" fill-rule="evenodd"> <g transform="translate(-665.000000, -380.000000)" id="monitor"> <g transform="translate(665.000000, 354.000000)"> <rect id="Rectangle-path" x="0" y="0" width="110" height="110"></rect> <g id="1493782331_analysis-laptop-chart-graph" transform="translate(0.000000, 26.000000)" fill-rule="nonzero" fill="#97C355"> <path d="M106.691729,69.8613861 L103.029001,69.8613861 L103.029001,6.97326941 C103.029001,5.15503491 101.556584,3.67691506 99.7453652,3.67691506 L11.0817025,3.67691506 C9.27048335,3.67691506 7.7980666,5.15503491 7.7980666,6.97326941 L7.7980666,69.8613861 L4.13533835,69.8613861 L4.13533835,6.97326941 C4.13533835,3.12721626 7.25232009,0 11.0817025,0 L99.7453652,0 C103.574748,0 106.691729,3.12721626 106.691729,6.97326941 L106.691729,69.8613861" id="Fill-708"></path> <path d="M11.5789474,7.48514851 L100.075188,7.48514851 L100.075188,64.8712871 L11.5789474,64.8712871 L11.5789474,7.48514851 Z M15.2662907,61.1689556 L96.3878446,61.1689556 L96.3878446,11.18748 L15.2662907,11.18748 L15.2662907,61.1689556 Z" id="Fill-709"></path> <path d="M103.4275,84 L6.57066667,84 C2.948,84 0,80.9909703 0,77.2933069 L0,71.6794455 C0,70.2179703 1.16416667,69.029703 2.59416667,69.029703 L40.3333333,69.029703 C41.3453333,69.029703 42.1666667,69.8680396 42.1666667,70.9009901 C42.1666667,71.9320693 42.9898333,72.7722772 44,72.7722772 L67.8333333,72.7722772 C68.8435,72.7722772 69.6666667,71.9320693 69.6666667,70.9009901 C69.6666667,69.8680396 70.488,69.029703 71.5,69.029703 L107.404,69.029703 C108.835833,69.029703 110,70.2179703 110,71.6794455 L110,77.2933069 C110,80.9909703 107.052,84 103.4275,84 L103.4275,84 Z M3.66666667,72.7722772 L3.66666667,77.2933069 C3.66666667,78.9269406 4.97016667,80.2574257 6.57066667,80.2574257 L103.4275,80.2574257 C105.029833,80.2574257 106.333333,78.9269406 106.333333,77.2933069 L106.333333,72.7722772 L73.0198333,72.7722772 C72.2626667,74.9504554 70.224,76.5148515 67.8333333,76.5148515 L44,76.5148515 C41.6093333,76.5148515 39.5706667,74.9504554 38.8135,72.7722772 L3.66666667,72.7722772 L3.66666667,72.7722772 Z" id="Fill-710"></path> <path d="M31.4285714,57.3861386 C30.5154887,57.3861386 29.7744361,56.5599518 29.7744361,55.5419716 L29.7744361,16.8144641 C29.7744361,15.7964839 30.5154887,14.970297 31.4285714,14.970297 C32.3416541,14.970297 33.0827068,15.7964839 33.0827068,16.8144641 L33.0827068,55.5419716 C33.0827068,56.5599518 32.3416541,57.3861386 31.4285714,57.3861386" id="Fill-711"></path> <path d="M84.9933658,51.5643564 L25.8337019,51.5643564 C24.8131977,51.5643564 23.9849624,50.8191683 23.9849624,49.9009901 C23.9849624,48.9828119 24.8131977,48.2376238 25.8337019,48.2376238 L84.9933658,48.2376238 C86.01387,48.2376238 86.8421053,48.9828119 86.8421053,49.9009901 C86.8421053,50.8191683 86.01387,51.5643564 84.9933658,51.5643564" id="Fill-712"></path> <path d="M66.5923951,43.2460373 C66.5077138,43.2460373 66.4230325,43.2405128 66.3383512,43.2276224 C65.7087641,43.1410724 65.169381,42.7341031 64.9098144,42.1521923 L59.2288033,29.3648867 L53.5477922,42.1521923 C53.2587713,42.8040797 52.6199797,43.2294639 51.9075522,43.2460373 C51.1693521,43.2755011 50.5379241,42.8648489 50.2176079,42.2276934 L46.3425177,34.4731796 L42.4655866,42.2276934 C42.1544748,42.8519585 41.5175241,43.2460373 40.8198238,43.2460373 L31.615334,43.2460373 C30.5991584,43.2460373 29.7744361,42.4210498 29.7744361,41.4045474 C29.7744361,40.388045 30.5991584,39.5630575 31.615334,39.5630575 L39.6821489,39.5630575 L44.694914,29.5324622 C45.3189784,28.2839321 47.3660569,28.2839321 47.9882804,29.5324622 L51.7676439,37.0899367 L57.5462226,24.0834937 C57.8426072,23.4187159 58.5016486,22.9896487 59.2288033,22.9896487 C59.955958,22.9896487 60.6149995,23.4187159 60.9113841,24.0834937 L67.0728695,37.9517539 L83.587565,18.1281155 C84.237402,17.3473238 85.3990086,17.2405174 86.1795494,17.8924048 C86.9600901,18.5424507 87.0668622,19.7044308 86.4151843,20.4852225 L68.0062048,42.5831009 C67.6545933,43.0066436 67.1336191,43.2460373 66.5923951,43.2460373" id="Fill-713"></path> </g> </g> </g> </g> </svg>