<svg xmlns="http://www.w3.org/2000/svg" xmlns:xlink="http://www.w3.org/1999/xlink" width="102px" height="106px" viewBox="0 0 102 106"> <!-- Generator: Sketch 43.2 (39069) - http://www.bohemiancoding.com/sketch --> <title>mutually beneficial</title> <desc>Created with Sketch.</desc> <defs></defs> <g id="Icons" stroke="none" stroke-width="1" fill="none" fill-rule="evenodd"> <g transform="translate(-20.000000, -30.000000)" id="mutually-beneficial"> <g transform="translate(16.000000, 26.000000)"> <rect id="bg" x="0" y="0" width="110" height="110"></rect> <g id="mutual" transform="translate(4.000000, 4.000000)" fill-rule="nonzero" fill="#97C355"> <path d="M15.26,29.6058065 C23.5580645,29.6058065 30.3090323,22.9954839 30.3090323,14.8380645 C30.3090323,6.68064516 23.5580645,0 15.26,0 C6.96193548,0 0.210967742,6.61032258 0.210967742,14.7677419 C0.210967742,22.9251613 6.96193548,29.6058065 15.26,29.6058065 Z M15.26,2.81290323 C22.0109677,2.81290323 27.496129,8.15741935 27.496129,14.7677419 C27.496129,21.3780645 22.0109677,26.7225806 15.26,26.7225806 C8.50903226,26.7225806 3.02387097,21.3780645 3.02387097,14.7677419 C3.02387097,8.15741935 8.50903226,2.81290323 15.26,2.81290323 Z" id="Shape"></path> <path d="M85.3716129,29.6058065 C93.6696774,29.6058065 100.420645,22.9954839 100.420645,14.8380645 C100.420645,6.68064516 93.6696774,0.0703225806 85.3716129,0.0703225806 C77.0735484,-1.52655666e-15 70.3225806,6.61032258 70.3225806,14.7677419 C70.3225806,22.9251613 77.0735484,29.6058065 85.3716129,29.6058065 Z M97.6780645,14.7677419 C97.6780645,21.3780645 92.1929032,26.7225806 85.4419355,26.7225806 C78.6909677,26.7225806 73.1354839,21.3780645 73.1354839,14.7677419 C73.1354839,8.15741935 78.6206452,2.81290323 85.3716129,2.81290323 C92.1225806,2.81290323 97.6780645,8.15741935 97.6780645,14.7677419 Z" id="Shape"></path> <path d="M101.053548,47.6083871 L101.053548,47.4677419 L101.053548,46.6941935 C101.053548,46.5535484 101.053548,46.4129032 100.983226,46.3425806 C100.28,39.1696774 94.1619355,33.543871 86.6374194,33.543871 C78.6909677,33.543871 72.2212903,39.8729032 72.2212903,47.6787097 L72.2212903,52.7419355 L67.1580645,59.7741935 L53.5154839,59.7741935 L48.1006452,59.7741935 L34.4580645,59.7741935 L29.8870968,53.4451613 L29.8870968,47.6787097 C29.8870968,39.8729032 23.4174194,33.543871 15.4709677,33.543871 C7.52451613,33.543871 1.05483871,39.8729032 1.05483871,47.6787097 L1.05483871,88.7470968 L1.05483871,88.8174194 L1.05483871,88.9580645 L1.05483871,89.0987097 L1.05483871,89.1690323 L5.83677419,104.569677 C6.04774194,105.202581 6.61032258,105.554194 7.17290323,105.554194 C7.31354839,105.554194 7.45419355,105.554194 7.59483871,105.483871 C8.3683871,105.272903 8.72,104.499355 8.50903226,103.725806 L3.79741935,88.536129 L3.79741935,47.6083871 C3.79741935,41.3496774 9.00129032,36.2864516 15.4006452,36.2864516 C21.8,36.2864516 27.003871,41.3496774 27.003871,47.6083871 L27.003871,49.4367742 L22.7141935,43.4593548 C22.2922581,42.8264516 21.3780645,42.6858065 20.7451613,43.1077419 C20.2529032,43.4593548 20.0419355,44.1625806 20.2529032,44.7251613 C20.3232258,44.8658065 20.3232258,45.0064516 20.463871,45.0767742 L33.0516129,62.5167742 L48.1709677,62.5167742 L53.5858065,62.5167742 C55.836129,62.5167742 57.6645161,64.2748387 57.6645161,66.5251613 C57.6645161,68.7754839 55.836129,70.5335484 53.5858065,70.5335484 L48.1709677,70.5335484 L30.8716129,70.5335484 C29.5354839,70.5335484 28.2696774,69.9006452 27.496129,68.8458065 L12.1658065,47.6083871 L11.9548387,47.2567742 C11.5329032,46.623871 10.6187097,46.4832258 9.98580645,46.9754839 C9.35290323,47.3974194 9.21225806,48.3116129 9.70451613,48.9445161 L25.316129,70.5335484 C25.8083871,71.2367742 26.4412903,71.7993548 27.1445161,72.2916129 L27.1445161,88.8174194 L27.1445161,104.077419 C27.1445161,104.850968 27.7774194,105.483871 28.5509677,105.483871 C29.3245161,105.483871 29.9574194,104.850968 29.9574194,104.077419 L29.9574194,88.6767742 L29.9574194,73.2058065 C30.3090323,73.276129 30.6606452,73.276129 30.9419355,73.276129 L48.1709677,73.276129 L53.5858065,73.276129 L70.8148387,73.276129 C71.3070968,73.276129 71.7993548,73.2058065 72.2916129,73.1354839 L72.2916129,88.6767742 L72.2916129,104.077419 C72.2916129,104.850968 72.9245161,105.483871 73.6980645,105.483871 C74.4716129,105.483871 75.1045161,104.850968 75.1045161,104.077419 L75.1045161,88.6767742 L75.1045161,88.6767742 L75.1045161,47.6083871 C75.1045161,41.3496774 80.3083871,36.2864516 86.7077419,36.2864516 C93.0367742,36.2864516 98.1703226,41.2793548 98.3109677,47.4677419 L98.3109677,69.8303226 L92.0522581,88.6767742 L89.5206452,96.3419355 C88.9580645,97.9593548 87.4109677,99.0845161 85.6529032,99.0845161 C85.2309677,99.0845161 84.7387097,99.0141935 84.3167742,98.8735484 C83.2619355,98.5219355 82.4180645,97.8187097 81.9258065,96.8341935 C81.4335484,95.92 81.3632258,94.7948387 81.7148387,93.8103226 L83.4025806,88.7470968 L90.0832258,68.5645161 L90.0832258,44.3032258 C90.0832258,43.5296774 89.4503226,42.8967742 88.6767742,42.8967742 C87.9032258,42.8967742 87.2703226,43.5296774 87.2703226,44.3032258 L87.2703226,68.0722581 L80.4490323,88.6767742 L79.0425806,92.896129 C78.48,94.583871 78.5503226,96.4122581 79.3941935,98.0296774 C80.2380645,99.6470968 81.6445161,100.912903 83.4025806,101.475484 C84.1058065,101.686452 84.8793548,101.827097 85.5825806,101.827097 C88.536129,101.827097 91.2083871,99.9987097 92.1225806,97.1858065 L94.9354839,88.6064516 L98.2406452,78.6909677 L98.2406452,88.3954839 L98.1703226,88.6064516 L93.5290323,103.585161 C93.3180645,104.35871 93.74,105.132258 94.4432258,105.343226 C94.583871,105.413548 94.7245161,105.413548 94.8651613,105.413548 C95.4980645,105.413548 95.9903226,104.991613 96.2012903,104.429032 L100.983226,89.0283871 L100.983226,88.9580645 L100.983226,88.8174194 L100.983226,88.6767742 L100.983226,88.6064516 L101.053548,47.6083871 Z M59.1412903,70.5335484 C59.9851613,69.4083871 60.4774194,68.0019355 60.4774194,66.5251613 C60.4774194,65.0483871 59.9851613,63.6419355 59.1412903,62.5167742 L68.6348387,62.5167742 L72.2916129,57.4535484 L72.2916129,70.1819355 C71.7993548,70.3929032 71.3070968,70.4632258 70.8148387,70.4632258 L59.1412903,70.4632258 L59.1412903,70.5335484 Z" id="Shape"></path> </g> </g> </g> </g> </svg>