<svg xmlns="http://www.w3.org/2000/svg" xmlns:xlink="http://www.w3.org/1999/xlink" xmlns:a="http://ns.adobe.com/AdobeSVGViewerExtensions/3.0/" x="0px" y="0px" width="512px" height="512px" viewBox="0.03 0 512 512" overflow="visible" xml:space="preserve"> <defs> </defs> <g> <defs> <rect id="SVGID_1_" x="0.03" width="512" height="512"></rect> </defs> <path clip-path="url(#SVGID_2_)" fill="#97C355" d="M480.19,472.062H375.429v24.002H480.19V472.062z M464.24,432.05H359.479v24.002 H464.24V432.05z M480.008,392.036H377.077v24.002h102.931V392.036z M472.017,352.022H368.019v24.002h103.998V352.022z M480.16,312.01H375.399v24.002H480.16V312.01z M496.019,271.996H391.258v24.002h104.761V271.996z M479.886,231.982H375.125v21.41 c0,0.701,0.274,1.342,0.731,1.799l0.031,0.031c0.457,0.457,1.128,0.731,1.799,0.731h102.199v-24.002V231.982z M496.019,191.97 H391.258v24.001h104.761V191.97z M391.258,175.958H496.05c4.36,0,8.355,1.8,11.284,4.696l0.03,0.031 c2.865,2.896,4.696,6.893,4.696,11.284v24.032c0,4.392-1.8,8.418-4.696,11.314h-0.03c-2.897,2.867-6.893,4.697-11.284,4.697h-0.122 v24.002h0.122c4.36,0,8.355,1.799,11.284,4.696l0.03,0.03c2.865,2.897,4.696,6.893,4.696,11.284v24.032 c0,4.393-1.8,8.418-4.696,11.315h-0.03c-2.867,2.866-6.802,4.636-11.132,4.696v24.032c0,4.392-1.8,8.418-4.697,11.315h-0.03 c-1.067,1.037-2.257,1.951-3.568,2.684c0.062,0.641,0.122,1.312,0.122,2.013v24.032c0,0.702-0.061,1.403-0.152,2.074 c1.25,0.701,2.409,1.586,3.416,2.592l0.03,0.031c2.866,2.897,4.696,6.893,4.696,11.284v24.032c0,4.392-1.799,8.417-4.696,11.314 h-0.03c-2.867,2.837-6.771,4.605-11.041,4.697v24.002c4.361,0,8.356,1.799,11.224,4.696l0.03,0.03 c2.867,2.897,4.697,6.893,4.697,11.284v24.032c0,4.393-1.8,8.418-4.697,11.315h-0.03c-2.897,2.866-6.893,4.696-11.284,4.696 H375.399c-4.361,0-8.356-1.799-11.284-4.696h-0.03c-2.867-2.867-4.697-6.893-4.697-11.315v-24.032 c-4.361,0-8.356-1.799-11.223-4.696h-0.031c-2.866-2.867-4.696-6.893-4.696-11.314v-24.033c0-4.36,1.8-8.356,4.696-11.284v-0.03 c2.867-2.866,6.893-4.696,11.315-4.696h1.616v-24.002l0.061-1.556c-1.646-0.793-3.141-1.83-4.422-3.11h-0.03 c-2.867-2.867-4.697-6.893-4.697-11.315v-24.032c0-4.361,1.8-8.356,4.697-11.284v-0.03c0.854-0.854,1.83-1.616,2.866-2.287 c-0.122-0.793-0.183-1.586-0.183-2.41V312.07c0-4.361,1.8-8.356,4.696-11.284v-0.03c2.867-2.867,6.802-4.636,11.163-4.697v-24.001 v-0.153c-4.118-0.549-7.839-2.47-10.645-5.275l-0.03-0.031c-3.354-3.354-5.429-7.99-5.429-13.083v-21.44 c0-4.361,1.8-8.356,4.697-11.284v-0.03c2.866-2.867,6.892-4.697,11.314-4.697h0.122v-24.002c0-4.361,1.799-8.355,4.696-11.283 v-0.031c2.867-2.867,6.893-4.696,11.314-4.696V175.958z M303.638,472.002H200.036v24.002h103.602V472.002z M288.022,431.988 H184.024v24.002h103.998V431.988z M303.882,391.976h-87.529h-0.214h-16.103v24.002h103.846V391.976z M320.015,351.992h-15.768 h-0.213h-87.682v24.002h87.529h0.213h15.92V351.992z M304.034,312.01H199.273v24.002h16.865h0.214h87.682V312.01z M184.024,255.984 h104.791c4.361,0,8.356,1.8,11.284,4.697l0.03,0.03c2.867,2.897,4.697,6.893,4.697,11.284v24.032v0.03 c4.117,0.184,7.838,1.952,10.552,4.667v0.03c2.867,2.897,4.697,6.893,4.697,11.284v24.002c4.392,0,8.417,1.8,11.314,4.696 c2.867,2.867,4.697,6.893,4.697,11.315v24.032c0,4.392-1.8,8.417-4.697,11.314c-2.866,2.867-6.893,4.697-11.314,4.697h-0.152V416.1 c0,4.392-1.8,8.417-4.697,11.314c-2.866,2.866-6.831,4.636-11.162,4.696v24.032c4.239,0.092,8.112,1.892,10.918,4.667v0.03 c2.867,2.897,4.697,6.893,4.697,11.284v24.032c0,4.392-1.8,8.418-4.697,11.314c-2.866,2.867-6.893,4.697-11.314,4.697H200.036 c-4.393,0-8.418-1.8-11.314-4.697c-2.867-2.866-4.697-6.893-4.697-11.314v-24.032c-4.361,0-8.356-1.8-11.284-4.697h-0.03 c-2.867-2.866-4.697-6.892-4.697-11.314V432.08c0-4.361,1.8-8.356,4.697-11.284v-0.03c2.867-2.867,6.893-4.697,11.314-4.697 v-24.002c0-4.361,1.799-8.356,4.697-11.284v-0.03c2.866-2.867,6.893-4.696,11.314-4.696h0.336v-24.002h-1.099 c-4.392,0-8.417-1.8-11.314-4.697c-2.867-2.866-4.696-6.893-4.696-11.314V312.01v-0.03c-4.088-0.214-7.777-1.952-10.522-4.667 h-0.03c-2.867-2.866-4.697-6.893-4.697-11.314v-24.032c0-4.361,1.8-8.356,4.697-11.284v-0.03c2.867-2.867,6.893-4.697,11.314-4.697 V255.984z M288.785,271.996H184.024v24.002h104.761V271.996z M144.011,472.002H40.013v24.002h103.998V472.002z M121.991,431.988 H16.011v24.002h105.98V431.988z M144.011,391.976H40.013v24.002h103.998V391.976z M129.098,351.962H24.337v24.002h104.761V351.962z M142.853,311.948H38.092v24.002h104.761V311.948z M38.092,295.938h104.791c4.361,0,8.356,1.799,11.284,4.696l0.031,0.03 c2.866,2.897,4.695,6.893,4.695,11.284v24.032c0,4.393-1.799,8.418-4.695,11.315h-0.031c-2.409,2.379-5.551,4.025-9.027,4.514 v0.152v24.032v0.03c3.934,0.274,7.533,2.014,10.187,4.636l0.03,0.031c2.867,2.896,4.697,6.893,4.697,11.284v24.032 c0,4.392-1.8,8.417-4.697,11.314h-0.03c-2.897,2.867-6.893,4.697-11.284,4.697h-6.008v24.001h6.008c4.361,0,8.355,1.8,11.284,4.697 l0.03,0.03c2.867,2.897,4.697,6.893,4.697,11.284v24.032c0,4.392-1.8,8.418-4.697,11.315h-0.03 c-2.897,2.866-6.893,4.696-11.284,4.696H40.044c-4.361,0-8.357-1.799-11.285-4.696h-0.029c-2.867-2.867-4.697-6.893-4.697-11.315 v-24.032h-8.021c-4.391,0-8.417-1.799-11.314-4.696C1.829,464.469,0,460.443,0,456.021v-24.032c0-4.361,1.8-8.356,4.696-11.284 v-0.03c2.867-2.867,6.893-4.696,11.314-4.696h8.021v-24.002c-4.239-0.092-8.143-1.86-10.979-4.697h-0.03 c-2.867-2.866-4.697-6.893-4.697-11.314v-24.032c0-4.361,1.8-8.356,4.697-11.284v-0.031c2.379-2.378,5.551-4.025,9.058-4.514 v-0.152v-24.032c0-4.361,1.8-8.356,4.696-11.284v-0.03c2.867-2.867,6.893-4.697,11.315-4.697V295.938z M58.099,247.689 c-4.27,1.129-8.631-1.403-9.79-5.673c-1.128-4.27,1.403-8.631,5.673-9.79l203.665-54.835l26.747-91.646 c0.823-2.866,3.141-4.91,5.886-5.551L447.74,43.597l-51.571-28.638c-3.843-2.135-5.216-6.984-3.081-10.826 c2.135-3.844,6.984-5.215,10.827-3.08l72.006,40.013c3.781,2.104,5.185,6.831,3.172,10.644l-31.932,63.863 c-1.952,3.934-6.771,5.52-10.675,3.568c-3.934-1.952-5.52-6.771-3.567-10.675l25.466-50.932L298.392,94.742l-26.533,90.914 c-0.609,2.867-2.744,5.276-5.764,6.069L58.099,247.72V247.689z"></path> </g> </svg>