<?xml version="1.0" encoding="UTF-8"?>
<svg width="999px" height="490px" viewBox="0 0 999 490" version="1.1" xmlns="http://www.w3.org/2000/svg" xmlns:xlink="http://www.w3.org/1999/xlink">
    <!-- Generator: Sketch 47.1 (45422) - http://www.bohemiancoding.com/sketch -->
    <title>RBF Chart</title>
    <desc>Created with Sketch.</desc>
    <defs></defs>
    <g id="Infographics" stroke="none" stroke-width="1" fill="none" fill-rule="evenodd">
        <g id="RBF-Chart">
            <g>
                <g id="Group-14" transform="translate(188.405797, 0.000000)">
                    <g id="Group" transform="translate(0.000000, 246.914614)">
                        <rect id="Rectangle" fill="#03AAC4" x="0" y="0" width="52.4211331" height="209.260573"></rect>
                        <rect id="Rectangle" fill="#3B3B3C" x="0" y="0" width="52.4211331" height="7.48226103"></rect>
                    </g>
                    <g id="Group-2" transform="translate(63.154984, 219.978474)">
                        <rect id="Rectangle" fill="#03AAC4" x="0" y="0" width="52.4211331" height="235.418145"></rect>
                        <rect id="Rectangle" fill="#3B3B3C" x="0" y="0" width="52.4211331" height="8.41754366"></rect>
                    </g>
                    <g id="Group-3" transform="translate(126.309968, 154.134577)">
                        <rect id="Rectangle" fill="#03AAC4" x="0" y="0" width="52.4211331" height="300.812074"></rect>
                        <rect id="Rectangle" fill="#3B3B3C" x="0" y="0" width="52.4211331" height="10.7557502"></rect>
                    </g>
                    <g id="Group-4" transform="translate(189.464953, 110.737463)">
                        <rect id="Rectangle" fill="#03AAC4" x="0" y="0" width="52.4211331" height="345.279946"></rect>
                        <rect id="Rectangle" fill="#3B3B3C" x="0" y="0" width="52.4211331" height="12.3457307"></rect>
                    </g>
                    <g id="Group-5" transform="translate(252.619937, 0.000000)">
                        <rect id="Rectangle" fill="#03AAC4" x="0" y="0" width="52.4211331" height="455.141747"></rect>
                        <rect id="Rectangle" fill="#3B3B3C" x="0" y="0" width="52.4211331" height="16.2739177"></rect>
                    </g>
                    <g id="Group-6" transform="translate(315.774921, 37.411305)">
                        <rect id="Rectangle" fill="#03AAC4" x="0" y="0" width="52.4211331" height="417.835046"></rect>
                        <rect id="Rectangle" fill="#3B3B3C" x="0" y="0" width="52.4211331" height="14.9399901"></rect>
                    </g>
                    <g id="Group-7" transform="translate(378.929905, 62.850993)">
                        <rect id="Rectangle" fill="#03AAC4" x="0" y="0" width="52.4211331" height="392.363575"></rect>
                        <rect id="Rectangle" fill="#3B3B3C" x="0" y="0" width="52.4211331" height="14.0292394"></rect>
                    </g>
                    <g id="Group-8" transform="translate(442.084889, 94.276489)">
                        <rect id="Rectangle" fill="#03AAC4" x="0" y="0" width="52.4211331" height="360.974489"></rect>
                        <rect id="Rectangle" fill="#3B3B3C" x="0" y="0" width="52.4211331" height="12.9069003"></rect>
                    </g>
                    <g id="Group-9" transform="translate(505.239874, 178.077813)">
                        <rect id="Rectangle" fill="#03AAC4" x="0" y="0" width="52.4211331" height="277.27026"></rect>
                        <rect id="Rectangle" fill="#3B3B3C" x="0" y="0" width="52.4211331" height="9.91399587"></rect>
                    </g>
                    <g id="Group-10" transform="translate(568.394858, 136.177151)">
                        <rect id="Rectangle" fill="#03AAC4" x="0" y="0" width="52.4211331" height="319.329563"></rect>
                        <rect id="Rectangle" fill="#3B3B3C" x="0" y="0" width="52.4211331" height="11.4178563"></rect>
                    </g>
                    <g id="Group-11" transform="translate(631.549842, 50.879375)">
                        <rect id="Rectangle" fill="#03AAC4" x="0" y="0" width="52.4211331" height="405.442361"></rect>
                        <rect id="Rectangle" fill="#3B3B3C" x="0" y="0" width="52.4211331" height="14.4968807"></rect>
                    </g>
                    <g id="Group-11" transform="translate(694.704826, 94.276489)">
                        <rect id="Rectangle" fill="#03AAC4" x="0" y="0" width="52.4211331" height="362.05554"></rect>
                        <rect id="Rectangle" fill="#3B3B3C" x="0" y="0" width="52.4211331" height="12.945554"></rect>
                    </g>
                    <g id="Group-11" transform="translate(757.859811, 50.879375)">
                        <rect id="Rectangle" fill="#03AAC4" x="0" y="0" width="52.4211331" height="405.442361"></rect>
                        <rect id="Rectangle" fill="#3B3B3C" x="0" y="0" width="52.4211331" height="14.4968807"></rect>
                    </g>
                </g>
                <g id="Group-12" transform="translate(2.207729, 49.516908)">
                    <path d="M8.36332677,59.0445518 L2.78131537,43.2037173 L2.6759944,43.2037173 C2.82519986,45.5562855 2.89980146,47.761785 2.89980146,49.8202821 L2.89980146,59.0445518 L0.0429701592,59.0445518 L0.0429701592,40.0770661 L4.47961601,40.0770661 L9.82465523,55.1654285 L9.90364596,55.1654285 L15.4066666,40.0770661 L19.8564776,40.0770661 L19.8564776,59.0445518 L16.8284997,59.0445518 L16.8284997,49.6645982 C16.8284997,48.7218411 16.8526355,47.4936806 16.9009079,45.9800798 C16.9491802,44.466479 16.9908694,43.5496831 17.0259765,43.2296646 L16.9206556,43.2296646 L11.1411674,59.0445518 L8.36332677,59.0445518 Z M37.5109052,51.8441725 C37.5109052,54.1880915 36.9009273,56.0173587 35.6809533,57.3320292 C34.4609793,58.6466996 32.7626957,59.3040249 30.5860514,59.3040249 C29.2256487,59.3040249 28.0232464,59.0013093 26.9788082,58.395869 C25.93437,57.7904287 25.1313056,56.9212024 24.569591,55.788164 C24.0078764,54.6551257 23.7270232,53.340475 23.7270232,51.8441725 C23.7270232,49.5175518 24.3326128,47.7012581 25.54381,46.3952368 C26.7550072,45.0892155 28.4620675,44.4362147 30.6650421,44.4362147 C32.7714721,44.4362147 34.4390374,45.1043513 35.6677882,46.4406446 C36.896539,47.7769379 37.5109052,49.5780958 37.5109052,51.8441725 Z M26.9129826,51.8441725 C26.9129826,55.156796 28.1548799,56.8130829 30.6387119,56.8130829 C33.0962135,56.8130829 34.3249458,55.156796 34.3249458,51.8441725 C34.3249458,48.5661456 33.0874368,46.9271567 30.6123816,46.9271567 C29.3134165,46.9271567 28.3721198,47.3509586 27.7884631,48.198575 C27.2048065,49.0461915 26.9129826,50.2613785 26.9129826,51.8441725 Z M53.8751508,59.0445518 L50.7681822,59.0445518 L50.7681822,50.2224654 C50.7681822,49.1153746 50.5421832,48.2893934 50.0901785,47.7444971 C49.6381737,47.1996008 48.9206818,46.9271567 47.9376812,46.9271567 C46.6299393,46.9271567 45.6732833,47.3077135 45.0676847,48.0688385 C44.4620861,48.8299635 44.1592914,50.1056936 44.1592914,51.8960671 L44.1592914,59.0445518 L41.0654879,59.0445518 L41.0654879,44.6956878 L43.4878702,44.6956878 L43.9223192,46.576868 L44.0803007,46.576868 C44.5191402,45.8935853 45.1422831,45.3659953 45.9497479,44.9940819 C46.7572127,44.6221686 47.652432,44.4362147 48.6354326,44.4362147 C52.1285956,44.4362147 53.8751508,46.1876408 53.8751508,49.6905455 L53.8751508,59.0445518 Z M63.6041754,56.8390302 C64.3589795,56.8390302 65.1137722,56.7222685 65.8685763,56.4887415 L65.8685763,58.7850787 C65.5262814,58.9321142 65.0852543,59.0553627 64.5454816,59.1548279 C64.0057089,59.2542931 63.4461969,59.3040249 62.8669286,59.3040249 C59.9354803,59.3040249 58.4697782,57.7817978 58.4697782,54.7372979 L58.4697782,47.0049987 L56.4818448,47.0049987 L56.4818448,45.6557384 L58.6145945,44.5400039 L59.6678042,41.5041683 L61.5767468,41.5041683 L61.5767468,44.6956878 L65.7237599,44.6956878 L65.7237599,47.0049987 L61.5767468,47.0049987 L61.5767468,54.6854032 C61.5767468,55.4205808 61.7632508,55.9633067 62.1362644,56.3135971 C62.509278,56.6638876 62.9985768,56.8390302 63.6041754,56.8390302 Z M81.587731,59.0445518 L78.4807624,59.0445518 L78.4807624,50.2224654 C78.4807624,49.1153746 78.2547634,48.2893934 77.8027587,47.7444971 C77.3507539,47.1996008 76.633262,46.9271567 75.6502613,46.9271567 C74.3512962,46.9271567 73.3968345,47.3098758 72.7868475,48.0753253 C72.1768605,48.8407749 71.8718716,50.1229918 71.8718716,51.9220144 L71.8718716,59.0445518 L68.7780681,59.0445518 L68.7780681,38.8575424 L71.8718716,38.8575424 L71.8718716,43.9821367 C71.8718716,44.8038057 71.8192116,45.681681 71.7138901,46.615789 L71.9113669,46.615789 C72.3326529,45.9238572 72.9184949,45.3876181 73.6689106,45.0070556 C74.4193263,44.6264931 75.2947981,44.4362147 76.2953523,44.4362147 C79.8236224,44.4362147 81.587731,46.1876408 81.587731,49.6905455 L81.587731,59.0445518 Z M88.9865291,59.0445518 L85.8927257,59.0445518 L85.8927257,38.8575424 L88.9865291,38.8575424 L88.9865291,59.0445518 Z M91.1982695,44.6956878 L94.5685405,44.6956878 L97.5306928,52.8301704 C97.9783092,53.9891561 98.2767156,55.0789324 98.4259211,56.0995318 L98.531242,56.0995318 C98.6102332,55.6238287 98.755048,55.0465067 98.965691,54.3675487 C99.176334,53.6885906 100.29097,50.4646692 102.309632,44.6956878 L105.653573,44.6956878 L99.4264703,60.9516793 C98.2942642,63.9356352 96.4072824,65.4275907 93.7654682,65.4275907 C93.0808784,65.4275907 92.4138523,65.3540741 91.7643697,65.2070386 L91.7643697,62.7939385 C92.2295397,62.8977283 92.7605276,62.9496224 93.3573494,62.9496224 C94.8494039,62.9496224 95.8982148,62.0976941 96.5038134,60.3938121 L97.0435833,59.0445518 L91.1982695,44.6956878 Z M127.942123,45.8114223 C127.942123,47.792077 127.283873,49.3099797 125.967355,50.3651757 C124.650836,51.4203717 122.777019,51.9479617 120.345848,51.9479617 L118.344749,51.9479617 L118.344749,59.0445518 L115.198286,59.0445518 L115.198286,40.0770661 L120.740802,40.0770661 C123.145642,40.0770661 124.947052,40.5614111 126.145084,41.5301157 C127.343116,42.4988202 127.942123,43.9259081 127.942123,45.8114223 Z M118.344749,49.3402568 L120.01672,49.3402568 C121.631649,49.3402568 122.816499,49.0634882 123.571303,48.5099428 C124.326107,47.9563974 124.703503,47.0914956 124.703503,45.9152115 C124.703503,44.8254189 124.365602,44.0124113 123.689789,43.4761641 C123.013976,42.939917 121.960777,42.6717974 120.53016,42.6717974 L118.344749,42.6717974 L118.344749,49.3402568 Z M140.567474,59.0445518 L139.948713,57.0466087 L139.843392,57.0466087 C139.141249,57.9201726 138.434728,58.5147926 137.723808,58.8304865 C137.012888,59.1461804 136.100115,59.3040249 134.985463,59.3040249 C133.554846,59.3040249 132.438016,58.9234681 131.634939,58.1623432 C130.831863,57.4012182 130.430331,56.3244155 130.430331,54.9319027 C130.430331,53.4528985 130.987649,52.3371752 132.102301,51.5846994 C133.216954,50.8322235 134.915237,50.4213952 137.197203,50.352202 L139.711741,50.2743601 L139.711741,49.5089143 C139.711741,48.5921047 139.494519,47.90667 139.060068,47.4525898 C138.625617,46.9985096 137.952008,46.7714728 137.039222,46.7714728 C136.293194,46.7714728 135.577897,46.8795856 134.893307,47.0958143 C134.208717,47.3120429 133.550468,47.567189 132.918539,47.86126 L131.917989,45.6816857 C132.707901,45.2751758 133.572402,44.9659734 134.511518,44.7540693 C135.450635,44.5421652 136.337078,44.4362147 137.170873,44.4362147 C139.022776,44.4362147 140.420459,44.8340695 141.363964,45.6297911 C142.307469,46.4255127 142.779214,47.6752957 142.779214,49.3791778 L142.779214,59.0445518 L140.567474,59.0445518 Z M135.959682,56.9687668 C137.083111,56.9687668 137.984913,56.6595644 138.665114,56.0411503 C139.345315,55.4227363 139.685411,54.5556723 139.685411,53.4399322 L139.685411,52.1944612 L137.815964,52.2723032 C136.359016,52.324198 135.299235,52.5642083 134.636587,52.9923411 C133.973939,53.4204739 133.64262,54.075637 133.64262,54.95785 C133.64262,55.5978869 133.835707,56.0930432 134.221886,56.4433337 C134.608064,56.7936242 135.187324,56.9687668 135.959682,56.9687668 Z M144.885634,44.6956878 L148.255905,44.6956878 L151.218057,52.8301704 C151.665674,53.9891561 151.96408,55.0789324 152.113285,56.0995318 L152.218606,56.0995318 C152.297598,55.6238287 152.442412,55.0465067 152.653055,54.3675487 C152.863698,53.6885906 153.978334,50.4646692 155.996996,44.6956878 L159.340937,44.6956878 L153.113835,60.9516793 C151.981629,63.9356352 150.094647,65.4275907 147.452833,65.4275907 C146.768243,65.4275907 146.101217,65.3540741 145.451734,65.2070386 L145.451734,62.7939385 C145.916904,62.8977283 146.447892,62.9496224 147.044714,62.9496224 C148.536768,62.9496224 149.585579,62.0976941 150.191178,60.3938121 L150.730948,59.0445518 L144.885634,44.6956878 Z M173.82257,59.0445518 L170.715602,59.0445518 L170.715602,50.1965181 C170.715602,49.0980764 170.504962,48.278582 170.083676,47.7380102 C169.66239,47.1974385 169.00414,46.9271567 168.108908,46.9271567 C166.915264,46.9271567 166.039792,47.3098758 165.482466,48.0753253 C164.92514,48.8407749 164.646481,50.1143427 164.646481,51.8960671 L164.646481,59.0445518 L161.552677,59.0445518 L161.552677,44.6956878 L163.97506,44.6956878 L164.409509,46.576868 L164.56749,46.576868 C164.971222,45.8935853 165.557065,45.3659953 166.325034,44.9940819 C167.093003,44.6221686 167.937757,44.4362147 168.85932,44.4362147 C171.097401,44.4362147 172.580657,45.1886792 173.309131,46.6936309 L173.519773,46.6936309 C173.949835,45.9844008 174.555425,45.4308637 175.336559,45.0330029 C176.117694,44.6351421 177.012913,44.4362147 178.022244,44.4362147 C179.760049,44.4362147 181.026082,44.8686656 181.820381,45.7335803 C182.614681,46.5984951 183.011825,47.9174703 183.011825,49.6905455 L183.011825,59.0445518 L179.918021,59.0445518 L179.918021,50.1965181 C179.918021,49.0980764 179.705187,48.278582 179.279513,47.7380102 C178.853839,47.1974385 178.193395,46.9271567 177.298162,46.9271567 C176.095742,46.9271567 175.215882,47.2969022 174.658556,48.0364043 C174.101229,48.7759065 173.82257,49.91109 173.82257,51.4419891 L173.82257,59.0445518 Z M193.688738,59.3040249 C191.424326,59.3040249 189.653635,58.6531863 188.376612,57.3514896 C187.099589,56.0497929 186.461087,54.257284 186.461087,51.9739091 C186.461087,49.6299901 187.053511,47.7877493 188.238378,46.4471314 C189.423245,45.1065136 191.051315,44.4362147 193.122638,44.4362147 C195.044755,44.4362147 196.563117,45.0113744 197.67777,46.161711 C198.792422,47.3120476 199.34974,48.8948179 199.34974,50.9100692 L199.34974,52.5577236 L189.647046,52.5577236 C189.69093,53.9502363 190.072715,55.0205523 190.792412,55.7687036 C191.512108,56.5168548 192.525813,56.8909248 193.833555,56.8909248 C194.69368,56.8909248 195.49455,56.8109214 196.236189,56.6509122 C196.977828,56.490903 197.77431,56.2249457 198.625659,55.8530323 L198.625659,58.3310007 C197.870855,58.6856157 197.107285,58.9364373 196.334928,59.0834728 C195.56257,59.2305083 194.680516,59.3040249 193.688738,59.3040249 Z M193.122638,46.7455255 C192.139637,46.7455255 191.351932,47.0525657 190.759499,47.6666551 C190.167065,48.2807446 189.813805,49.1759179 189.699707,50.352202 L196.308597,50.352202 C196.291044,49.1672688 196.001414,48.2699332 195.439699,47.6601683 C194.877985,47.0504034 194.105639,46.7455255 193.122638,46.7455255 Z M215.674491,59.0445518 L212.567522,59.0445518 L212.567522,50.2224654 C212.567522,49.1153746 212.341523,48.2893934 211.889518,47.7444971 C211.437514,47.1996008 210.720022,46.9271567 209.737021,46.9271567 C208.429279,46.9271567 207.472623,47.3077135 206.867025,48.0688385 C206.261426,48.8299635 205.958631,50.1056936 205.958631,51.8960671 L205.958631,59.0445518 L202.864828,59.0445518 L202.864828,44.6956878 L205.28721,44.6956878 L205.721659,46.576868 L205.87964,46.576868 C206.31848,45.8935853 206.941623,45.3659953 207.749088,44.9940819 C208.556553,44.6221686 209.451772,44.4362147 210.434772,44.4362147 C213.927935,44.4362147 215.674491,46.1876408 215.674491,49.6905455 L215.674491,59.0445518 Z M225.403515,56.8390302 C226.158319,56.8390302 226.913112,56.7222685 227.667916,56.4887415 L227.667916,58.7850787 C227.325621,58.9321142 226.884594,59.0553627 226.344821,59.1548279 C225.805049,59.2542931 225.245537,59.3040249 224.666268,59.3040249 C221.73482,59.3040249 220.269118,57.7817978 220.269118,54.7372979 L220.269118,47.0049987 L218.281185,47.0049987 L218.281185,45.6557384 L220.413934,44.5400039 L221.467144,41.5041683 L223.376087,41.5041683 L223.376087,44.6956878 L227.5231,44.6956878 L227.5231,47.0049987 L223.376087,47.0049987 L223.376087,54.6854032 C223.376087,55.4205808 223.562591,55.9633067 223.935604,56.3135971 C224.308618,56.6638876 224.797917,56.8390302 225.403515,56.8390302 Z" id="Monthly-Payment" fill="#3B3B3C"></path>
                    <path d="M0.0429701592,1.69810747 L5.75663277,1.69810747 C8.40722376,1.69810747 10.3227297,2.07866425 11.5032082,2.83978923 C12.6836866,3.60091422 13.273917,4.80312769 13.273917,6.44646571 C13.273917,7.5535566 12.9842872,8.47467699 12.405019,9.20985453 C11.8257508,9.94503207 10.9919681,10.4077545 9.90364596,10.5980358 L9.90364596,10.7277723 C11.2552718,10.9785976 12.2492285,11.4737539 12.8855459,12.213256 C13.5218633,12.9527581 13.8400172,13.9538819 13.8400172,15.2166574 C13.8400172,16.9205395 13.2366218,18.2546505 12.029813,19.2190304 C10.8230042,20.1834104 9.14446805,20.6655931 6.99415417,20.6655931 L0.0429701592,20.6655931 L0.0429701592,1.69810747 Z M3.18943413,9.53419594 L6.21741201,9.53419594 C7.53393072,9.53419594 8.49497496,9.32878177 9.10057356,8.91794726 C9.70617217,8.50711275 10.0089669,7.80870457 10.0089669,6.82270175 C10.0089669,5.93183956 9.68203635,5.28748773 9.02816539,4.88962695 C8.37429444,4.49176616 7.33645443,4.29283875 5.91461423,4.29283875 L3.18943413,4.29283875 L3.18943413,9.53419594 Z M3.18943413,12.0510853 L3.18943413,18.0578882 L6.53337492,18.0578882 C7.84989363,18.0578882 8.84385034,17.8092289 9.51527488,17.3119029 C10.1866994,16.814577 10.5224067,16.0296786 10.5224067,14.9571843 C10.5224067,13.9711815 10.1801169,13.2403395 9.4955272,12.7646364 C8.81093747,12.2889333 7.7709033,12.0510853 6.37539347,12.0510853 L3.18943413,12.0510853 Z M27.7818806,20.6655931 L27.3474316,18.784413 L27.1894501,18.784413 C26.7593873,19.4503973 26.1472153,19.9736629 25.3529157,20.3542254 C24.5586161,20.7347879 23.652426,20.9250663 22.6343182,20.9250663 C20.8701831,20.9250663 19.5536842,20.4926154 18.6847818,19.6277006 C17.8158795,18.7627859 17.3814348,17.4524597 17.3814348,15.6966827 L17.3814348,6.31672915 L20.5015685,6.31672915 L20.5015685,15.1647628 C20.5015685,16.2632045 20.7297617,17.0870235 21.1861548,17.6362444 C21.642548,18.1854652 22.3578458,18.4600715 23.3320696,18.4600715 C24.6310347,18.4600715 25.5854965,18.0773525 26.1954835,17.3119029 C26.8054705,16.5464534 27.1104594,15.2642365 27.1104594,13.4652138 L27.1104594,6.31672915 L30.217428,6.31672915 L30.217428,20.6655931 L27.7818806,20.6655931 Z M44.4094287,16.5788914 C44.4094287,17.9800533 43.8916058,19.0546937 42.8559444,19.802845 C41.820283,20.5509962 40.3370275,20.9250663 38.4061334,20.9250663 C36.4664625,20.9250663 34.9086054,20.6353242 33.7325154,20.0558313 L33.7325154,17.422179 C35.4439897,18.2006023 37.0369534,18.5898081 38.5114544,18.5898081 C40.4160181,18.5898081 41.3682857,18.0232974 41.3682857,16.8902591 C41.3682857,16.5269949 41.2629658,16.2242793 41.0523228,15.9821032 C40.8416798,15.739927 40.4950017,15.4891055 40.0122782,15.2296311 C39.5295547,14.9701567 38.8581402,14.6760901 37.9980146,14.3474225 C36.3216475,13.7073855 35.1872642,13.0673582 34.5948308,12.4273213 C34.0023974,11.7872844 33.7061851,10.9569787 33.7061851,9.93637929 C33.7061851,8.70820034 34.2086489,7.75464613 35.2135915,7.07568805 C36.2185341,6.39672997 37.5854989,6.05725602 39.3145268,6.05725602 C41.0260011,6.05725602 42.6452948,6.39889222 44.1724565,7.08217488 L43.1719073,9.37851206 C41.6008616,8.73847514 40.2799743,8.41846149 39.2092058,8.41846149 C37.5767226,8.41846149 36.7604933,8.87685943 36.7604933,9.79366907 C36.7604933,10.2434247 36.9733273,10.6239815 37.3990016,10.9353508 C37.824676,11.2467201 38.7528078,11.6748465 40.1834248,12.2197428 C41.3858452,12.6781476 42.2591228,13.097625 42.8032839,13.4781875 C43.347445,13.85875 43.7511713,14.2976876 44.014475,14.7950136 C44.2777788,15.2923396 44.4094287,15.8869596 44.4094287,16.5788914 Z M50.847173,20.6655931 L47.7533695,20.6655931 L47.7533695,6.31672915 L50.847173,6.31672915 L50.847173,20.6655931 Z M47.5690578,2.51544782 C47.5690578,1.97055153 47.7204552,1.55107417 48.0232545,1.25700315 C48.3260538,0.962932138 48.7583043,0.815898836 49.3200189,0.815898836 C49.86418,0.815898836 50.2876538,0.962932138 50.5904531,1.25700315 C50.8932524,1.55107417 51.0446498,1.97055153 51.0446498,2.51544782 C51.0446498,3.03439668 50.8932524,3.44306277 50.5904531,3.74145835 C50.2876538,4.03985394 49.86418,4.1890495 49.3200189,4.1890495 C48.7583043,4.1890495 48.3260538,4.03985394 48.0232545,3.74145835 C47.7204552,3.44306277 47.5690578,3.03439668 47.5690578,2.51544782 Z M68.0803166,20.6655931 L64.973348,20.6655931 L64.973348,11.8435068 C64.973348,10.7364159 64.747349,9.9104347 64.2953443,9.3655384 C63.8433395,8.82064211 63.1258476,8.54819805 62.142847,8.54819805 C60.8351051,8.54819805 59.8784491,8.92875483 59.2728505,9.68987981 C58.6672519,10.4510048 58.3644572,11.7267349 58.3644572,13.5171085 L58.3644572,20.6655931 L55.2706537,20.6655931 L55.2706537,6.31672915 L57.693036,6.31672915 L58.127485,8.19790933 L58.2854665,8.19790933 C58.724306,7.51462667 59.3474489,6.98703659 60.1549137,6.61512325 C60.9623785,6.2432099 61.8575978,6.05725602 62.8405984,6.05725602 C66.3337614,6.05725602 68.0803166,7.80868212 68.0803166,11.3115869 L68.0803166,20.6655931 Z M78.7440648,20.9250663 C76.4796527,20.9250663 74.7089616,20.2742277 73.4319384,18.972531 C72.1549153,17.6708343 71.5164133,15.8783253 71.5164133,13.5949504 C71.5164133,11.2510314 72.1088378,9.40879063 73.2937046,8.06817276 C74.4785715,6.7275549 76.1066419,6.05725602 78.1779646,6.05725602 C80.1000819,6.05725602 81.6184441,6.6324157 82.7330966,7.78275232 C83.8477491,8.93308894 84.405067,10.5158592 84.405067,12.5311106 L84.405067,14.1787649 L74.7023726,14.1787649 C74.7462566,15.5712777 75.1280413,16.6415936 75.8477382,17.3897449 C76.5674351,18.1378961 77.5811393,18.5119662 78.8888812,18.5119662 C79.7490067,18.5119662 80.5498769,18.4319628 81.2915158,18.2719535 C82.0331547,18.1119443 82.8296365,17.845987 83.6809853,17.4740737 L83.6809853,19.952042 C82.9261812,20.3066571 82.1626118,20.5574786 81.3902542,20.7045141 C80.6178966,20.8515496 79.7358423,20.9250663 78.7440648,20.9250663 Z M78.1779646,8.36656686 C77.194964,8.36656686 76.4072588,8.67360699 75.8148254,9.28769647 C75.2223919,9.90178594 74.8691314,10.7969593 74.7550331,11.9732433 L81.363924,11.9732433 C81.3463704,10.7883101 81.0567406,9.89097454 80.495026,9.28120964 C79.9333113,8.67144474 79.1609653,8.36656686 78.1779646,8.36656686 Z M97.7018394,16.5788914 C97.7018394,17.9800533 97.1840165,19.0546937 96.1483551,19.802845 C95.1126937,20.5509962 93.6294382,20.9250663 91.6985441,20.9250663 C89.7588732,20.9250663 88.2010161,20.6353242 87.0249261,20.0558313 L87.0249261,17.422179 C88.7364004,18.2006023 90.3293641,18.5898081 91.8038651,18.5898081 C93.7084288,18.5898081 94.6606964,18.0232974 94.6606964,16.8902591 C94.6606964,16.5269949 94.5553765,16.2242793 94.3447335,15.9821032 C94.1340905,15.739927 93.7874124,15.4891055 93.3046889,15.2296311 C92.8219654,14.9701567 92.1505509,14.6760901 91.2904254,14.3474225 C89.6140582,13.7073855 88.4796749,13.0673582 87.8872415,12.4273213 C87.2948081,11.7872844 86.9985958,10.9569787 86.9985958,9.93637929 C86.9985958,8.70820034 87.5010596,7.75464613 88.5060022,7.07568805 C89.5109448,6.39672997 90.8779096,6.05725602 92.6069375,6.05725602 C94.3184118,6.05725602 95.9377055,6.39889222 97.4648672,7.08217488 L96.464318,9.37851206 C94.8932723,8.73847514 93.5723851,8.41846149 92.5016165,8.41846149 C90.8691333,8.41846149 90.052904,8.87685943 90.052904,9.79366907 C90.052904,10.2434247 90.265738,10.6239815 90.6914123,10.9353508 C91.1170867,11.2467201 92.0452185,11.6748465 93.4758355,12.2197428 C94.6782559,12.6781476 95.5515335,13.097625 96.0956946,13.4781875 C96.6398557,13.85875 97.043582,14.2976876 97.3068858,14.7950136 C97.5701895,15.2923396 97.7018394,15.8869596 97.7018394,16.5788914 Z M110.827465,16.5788914 C110.827465,17.9800533 110.309642,19.0546937 109.273981,19.802845 C108.23832,20.5509962 106.755064,20.9250663 104.82417,20.9250663 C102.884499,20.9250663 101.326642,20.6353242 100.150552,20.0558313 L100.150552,17.422179 C101.862026,18.2006023 103.45499,18.5898081 104.929491,18.5898081 C106.834055,18.5898081 107.786322,18.0232974 107.786322,16.8902591 C107.786322,16.5269949 107.681002,16.2242793 107.470359,15.9821032 C107.259716,15.739927 106.913038,15.4891055 106.430315,15.2296311 C105.947591,14.9701567 105.276177,14.6760901 104.416051,14.3474225 C102.739684,13.7073855 101.605301,13.0673582 101.012867,12.4273213 C100.420434,11.7872844 100.124222,10.9569787 100.124222,9.93637929 C100.124222,8.70820034 100.626685,7.75464613 101.631628,7.07568805 C102.636571,6.39672997 104.003535,6.05725602 105.732563,6.05725602 C107.444038,6.05725602 109.063331,6.39889222 110.590493,7.08217488 L109.589944,9.37851206 C108.018898,8.73847514 106.698011,8.41846149 105.627242,8.41846149 C103.994759,8.41846149 103.17853,8.87685943 103.17853,9.79366907 C103.17853,10.2434247 103.391364,10.6239815 103.817038,10.9353508 C104.242713,11.2467201 105.170844,11.6748465 106.601461,12.2197428 C107.803882,12.6781476 108.677159,13.097625 109.22132,13.4781875 C109.765482,13.85875 110.169208,14.2976876 110.432512,14.7950136 C110.695815,15.2923396 110.827465,15.8869596 110.827465,16.5788914 Z M124.650843,10.5201938 L126.836253,10.5201938 C128.301977,10.5201938 129.363953,10.2520743 130.022212,9.71582713 C130.680471,9.17957998 131.009596,8.38387035 131.009596,7.32867435 C131.009596,6.25618006 130.654141,5.48641748 129.943221,5.01936351 C129.232301,4.55230954 128.161549,4.31878606 126.730932,4.31878606 L124.650843,4.31878606 L124.650843,10.5201938 Z M124.650843,13.0889778 L124.650843,20.6655931 L121.504379,20.6655931 L121.504379,1.69810747 L126.941574,1.69810747 C129.425406,1.69810747 131.264116,2.15650541 132.457759,3.07331505 C133.651403,3.99012469 134.248216,5.37396753 134.248216,7.2248851 C134.248216,9.58610237 133.00193,11.2683363 130.509321,12.2716374 L135.946517,20.6655931 L132.365604,20.6655931 L127.757811,13.0889778 L124.650843,13.0889778 Z M144.767148,20.9250663 C142.502736,20.9250663 140.732045,20.2742277 139.455021,18.972531 C138.177998,17.6708343 137.539496,15.8783253 137.539496,13.5949504 C137.539496,11.2510314 138.131921,9.40879063 139.316788,8.06817276 C140.501654,6.7275549 142.129725,6.05725602 144.201048,6.05725602 C146.123165,6.05725602 147.641527,6.6324157 148.75618,7.78275232 C149.870832,8.93308894 150.42815,10.5158592 150.42815,12.5311106 L150.42815,14.1787649 L140.725456,14.1787649 C140.76934,15.5712777 141.151124,16.6415936 141.870821,17.3897449 C142.590518,18.1378961 143.604222,18.5119662 144.911964,18.5119662 C145.77209,18.5119662 146.57296,18.4319628 147.314599,18.2719535 C148.056238,18.1119443 148.852719,17.845987 149.704068,17.4740737 L149.704068,19.952042 C148.949264,20.3066571 148.185695,20.5574786 147.413337,20.7045141 C146.640979,20.8515496 145.758925,20.9250663 144.767148,20.9250663 Z M144.201048,8.36656686 C143.218047,8.36656686 142.430342,8.67360699 141.837908,9.28769647 C141.245475,9.90178594 140.892214,10.7969593 140.778116,11.9732433 L147.387007,11.9732433 C147.369453,10.7883101 147.079824,9.89097454 146.518109,9.28120964 C145.956394,8.67144474 145.184048,8.36656686 144.201048,8.36656686 Z M156.721078,20.6655931 L151.191727,6.31672915 L154.456677,6.31672915 L157.418829,14.6587902 C157.927883,16.0599521 158.235066,17.1929734 158.340388,18.0578882 L158.445709,18.0578882 C158.5247,17.4351496 158.831883,16.3021282 159.367267,14.6587902 L162.329419,6.31672915 L165.6207,6.31672915 L160.065019,20.6655931 L156.721078,20.6655931 Z M174.191194,20.9250663 C171.926782,20.9250663 170.15609,20.2742277 168.879067,18.972531 C167.602044,17.6708343 166.963542,15.8783253 166.963542,13.5949504 C166.963542,11.2510314 167.555967,9.40879063 168.740834,8.06817276 C169.9257,6.7275549 171.553771,6.05725602 173.625093,6.05725602 C175.547211,6.05725602 177.065573,6.6324157 178.180225,7.78275232 C179.294878,8.93308894 179.852196,10.5158592 179.852196,12.5311106 L179.852196,14.1787649 L170.149501,14.1787649 C170.193385,15.5712777 170.57517,16.6415936 171.294867,17.3897449 C172.014564,18.1378961 173.028268,18.5119662 174.33601,18.5119662 C175.196136,18.5119662 175.997006,18.4319628 176.738645,18.2719535 C177.480284,18.1119443 178.276765,17.845987 179.128114,17.4740737 L179.128114,19.952042 C178.37331,20.3066571 177.609741,20.5574786 176.837383,20.7045141 C176.065025,20.8515496 175.182971,20.9250663 174.191194,20.9250663 Z M173.625093,8.36656686 C172.642093,8.36656686 171.854388,8.67360699 171.261954,9.28769647 C170.669521,9.90178594 170.31626,10.7969593 170.202162,11.9732433 L176.811053,11.9732433 C176.793499,10.7883101 176.503869,9.89097454 175.942155,9.28120964 C175.38044,8.67144474 174.608094,8.36656686 173.625093,8.36656686 Z M196.176946,20.6655931 L193.069978,20.6655931 L193.069978,11.8435068 C193.069978,10.7364159 192.843979,9.9104347 192.391974,9.3655384 C191.939969,8.82064211 191.222477,8.54819805 190.239476,8.54819805 C188.931735,8.54819805 187.975079,8.92875483 187.36948,9.68987981 C186.763881,10.4510048 186.461087,11.7267349 186.461087,13.5171085 L186.461087,20.6655931 L183.367283,20.6655931 L183.367283,6.31672915 L185.789666,6.31672915 L186.224115,8.19790933 L186.382096,8.19790933 C186.820936,7.51462667 187.444078,6.98703659 188.251543,6.61512325 C189.059008,6.2432099 189.954227,6.05725602 190.937228,6.05725602 C194.430391,6.05725602 196.176946,7.80868212 196.176946,11.3115869 L196.176946,20.6655931 Z M210.750735,20.6655931 L210.316286,18.784413 L210.158305,18.784413 C209.728242,19.4503973 209.11607,19.9736629 208.32177,20.3542254 C207.527471,20.7347879 206.621281,20.9250663 205.603173,20.9250663 C203.839038,20.9250663 202.522539,20.4926154 201.653637,19.6277006 C200.784734,18.7627859 200.35029,17.4524597 200.35029,15.6966827 L200.35029,6.31672915 L203.470423,6.31672915 L203.470423,15.1647628 C203.470423,16.2632045 203.698616,17.0870235 204.15501,17.6362444 C204.611403,18.1854652 205.326701,18.4600715 206.300924,18.4600715 C207.599889,18.4600715 208.554351,18.0773525 209.164338,17.3119029 C209.774325,16.5464534 210.079314,15.2642365 210.079314,13.4652138 L210.079314,6.31672915 L213.186283,6.31672915 L213.186283,20.6655931 L210.750735,20.6655931 Z M223.955352,20.9250663 C221.69094,20.9250663 219.920249,20.2742277 218.643226,18.972531 C217.366202,17.6708343 216.7277,15.8783253 216.7277,13.5949504 C216.7277,11.2510314 217.320125,9.40879063 218.504992,8.06817276 C219.689859,6.7275549 221.317929,6.05725602 223.389252,6.05725602 C225.311369,6.05725602 226.829731,6.6324157 227.944384,7.78275232 C229.059036,8.93308894 229.616354,10.5158592 229.616354,12.5311106 L229.616354,14.1787649 L219.91366,14.1787649 C219.957544,15.5712777 220.339328,16.6415936 221.059025,17.3897449 C221.778722,18.1378961 222.792426,18.5119662 224.100168,18.5119662 C224.960294,18.5119662 225.761164,18.4319628 226.502803,18.2719535 C227.244442,18.1119443 228.040924,17.845987 228.892272,17.4740737 L228.892272,19.952042 C228.137468,20.3066571 227.373899,20.5574786 226.601541,20.7045141 C225.829184,20.8515496 224.947129,20.9250663 223.955352,20.9250663 Z M223.389252,8.36656686 C222.406251,8.36656686 221.618546,8.67360699 221.026112,9.28769647 C220.433679,9.90178594 220.080418,10.7969593 219.96632,11.9732433 L226.575211,11.9732433 C226.557657,10.7883101 226.268028,9.89097454 225.706313,9.28120964 C225.144598,8.67144474 224.372252,8.36656686 223.389252,8.36656686 Z" id="Business-Revenue" fill="#03AAC4"></path>
                </g>
                <text id="MONTHLY-REVENUES" font-family="OpenSans-Semibold, Open Sans" font-size="21" font-weight="500" fill="#97C355">
                    <tspan x="428.743961" y="488.183575">MONTHLY REVENUES</tspan>
                </text>
                <g id="Group-13" transform="translate(701.690821, 188.405797)">
                    <polygon id="Rectangle-2" fill="#97C355" points="0 23.8948626 22.2122207 23.8948626 22.2122207 0.379190935 52.1463617 23.8948626 224.637681 23.8948626 224.637681 138.294524 0 138.294524"></polygon>
                    <path d="M23.7273551,44.849537 C23.7273551,46.6307711 23.142367,47.9958448 21.9723732,48.9447991 C20.8023794,49.8937535 19.1371133,50.3682236 16.9765248,50.3682236 L15.1981431,50.3682236 L15.1981431,56.7502987 L12.401872,56.7502987 L12.401872,39.6925403 L17.3275211,39.6925403 C19.4647098,39.6925403 21.0656272,40.1281194 22.1303216,40.9992906 C23.1950159,41.8704618 23.7273551,43.1538645 23.7273551,44.849537 Z M15.1981431,48.0230735 L16.6840278,48.0230735 C18.1192201,48.0230735 19.1721987,47.7741711 19.8429952,47.276359 C20.5137916,46.7785469 20.8491848,46.0007271 20.8491848,44.9428763 C20.8491848,43.9628087 20.5488909,43.2316581 19.9482941,42.7494026 C19.3476973,42.2671471 18.4117163,42.026023 17.1403231,42.026023 L15.1981431,42.026023 L15.1981431,48.0230735 Z M36.5621226,56.7502987 L34.8539402,52.0133289 L28.3137077,52.0133289 L26.640625,56.7502987 L23.6922554,56.7502987 L30.0920894,39.6225358 L33.134058,39.6225358 L39.5338919,56.7502987 L36.5621226,56.7502987 Z M34.1168478,49.6098417 L32.5139644,44.9662112 C32.396965,44.6550786 32.2351183,44.1650521 32.0284194,43.4961171 C31.8217205,42.827182 31.6793734,42.3371556 31.6013738,42.026023 C31.3907749,42.9827557 31.0826812,44.0289233 30.6770833,45.1645572 L29.1326993,49.6098417 L34.1168478,49.6098417 Z M45.1849336,47.474705 L49.2330918,39.6925403 L52.2750604,39.6925403 L46.5772192,50.1348753 L46.5772192,56.7502987 L43.7692482,56.7502987 L43.7692482,50.2282146 L38.0948068,39.6925403 L41.1367754,39.6925403 L45.1849336,47.474705 Z M61.9274607,56.7502987 L56.966712,42.5043869 L56.8731129,42.5043869 C57.0057122,44.6200885 57.0720109,46.6035289 57.0720109,48.4547678 L57.0720109,56.7502987 L54.5331371,56.7502987 L54.5331371,39.6925403 L58.4759964,39.6925403 L63.2261473,53.2617421 L63.2963466,53.2617421 L68.1868961,39.6925403 L72.1414553,39.6925403 L72.1414553,56.7502987 L69.4504831,56.7502987 L69.4504831,48.3147588 C69.4504831,47.4669225 69.4719327,46.3624184 69.5148324,45.0012134 C69.5577322,43.6400084 69.5947814,42.8155194 69.6259813,42.5277218 L69.5323822,42.5277218 L64.3961353,56.7502987 L61.9274607,56.7502987 Z M86.3217089,56.7502987 L76.6459088,56.7502987 L76.6459088,39.6925403 L86.3217089,39.6925403 L86.3217089,42.0493578 L79.44218,42.0493578 L79.44218,46.6929884 L85.8888134,46.6929884 L85.8888134,49.026471 L79.44218,49.026471 L79.44218,54.3818138 L86.3217089,54.3818138 L86.3217089,56.7502987 Z M104.269324,56.7502987 L100.841259,56.7502987 L92.4290459,43.1577621 L92.3354469,43.1577621 L92.3939463,43.916144 C92.5031457,45.3629105 92.5577446,46.6852041 92.5577446,47.8830645 L92.5577446,56.7502987 L90.0188708,56.7502987 L90.0188708,39.6925403 L93.4118357,39.6925403 L101.800649,53.2150724 L101.870848,53.2150724 C101.855249,53.0361712 101.824049,52.3847471 101.777249,51.2607807 C101.73045,50.1368142 101.70705,49.2598224 101.70705,48.629779 L101.70705,39.6925403 L104.269324,39.6925403 L104.269324,56.7502987 Z M114.693916,56.7502987 L111.897645,56.7502987 L111.897645,42.0843601 L106.866697,42.0843601 L106.866697,39.6925403 L119.724864,39.6925403 L119.724864,42.0843601 L114.693916,42.0843601 L114.693916,56.7502987 Z M132.208635,52.1183356 C132.208635,53.6351069 131.658746,54.8251712 130.558952,55.6885641 C129.459158,56.551957 127.942089,56.983647 126.007699,56.983647 C124.07331,56.983647 122.489942,56.6841863 121.257548,56.0852561 L121.257548,53.4484207 C122.037544,53.8140015 122.866277,54.1017948 123.743773,54.3118093 C124.621268,54.5218238 125.438301,54.6268295 126.194897,54.6268295 C127.302491,54.6268295 128.119525,54.4168181 128.646022,53.9967891 C129.172519,53.5767601 129.435764,53.0128408 129.435764,52.3050142 C129.435764,51.6671924 129.193969,51.1266077 128.710371,50.6832437 C128.226774,50.2398798 127.228394,49.7148515 125.715202,49.1081429 C124.155211,48.4780994 123.055433,47.7586162 122.415836,46.9496714 C121.77624,46.1407267 121.456446,45.168452 121.456446,44.0328181 C121.456446,42.6093866 121.963436,41.4893261 122.977431,40.672603 C123.991425,39.85588 125.352497,39.4475246 127.060688,39.4475246 C128.69868,39.4475246 130.328847,39.8053217 131.951238,40.5209267 L131.062047,42.7960723 C129.541055,42.1582505 128.183883,41.8393444 126.990489,41.8393444 C126.085694,41.8393444 125.399308,42.0357439 124.93131,42.4285488 C124.463313,42.8213536 124.229318,43.3405483 124.229318,43.9861484 C124.229318,44.4295124 124.322916,44.8086995 124.510115,45.1237213 C124.697314,45.438743 125.005407,45.7362591 125.434405,46.0162784 C125.863403,46.2962977 126.635587,46.6657621 127.750981,47.1246826 C129.006775,47.6458297 129.927156,48.1319671 130.512153,48.5831093 C131.09715,49.0342516 131.526141,49.5437235 131.799139,50.1115405 C132.072138,50.6793574 132.208635,51.3482824 132.208635,52.1183356 Z M148.740565,47.4980399 L155.0351,47.4980399 L155.0351,56.0619213 C154.005505,56.3963888 153.016875,56.6336239 152.06918,56.7736335 C151.121485,56.9136432 150.097756,56.983647 148.997962,56.983647 C146.408376,56.983647 144.411616,56.219439 143.007624,54.6910002 C141.603631,53.1625614 140.901646,51.0060561 140.901646,48.2214195 C140.901646,45.4756745 141.693329,43.3269473 143.276721,41.7751736 C144.860113,40.2233999 147.040168,39.4475246 149.816954,39.4475246 C151.603144,39.4475246 153.29571,39.7897653 154.894701,40.474257 L153.911911,42.7960723 C152.523519,42.1582505 151.135147,41.8393444 149.746754,41.8393444 C147.921564,41.8393444 146.478593,42.4110419 145.417799,43.5544542 C144.357005,44.6978664 143.826615,46.2612841 143.826615,48.2447543 C143.826615,50.3293426 144.304356,51.9141504 145.259851,52.9992253 C146.215345,54.0843002 147.590068,54.6268295 149.384058,54.6268295 C150.288853,54.6268295 151.256033,54.5140456 152.285628,54.2884745 L152.285628,49.8898596 L148.740565,49.8898596 L148.740565,47.4980399 Z M174.3282,48.1980847 C174.3282,50.9749429 173.632065,53.1333928 172.239772,54.6734991 C170.847479,56.2136054 168.87607,56.983647 166.325483,56.983647 C163.743697,56.983647 161.760587,56.219439 160.376095,54.6910002 C158.991602,53.1625614 158.299366,50.9904997 158.299366,48.1747499 C158.299366,45.359 158.995502,43.196661 160.387794,41.687668 C161.780087,40.178675 163.767097,39.4241898 166.348883,39.4241898 C168.891669,39.4241898 170.857229,40.1903423 172.245622,41.7226703 C173.634015,43.2549982 174.3282,45.4134481 174.3282,48.1980847 Z M161.271135,48.1980847 C161.271135,50.2982296 161.696227,51.8908156 162.546422,52.9758905 C163.396618,54.0609653 164.656292,54.6034946 166.325483,54.6034946 C167.986874,54.6034946 169.240699,54.066799 170.086994,52.9933916 C170.93329,51.9199842 171.356431,50.3215645 171.356431,48.1980847 C171.356431,46.1057181 170.93719,44.5189657 170.098694,43.43778 C169.260199,42.3565943 168.010274,41.8160096 166.348883,41.8160096 C164.671892,41.8160096 163.406367,42.3565943 162.552272,43.43778 C161.698177,44.5189657 161.271135,46.1057181 161.271135,48.1980847 Z M197.63436,39.6925403 L197.63436,50.7299134 C197.63436,51.9900003 197.363315,53.0925599 196.821218,54.0376251 C196.279121,54.9826903 195.495237,55.7099518 194.469543,56.2194314 C193.443848,56.728911 192.217323,56.983647 190.789931,56.983647 C188.668342,56.983647 187.018675,56.4236167 185.840882,55.3035394 C184.663088,54.1834621 184.0742,52.643379 184.0742,50.6832437 L184.0742,39.6925403 L186.882171,39.6925403 L186.882171,50.4848977 C186.882171,51.8927726 187.209764,52.931162 187.864961,53.6000971 C188.520157,54.2690321 189.526337,54.6034946 190.88353,54.6034946 C193.519916,54.6034946 194.838089,53.2228645 194.838089,50.4615629 L194.838089,39.6925403 L197.63436,39.6925403 Z M213.335598,44.849537 C213.335598,46.6307711 212.75061,47.9958448 211.580616,48.9447991 C210.410622,49.8937535 208.745356,50.3682236 206.584768,50.3682236 L204.806386,50.3682236 L204.806386,56.7502987 L202.010115,56.7502987 L202.010115,39.6925403 L206.935764,39.6925403 C209.072953,39.6925403 210.67387,40.1281194 211.738564,40.9992906 C212.803259,41.8704618 213.335598,43.1538645 213.335598,44.849537 Z M204.806386,48.0230735 L206.292271,48.0230735 C207.727463,48.0230735 208.780441,47.7741711 209.451238,47.276359 C210.122034,46.7785469 210.457428,46.0007271 210.457428,44.9428763 C210.457428,43.9628087 210.157134,43.2316581 209.556537,42.7494026 C208.95594,42.2671471 208.019959,42.026023 206.748566,42.026023 L204.806386,42.026023 L204.806386,48.0230735 Z M33.0872585,81.0535208 C33.0872585,83.830379 32.3911226,85.9888289 30.99883,87.5289352 C29.6065374,89.0690415 27.6351275,89.839083 25.0845411,89.839083 C22.5027548,89.839083 20.5196451,89.0748751 19.1351525,87.5464363 C17.7506598,86.0179975 17.0584239,83.8459358 17.0584239,81.0301859 C17.0584239,78.2144361 17.7545598,76.0520971 19.1468524,74.5431041 C20.5391449,73.0341111 22.5261546,72.2796259 25.1079408,72.2796259 C27.6507273,72.2796259 29.6162873,73.0457784 31.00468,74.5781063 C32.3930726,76.1104343 33.0872585,78.2688842 33.0872585,81.0535208 Z M20.0301932,81.0535208 C20.0301932,83.1536657 20.4552846,84.7462517 21.3054801,85.8313265 C22.1556755,86.9164014 23.4153499,87.4589307 25.0845411,87.4589307 C26.7459322,87.4589307 27.9997567,86.9222351 28.8460522,85.8488277 C29.6923477,84.7754203 30.1154891,83.1770006 30.1154891,81.0535208 C30.1154891,78.9611542 29.6962477,77.3744018 28.8577521,76.2932161 C28.0192566,75.2120304 26.769332,74.6714456 25.1079408,74.6714456 C23.4309497,74.6714456 22.1654255,75.2120304 21.31133,76.2932161 C20.4572346,77.3744018 20.0301932,78.9611542 20.0301932,81.0535208 Z M39.5572917,80.4818175 L41.4994716,80.4818175 C42.8020647,80.4818175 43.7458455,80.2406934 44.3308424,79.7584379 C44.9158393,79.2761824 45.2083333,78.5605882 45.2083333,77.6116338 C45.2083333,76.6471228 44.8924398,75.9548632 44.2606431,75.5348342 C43.6288465,75.1148052 42.6772658,74.9047939 41.4058726,74.9047939 L39.5572917,74.9047939 L39.5572917,80.4818175 Z M39.5572917,82.7919654 L39.5572917,89.6057348 L36.7610205,89.6057348 L36.7610205,72.5479764 L41.5930707,72.5479764 C43.8004589,72.5479764 45.4345257,72.9602209 46.49532,73.7847222 C47.5561144,74.6092236 48.0865036,75.8537352 48.0865036,77.5182945 C48.0865036,79.6417744 46.9789261,81.1546338 44.7637379,82.0569183 L49.595788,89.6057348 L46.4134209,89.6057348 L42.3184632,82.7919654 L39.5572917,82.7919654 Z M72.2116546,80.9135118 C72.2116546,83.7292616 71.4277705,85.8818779 69.8599789,87.3714251 C68.2921872,88.8609723 66.0341331,89.6057348 63.0857488,89.6057348 L58.3004982,89.6057348 L58.3004982,72.5479764 L63.5888436,72.5479764 C66.3110291,72.5479764 68.4286861,73.279127 69.941878,74.7414501 C71.45507,76.2037732 72.2116546,78.2611066 72.2116546,80.9135118 Z M69.263285,81.0068511 C69.263285,76.923236 67.3484239,74.8814591 63.5186443,74.8814591 L61.0967693,74.8814591 L61.0967693,87.2605847 L63.0857488,87.2605847 C67.2041269,87.2605847 69.263285,85.1760277 69.263285,81.0068511 Z M91.0718599,81.0535208 C91.0718599,83.830379 90.3757241,85.9888289 88.9834315,87.5289352 C87.5911389,89.0690415 85.6197289,89.839083 83.0691425,89.839083 C80.4873563,89.839083 78.5042466,89.0748751 77.1197539,87.5464363 C75.7352613,86.0179975 75.0430254,83.8459358 75.0430254,81.0301859 C75.0430254,78.2144361 75.7391612,76.0520971 77.1314538,74.5431041 C78.5237464,73.0341111 80.510756,72.2796259 83.0925423,72.2796259 C85.6353287,72.2796259 87.6008888,73.0457784 88.9892814,74.5781063 C90.377674,76.1104343 91.0718599,78.2688842 91.0718599,81.0535208 Z M78.0147947,81.0535208 C78.0147947,83.1536657 78.439886,84.7462517 79.2900815,85.8313265 C80.140277,86.9164014 81.3999514,87.4589307 83.0691425,87.4589307 C84.7305337,87.4589307 85.9843582,86.9222351 86.8306537,85.8488277 C87.6769492,84.7754203 88.1000906,83.1770006 88.1000906,81.0535208 C88.1000906,78.9611542 87.6808491,77.3744018 86.8423536,76.2932161 C86.003858,75.2120304 84.7539334,74.6714456 83.0925423,74.6714456 C81.4155512,74.6714456 80.1500269,75.2120304 79.2959315,76.2932161 C78.441836,77.3744018 78.0147947,78.9611542 78.0147947,81.0535208 Z M110.294761,89.6057348 L107.252793,89.6057348 L104.351223,79.4317503 C104.226423,78.9883864 104.070427,78.3486296 103.883228,77.5124608 C103.696029,76.676292 103.582931,76.0948717 103.543931,75.7681825 C103.465932,76.2659946 103.339184,76.911585 103.163685,77.7049731 C102.988186,78.4983612 102.841939,79.0895042 102.72494,79.47842 L99.8935688,89.6057348 L96.8516002,89.6057348 L94.6403231,81.0651882 L92.3939463,72.5479764 L95.2487168,72.5479764 L97.6939915,82.4886126 C98.0761895,84.0831671 98.349184,85.4910209 98.5129831,86.7122162 C98.5987826,86.0510595 98.72748,85.3121307 98.8990791,84.4954077 C99.0706782,83.6786847 99.226675,83.0175379 99.3670743,82.5119474 L102.151646,72.5479764 L104.924517,72.5479764 L107.779287,82.5586171 C108.052286,83.4842365 108.34088,84.8687557 108.645079,86.7122162 C108.762078,85.5999173 109.042872,84.1842853 109.48747,82.4652778 L111.921045,72.5479764 L114.752415,72.5479764 L110.294761,89.6057348 Z M131.424743,89.6057348 L127.996679,89.6057348 L119.584466,76.0131982 L119.490867,76.0131982 L119.549366,76.77158 C119.658565,78.2183465 119.713164,79.5406402 119.713164,80.7385006 L119.713164,89.6057348 L117.17429,89.6057348 L117.17429,72.5479764 L120.567255,72.5479764 L128.956069,86.0705085 L129.026268,86.0705085 C129.010668,85.8916073 128.979469,85.2401832 128.932669,84.1162168 C128.885869,82.9922503 128.86247,82.1152585 128.86247,81.4852151 L128.86247,72.5479764 L131.424743,72.5479764 L131.424743,89.6057348 Z M142.165232,72.5479764 L147.24298,72.5479764 C149.598568,72.5479764 151.300883,72.8902171 152.349977,73.5747088 C153.399072,74.2592005 153.923611,75.34037 153.923611,76.8182497 C153.923611,77.813874 153.666216,78.642252 153.151419,79.3034088 C152.636622,79.9645655 151.895637,80.3806991 150.928442,80.551822 L150.928442,80.6684961 C152.129636,80.8940672 153.012968,81.3393691 153.578465,82.0044149 C154.143962,82.6694608 154.426706,83.5697872 154.426706,84.7054211 C154.426706,86.2377491 153.890467,87.4375361 152.817973,88.3048182 C151.745478,89.1721002 150.253759,89.6057348 148.342769,89.6057348 L142.165232,89.6057348 L142.165232,72.5479764 Z M144.961504,79.5950941 L147.652476,79.5950941 C148.82247,79.5950941 149.676552,79.4103619 150.214749,79.040892 C150.752947,78.671422 151.022041,78.0433325 151.022041,77.1566047 C151.022041,76.3554383 150.731497,75.7759626 150.1504,75.4181601 C149.569303,75.0603576 148.646972,74.8814591 147.383379,74.8814591 L144.961504,74.8814591 L144.961504,79.5950941 Z M144.961504,81.8585723 L144.961504,87.2605847 L147.933273,87.2605847 C149.103267,87.2605847 149.986599,87.0369615 150.583296,86.5897084 C151.179992,86.1424553 151.478336,85.4365839 151.478336,84.4720729 C151.478336,83.585345 151.174143,82.9280873 150.565746,82.50028 C149.957349,82.0724727 149.033068,81.8585723 147.792874,81.8585723 L144.961504,81.8585723 Z M168.115565,89.6057348 L166.407382,84.8687649 L159.86715,84.8687649 L158.194067,89.6057348 L155.245697,89.6057348 L161.645531,72.4779719 L164.6875,72.4779719 L171.087334,89.6057348 L168.115565,89.6057348 Z M165.67029,82.4652778 L164.067406,77.8216473 C163.950407,77.5105147 163.78856,77.0204882 163.581861,76.3515532 C163.375163,75.6826181 163.232815,75.1925917 163.154816,74.8814591 C162.944217,75.8381918 162.636123,76.8843594 162.230525,78.0199933 L160.686141,82.4652778 L165.67029,82.4652778 Z M183.208409,84.9737717 C183.208409,86.490543 182.65852,87.6806072 181.558726,88.5440001 C180.458932,89.4073931 178.941863,89.839083 177.007473,89.839083 C175.073083,89.839083 173.489715,89.5396224 172.257322,88.9406922 L172.257322,86.3038568 C173.037318,86.6694376 173.866051,86.9572309 174.743546,87.1672454 C175.621042,87.3772599 176.438075,87.4822655 177.194671,87.4822655 C178.302265,87.4822655 179.119298,87.2722542 179.645796,86.8522252 C180.172293,86.4321962 180.435537,85.8682769 180.435537,85.1604503 C180.435537,84.5226285 180.193742,83.9820437 179.710145,83.5386798 C179.226548,83.0953159 178.228168,82.5702875 176.714976,81.963579 C175.154984,81.3335355 174.055206,80.6140522 173.41561,79.8051075 C172.776013,78.9961628 172.45622,78.0238881 172.45622,76.8882542 C172.45622,75.4648226 172.96321,74.3447621 173.977204,73.5280391 C174.991199,72.7113161 176.352271,72.3029607 178.060462,72.3029607 C179.698453,72.3029607 181.32862,72.6607578 182.951011,73.3763628 L182.061821,75.6515084 C180.540829,75.0136866 179.183656,74.6947805 177.990263,74.6947805 C177.085467,74.6947805 176.399081,74.89118 175.931084,75.2839848 C175.463086,75.6767897 175.229091,76.1959844 175.229091,76.8415845 C175.229091,77.2849485 175.322689,77.6641356 175.509888,77.9791573 C175.697087,78.2941791 176.005181,78.5916951 176.434179,78.8717145 C176.863176,79.1517338 177.635361,79.5211982 178.750755,79.9801187 C180.006548,80.5012658 180.926929,80.9874032 181.511926,81.4385454 C182.096923,81.8896876 182.525914,82.3991596 182.798913,82.9669766 C183.071912,83.5347935 183.208409,84.2037185 183.208409,84.9737717 Z M196.195275,89.6057348 L186.519475,89.6057348 L186.519475,72.5479764 L196.195275,72.5479764 L196.195275,74.9047939 L189.315746,74.9047939 L189.315746,79.5484244 L195.762379,79.5484244 L195.762379,81.8819071 L189.315746,81.8819071 L189.315746,87.2372499 L196.195275,87.2372499 L196.195275,89.6057348 Z M213.803593,80.9135118 C213.803593,83.7292616 213.019709,85.8818779 211.451917,87.3714251 C209.884126,88.8609723 207.626072,89.6057348 204.677687,89.6057348 L199.892437,89.6057348 L199.892437,72.5479764 L205.180782,72.5479764 C207.902968,72.5479764 210.020624,73.279127 211.533816,74.7414501 C213.047008,76.2037732 213.803593,78.2611066 213.803593,80.9135118 Z M210.855223,81.0068511 C210.855223,76.923236 208.940362,74.8814591 205.110583,74.8814591 L202.688708,74.8814591 L202.688708,87.2605847 L204.677687,87.2605847 C208.796065,87.2605847 210.855223,85.1760277 210.855223,81.0068511 Z M54.3927385,113.908957 C54.3927385,116.685815 53.6966027,118.844265 52.3043101,120.384371 C50.9120175,121.924478 48.9406076,122.694519 46.3900211,122.694519 C43.8082349,122.694519 41.8251252,121.930311 40.4406325,120.401872 C39.0561399,118.873434 38.363904,116.701372 38.363904,113.885622 C38.363904,111.069872 39.0600398,108.907533 40.4523324,107.39854 C41.844625,105.889547 43.8316346,105.135062 46.4134209,105.135062 C48.9562074,105.135062 50.9217674,105.901214 52.31016,107.433542 C53.6985526,108.96587 54.3927385,111.12432 54.3927385,113.908957 Z M41.3356733,113.908957 C41.3356733,116.009102 41.7607647,117.601688 42.6109601,118.686763 C43.4611556,119.771837 44.72083,120.314367 46.3900211,120.314367 C48.0514123,120.314367 49.3052368,119.777671 50.1515323,118.704264 C50.9978278,117.630856 51.4209692,116.032437 51.4209692,113.908957 C51.4209692,111.81659 51.0017277,110.229838 50.1632322,109.148652 C49.3247366,108.067466 48.0748121,107.526882 46.4134209,107.526882 C44.7364298,107.526882 43.4709055,108.067466 42.6168101,109.148652 C41.7627146,110.229838 41.3356733,111.81659 41.3356733,113.908957 Z M72.3169535,122.461171 L68.8888889,122.461171 L60.4766757,108.868634 L60.3830767,108.868634 L60.4415761,109.627016 C60.5507755,111.073783 60.6053744,112.396076 60.6053744,113.593937 L60.6053744,122.461171 L58.0665006,122.461171 L58.0665006,105.403412 L61.4594656,105.403412 L69.848279,118.925945 L69.9184783,118.925945 C69.9028783,118.747043 69.871679,118.095619 69.8248792,116.971653 C69.7780795,115.847686 69.75468,114.970695 69.75468,114.340651 L69.75468,105.403412 L72.3169535,105.403412 L72.3169535,122.461171 Z M85.8537138,113.337254 L87.7958937,113.337254 C89.0984868,113.337254 90.0422676,113.096129 90.6272645,112.613874 C91.2122614,112.131618 91.5047554,111.416024 91.5047554,110.46707 C91.5047554,109.502559 91.1888619,108.810299 90.5570652,108.39027 C89.9252686,107.970241 88.9736879,107.76023 87.7022947,107.76023 L85.8537138,107.76023 L85.8537138,113.337254 Z M85.8537138,115.647401 L85.8537138,122.461171 L83.0574426,122.461171 L83.0574426,105.403412 L87.8894928,105.403412 C90.096881,105.403412 91.7309478,105.815657 92.7917421,106.640158 C93.8525365,107.46466 94.3829257,108.709171 94.3829257,110.373731 C94.3829257,112.49721 93.2753482,114.01007 91.06016,114.912354 L95.8922101,122.461171 L92.709843,122.461171 L88.6148853,115.647401 L85.8537138,115.647401 Z M108.048385,122.461171 L98.3725845,122.461171 L98.3725845,105.403412 L108.048385,105.403412 L108.048385,107.76023 L101.168856,107.76023 L101.168856,112.403861 L107.615489,112.403861 L107.615489,114.737343 L101.168856,114.737343 L101.168856,120.092686 L108.048385,120.092686 L108.048385,122.461171 Z M121.491546,105.403412 L124.393116,105.403412 L118.402778,122.461171 L115.454408,122.461171 L109.48747,105.403412 L112.36564,105.403412 L115.934103,116.009091 C116.121302,116.514682 116.320198,117.166106 116.530797,117.963383 C116.741396,118.76066 116.877893,119.353748 116.940293,119.742664 C117.041692,119.151512 117.197689,118.46703 117.408288,117.689199 C117.618887,116.911367 117.790483,116.335781 117.923083,115.962422 L121.491546,105.403412 Z M136.326993,122.461171 L126.651193,122.461171 L126.651193,105.403412 L136.326993,105.403412 L136.326993,107.76023 L129.447464,107.76023 L129.447464,112.403861 L135.894097,112.403861 L135.894097,114.737343 L129.447464,114.737343 L129.447464,120.092686 L136.326993,120.092686 L136.326993,122.461171 Z M154.274607,122.461171 L150.846543,122.461171 L142.43433,108.868634 L142.340731,108.868634 L142.39923,109.627016 C142.508429,111.073783 142.563028,112.396076 142.563028,113.593937 L142.563028,122.461171 L140.024155,122.461171 L140.024155,105.403412 L143.41712,105.403412 L151.805933,118.925945 L151.876132,118.925945 C151.860532,118.747043 151.829333,118.095619 151.782533,116.971653 C151.735733,115.847686 151.712334,114.970695 151.712334,114.340651 L151.712334,105.403412 L154.274607,105.403412 L154.274607,122.461171 Z M172.198822,105.403412 L172.198822,116.440786 C172.198822,117.700872 171.927778,118.803432 171.385681,119.748497 C170.843584,120.693562 170.0597,121.420824 169.034005,121.930304 C168.008311,122.439783 166.781786,122.694519 165.354393,122.694519 C163.232804,122.694519 161.583138,122.134489 160.405344,121.014412 C159.22755,119.894334 158.638662,118.354251 158.638662,116.394116 L158.638662,105.403412 L161.446633,105.403412 L161.446633,116.19577 C161.446633,117.603645 161.774227,118.642034 162.429423,119.310969 C163.08462,119.979904 164.090799,120.314367 165.447992,120.314367 C168.084378,120.314367 169.402551,118.933737 169.402551,116.172435 L169.402551,105.403412 L172.198822,105.403412 Z M186.250377,122.461171 L176.574577,122.461171 L176.574577,105.403412 L186.250377,105.403412 L186.250377,107.76023 L179.370848,107.76023 L179.370848,112.403861 L185.817482,112.403861 L185.817482,114.737343 L179.370848,114.737343 L179.370848,120.092686 L186.250377,120.092686 L186.250377,122.461171 Z" id="PAYMENTS-GO-UP-OR-DO" fill="#FFFFFF"></path>
                </g>
                <g id="Group-15" transform="translate(0.000000, 376.811594)">
                    <polygon id="Rectangle-2" fill="#97C355" points="0 0 156.257189 0 156.257189 57.9021711 140.489535 57.9021711 140.489535 80.2944837 110.288885 57.9021711 0 57.9021711"></polygon>
                    <path d="M27.6802788,37.4619789 L24.9116668,37.4619789 L24.9116668,20.3465373 L34.5492401,20.3465373 L34.5492401,22.7113247 L27.6802788,22.7113247 L27.6802788,28.0613636 L34.1170096,28.0613636 L34.1170096,30.4378578 L27.6802788,30.4378578 L27.6802788,37.4619789 Z M51.032411,20.3465373 L51.032411,31.4212348 C51.032411,32.6855829 50.7617829,33.7918709 50.2205185,34.740132 C49.6792541,35.6883931 48.8965741,36.4181139 47.8724551,36.9293164 C46.8483362,37.4405189 45.6236952,37.6961163 44.1984954,37.6961163 C42.0801656,37.6961163 40.4330332,37.1341922 39.2570487,36.0103272 C38.0810642,34.8864622 37.4930807,33.341171 37.4930807,31.3744073 L37.4930807,20.3465373 L40.2967384,20.3465373 L40.2967384,31.1753906 C40.2967384,32.5880264 40.6238285,33.6299273 41.2780186,34.3011244 C41.9322087,34.9723216 42.9368426,35.3079151 44.2919506,35.3079151 C46.9242868,35.3079151 48.2404352,33.9226162 48.2404352,31.1519768 L48.2404352,20.3465373 L51.032411,20.3465373 Z M69.630007,37.4619789 L66.2072083,37.4619789 L57.8079171,23.8234772 L57.7144618,23.8234772 L57.7728714,24.5844236 C57.8819031,26.0360826 57.9364181,27.3628477 57.9364181,28.5647589 L57.9364181,37.4619789 L55.4014442,37.4619789 L55.4014442,20.3465373 L58.7891973,20.3465373 L67.1651247,33.9147978 L67.2352161,33.9147978 C67.2196401,33.7352915 67.1884887,33.0816646 67.1417608,31.9538973 C67.095033,30.82613 67.0716694,29.9461725 67.0716694,29.3139985 L67.0716694,20.3465373 L69.630007,20.3465373 L69.630007,37.4619789 Z M88.0290107,28.7403619 C88.0290107,31.5656336 87.2463307,33.7255292 85.6809473,35.2201136 C84.115564,36.7146979 81.8609785,37.4619789 78.9171232,37.4619789 L74.1392232,37.4619789 L74.1392232,20.3465373 L79.4194452,20.3465373 C82.1374491,20.3465373 84.2518532,21.0801604 85.7627207,22.5474285 C87.2735882,24.0146967 88.0290107,26.0789872 88.0290107,28.7403619 Z M85.0851701,28.8340169 C85.0851701,24.7365924 83.1732504,22.687911 79.3493537,22.687911 L76.931199,22.687911 L76.931199,35.1088983 L78.9171232,35.1088983 C83.029175,35.1088983 85.0851701,33.0172921 85.0851701,28.8340169 Z M91.6971295,37.4619789 L91.6971295,20.3465373 L94.4891053,20.3465373 L94.4891053,37.4619789 L91.6971295,37.4619789 Z M113.226884,37.4619789 L109.804085,37.4619789 L101.404794,23.8234772 L101.311339,23.8234772 L101.369749,24.5844236 C101.47878,26.0360826 101.533295,27.3628477 101.533295,28.5647589 L101.533295,37.4619789 L98.9983214,37.4619789 L98.9983214,20.3465373 L102.386074,20.3465373 L110.762002,33.9147978 L110.832093,33.9147978 C110.816517,33.7352915 110.785366,33.0816646 110.738638,31.9538973 C110.69191,30.82613 110.668547,29.9461725 110.668547,29.3139985 L110.668547,20.3465373 L113.226884,20.3465373 L113.226884,37.4619789 Z M124.721881,28.1784322 L131.006747,28.1784322 L131.006747,36.7712737 C129.978734,37.1068722 128.991623,37.3449095 128.045383,37.4853926 C127.099144,37.6258757 126.076987,37.6961163 124.978883,37.6961163 C122.393274,37.6961163 120.399582,36.929324 118.997746,35.3957166 C117.59591,33.8621092 116.895003,31.6983113 116.895003,28.9042581 C116.895003,26.1492279 117.685471,23.9932346 119.26643,22.4362133 C120.847389,20.879192 123.024096,20.100693 125.796616,20.100693 C127.580063,20.100693 129.270029,20.4440911 130.866564,21.1308975 L129.885284,23.4605643 C128.499024,22.8205856 127.112785,22.5006011 125.726525,22.5006011 C123.904138,22.5006011 122.463384,23.0742319 121.404219,24.2215107 C120.345054,25.3687896 119.81548,26.9374942 119.81548,28.9276718 C119.81548,31.0193094 120.292486,32.6094765 121.246513,33.6982207 C122.200541,34.7869649 123.573151,35.3313288 125.364386,35.3313288 C126.267791,35.3313288 127.233486,35.2181636 128.261499,34.9918297 L128.261499,30.5783403 L124.721881,30.5783403 L124.721881,28.1784322 Z" id="FUNDING" fill="#FFFFFF"></path>
                </g>
            </g>
        </g>
    </g>
</svg>